  0
SECTION
  2
HEADER
  9
$ACADVER
  1
AC1021
  9
$ACADMAINTVER
 70
25
  9
$DWGCODEPAGE
  3
ANSI_1252
  9
$LASTSAVEDBY
  1
ezdxf
  9
$INSBASE
 10
0.0
 20
0.0
 30
0.0
  9
$EXTMIN
 10
1e+20
 20
1e+20
 30
1e+20
  9
$EXTMAX
 10
-1e+20
 20
-1e+20
 30
-1e+20
  9
$LIMMIN
 10
0.0
 20
0.0
  9
$LIMMAX
 10
420.0
 20
297.0
  9
$ORTHOMODE
 70
0
  9
$REGENMODE
 70
1
  9
$FILLMODE
 70
1
  9
$QTEXTMODE
 70
0
  9
$MIRRTEXT
 70
1
  9
$LTSCALE
 40
1.0
  9
$ATTMODE
 70
1
  9
$TEXTSIZE
 40
2.5
  9
$TRACEWID
 40
1.0
  9
$TEXTSTYLE
  7
Standard
  9
$CLAYER
  8
0
  9
$CELTYPE
  6
ByLayer
  9
$CECOLOR
 62
256
  9
$CELTSCALE
 40
1.0
  9
$DISPSILH
 70
0
  9
$DIMSCALE
 40
1.0
  9
$DIMASZ
 40
2.5
  9
$DIMEXO
 40
0.625
  9
$DIMDLI
 40
3.75
  9
$DIMRND
 40
0.0
  9
$DIMDLE
 40
0.0
  9
$DIMEXE
 40
1.25
  9
$DIMTP
 40
0.0
  9
$DIMTM
 40
0.0
  9
$DIMTXT
 40
2.5
  9
$DIMCEN
 40
2.5
  9
$DIMTSZ
 40
0.0
  9
$DIMTOL
 70
0
  9
$DIMLIM
 70
0
  9
$DIMTIH
 70
0
  9
$DIMTOH
 70
0
  9
$DIMSE1
 70
0
  9
$DIMSE2
 70
0
  9
$DIMTAD
 70
1
  9
$DIMZIN
 70
8
  9
$DIMBLK
  1

  9
$DIMASO
 70
1
  9
$DIMSHO
 70
1
  9
$DIMPOST
  1

  9
$DIMAPOST
  1

  9
$DIMALT
 70
0
  9
$DIMALTD
 70
3
  9
$DIMALTF
 40
0.03937007874
  9
$DIMLFAC
 40
1.0
  9
$DIMTOFL
 70
1
  9
$DIMTVP
 40
0.0
  9
$DIMTIX
 70
0
  9
$DIMSOXD
 70
0
  9
$DIMSAH
 70
0
  9
$DIMBLK1
  1

  9
$DIMBLK2
  1

  9
$DIMSTYLE
  2
ISO-25
  9
$DIMCLRD
 70
0
  9
$DIMCLRE
 70
0
  9
$DIMCLRT
 70
0
  9
$DIMTFAC
 40
1.0
  9
$DIMGAP
 40
0.625
  9
$DIMJUST
 70
0
  9
$DIMSD1
 70
0
  9
$DIMSD2
 70
0
  9
$DIMTOLJ
 70
0
  9
$DIMTZIN
 70
8
  9
$DIMALTZ
 70
0
  9
$DIMALTTZ
 70
0
  9
$DIMUPT
 70
0
  9
$DIMDEC
 70
2
  9
$DIMTDEC
 70
2
  9
$DIMALTU
 70
2
  9
$DIMALTTD
 70
3
  9
$DIMTXSTY
  7
Standard
  9
$DIMAUNIT
 70
0
  9
$DIMADEC
 70
0
  9
$DIMALTRND
 40
0.0
  9
$DIMAZIN
 70
0
  9
$DIMDSEP
 70
44
  9
$DIMATFIT
 70
3
  9
$DIMFRAC
 70
0
  9
$DIMLDRBLK
  1

  9
$DIMLUNIT
 70
2
  9
$DIMLWD
 70
-2
  9
$DIMLWE
 70
-2
  9
$DIMTMOVE
 70
0
  9
$DIMFXL
 40
1.0
  9
$DIMFXLON
 70
0
  9
$DIMJOGANG
 40
0.785398163397
  9
$DIMTFILL
 70
0
  9
$DIMTFILLCLR
 70
0
  9
$DIMARCSYM
 70
0
  9
$DIMLTYPE
  6

  9
$DIMLTEX1
  6

  9
$DIMLTEX2
  6

  9
$LUNITS
 70
2
  9
$LUPREC
 70
4
  9
$SKETCHINC
 40
1.0
  9
$FILLETRAD
 40
10.0
  9
$AUNITS
 70
0
  9
$AUPREC
 70
2
  9
$MENU
  1
.
  9
$ELEVATION
 40
0.0
  9
$PELEVATION
 40
0.0
  9
$THICKNESS
 40
0.0
  9
$LIMCHECK
 70
0
  9
$CHAMFERA
 40
0.0
  9
$CHAMFERB
 40
0.0
  9
$CHAMFERC
 40
0.0
  9
$CHAMFERD
 40
0.0
  9
$SKPOLY
 70
0
  9
$TDCREATE
 40
2460178.4453125
  9
$TDUCREATE
 40
2458532.153996898
  9
$TDUPDATE
 40
2460178.4453125
  9
$TDUUPDATE
 40
2458532.1544311
  9
$TDINDWG
 40
0.0
  9
$TDUSRTIMER
 40
0.0
  9
$USRTIMER
 70
1
  9
$ANGBASE
 50
0.0
  9
$ANGDIR
 70
0
  9
$PDMODE
 70
0
  9
$PDSIZE
 40
0.0
  9
$PLINEWID
 40
0.0
  9
$SPLFRAME
 70
0
  9
$SPLINETYPE
 70
6
  9
$SPLINESEGS
 70
8
  9
$HANDSEED
  5
1B2
  9
$SURFTAB1
 70
6
  9
$SURFTAB2
 70
6
  9
$SURFTYPE
 70
6
  9
$SURFU
 70
6
  9
$SURFV
 70
6
  9
$UCSBASE
  2

  9
$UCSNAME
  2

  9
$UCSORG
 10
0.0
 20
0.0
 30
0.0
  9
$UCSXDIR
 10
1.0
 20
0.0
 30
0.0
  9
$UCSYDIR
 10
0.0
 20
1.0
 30
0.0
  9
$UCSORTHOREF
  2

  9
$UCSORTHOVIEW
 70
0
  9
$UCSORGTOP
 10
0.0
 20
0.0
 30
0.0
  9
$UCSORGBOTTOM
 10
0.0
 20
0.0
 30
0.0
  9
$UCSORGLEFT
 10
0.0
 20
0.0
 30
0.0
  9
$UCSORGRIGHT
 10
0.0
 20
0.0
 30
0.0
  9
$UCSORGFRONT
 10
0.0
 20
0.0
 30
0.0
  9
$UCSORGBACK
 10
0.0
 20
0.0
 30
0.0
  9
$PUCSBASE
  2

  9
$PUCSNAME
  2

  9
$PUCSORG
 10
0.0
 20
0.0
 30
0.0
  9
$PUCSXDIR
 10
1.0
 20
0.0
 30
0.0
  9
$PUCSYDIR
 10
0.0
 20
1.0
 30
0.0
  9
$PUCSORTHOREF
  2

  9
$PUCSORTHOVIEW
 70
0
  9
$PUCSORGTOP
 10
0.0
 20
0.0
 30
0.0
  9
$PUCSORGBOTTOM
 10
0.0
 20
0.0
 30
0.0
  9
$PUCSORGLEFT
 10
0.0
 20
0.0
 30
0.0
  9
$PUCSORGRIGHT
 10
0.0
 20
0.0
 30
0.0
  9
$PUCSORGFRONT
 10
0.0
 20
0.0
 30
0.0
  9
$PUCSORGBACK
 10
0.0
 20
0.0
 30
0.0
  9
$USERI1
 70
0
  9
$USERI2
 70
0
  9
$USERI3
 70
0
  9
$USERI4
 70
0
  9
$USERI5
 70
0
  9
$USERR1
 40
0.0
  9
$USERR2
 40
0.0
  9
$USERR3
 40
0.0
  9
$USERR4
 40
0.0
  9
$USERR5
 40
0.0
  9
$WORLDVIEW
 70
1
  9
$SHADEDGE
 70
3
  9
$SHADEDIF
 70
70
  9
$TILEMODE
 70
1
  9
$MAXACTVP
 70
64
  9
$PINSBASE
 10
0.0
 20
0.0
 30
0.0
  9
$PLIMCHECK
 70
0
  9
$PEXTMIN
 10
1e+20
 20
1e+20
 30
1e+20
  9
$PEXTMAX
 10
-1e+20
 20
-1e+20
 30
-1e+20
  9
$PLIMMIN
 10
0.0
 20
0.0
  9
$PLIMMAX
 10
420.0
 20
297.0
  9
$UNITMODE
 70
0
  9
$VISRETAIN
 70
1
  9
$PLINEGEN
 70
0
  9
$PSLTSCALE
 70
1
  9
$TREEDEPTH
 70
3020
  9
$CMLSTYLE
  2
Standard
  9
$CMLJUST
 70
0
  9
$CMLSCALE
 40
20.0
  9
$PROXYGRAPHICS
 70
1
  9
$MEASUREMENT
 70
1
  9
$CELWEIGHT
370
-1
  9
$ENDCAPS
280
0
  9
$JOINSTYLE
280
0
  9
$LWDISPLAY
290
0
  9
$INSUNITS
 70
6
  9
$HYPERLINKBASE
  1

  9
$STYLESHEET
  1

  9
$XEDIT
290
1
  9
$CEPSNTYPE
380
0
  9
$PSTYLEMODE
290
1
  9
$FINGERPRINTGUID
  2
{AB324B38-21A8-48AE-8E8F-E4ABA566E5BA}
  9
$VERSIONGUID
  2
{C7047E89-A84D-40E8-A2C3-CE12A98B894F}
  9
$EXTNAMES
290
1
  9
$PSVPSCALE
 40
0.0
  9
$OLESTARTUP
290
0
  9
$SORTENTS
280
127
  9
$INDEXCTL
280
0
  9
$HIDETEXT
280
1
  9
$XCLIPFRAME
290
0
  9
$HALOGAP
280
0
  9
$OBSCOLOR
 70
257
  9
$OBSLTYPE
280
0
  9
$INTERSECTIONDISPLAY
280
0
  9
$INTERSECTIONCOLOR
 70
257
  9
$DIMASSOC
280
2
  9
$PROJECTNAME
  1

  9
$CAMERADISPLAY
290
0
  9
$LENSLENGTH
 40
50.0
  9
$CAMERAHEIGHT
 40
0.0
  9
$STEPSPERSEC
 40
24.0
  9
$STEPSIZE
 40
100.0
  9
$3DDWFPREC
 40
2.0
  9
$PSOLWIDTH
 40
0.005
  9
$PSOLHEIGHT
 40
0.08
  9
$LOFTANG1
 40
1.570796326795
  9
$LOFTANG2
 40
1.570796326795
  9
$LOFTMAG1
 40
0.0
  9
$LOFTMAG2
 40
0.0
  9
$LOFTPARAM
 70
7
  9
$LOFTNORMALS
280
1
  9
$LATITUDE
 40
37.795
  9
$LONGITUDE
 40
-122.394
  9
$NORTHDIRECTION
 40
0.0
  9
$TIMEZONE
 70
-8000
  9
$LIGHTGLYPHDISPLAY
280
1
  9
$TILEMODELIGHTSYNCH
280
1
  9
$CMATERIAL
347
20
  9
$SOLIDHIST
280
0
  9
$SHOWHIST
280
1
  9
$DWFFRAME
280
2
  9
$DGNFRAME
280
2
  9
$REALWORLDSCALE
290
1
  9
$INTERFERECOLOR
 62
256
  9
$CSHADOW
280
0
  9
$SHADOWPLANELOCATION
 40
0.0
  0
ENDSEC
  0
SECTION
  2
CLASSES
  0
CLASS
  1
ACDBDICTIONARYWDFLT
  2
AcDbDictionaryWithDefault
  3
ObjectDBX Classes
 90
0
 91
0
280
0
281
0
  0
CLASS
  1
SUN
  2
AcDbSun
  3
SCENEOE
 90
1153
 91
0
280
0
281
0
  0
CLASS
  1
VISUALSTYLE
  2
AcDbVisualStyle
  3
ObjectDBX Classes
 90
4095
 91
0
280
0
281
0
  0
CLASS
  1
MATERIAL
  2
AcDbMaterial
  3
ObjectDBX Classes
 90
1153
 91
0
280
0
281
0
  0
CLASS
  1
SCALE
  2
AcDbScale
  3
ObjectDBX Classes
 90
1153
 91
0
280
0
281
0
  0
CLASS
  1
TABLESTYLE
  2
AcDbTableStyle
  3
ObjectDBX Classes
 90
4095
 91
0
280
0
281
0
  0
CLASS
  1
MLEADERSTYLE
  2
AcDbMLeaderStyle
  3
ACDB_MLEADERSTYLE_CLASS
 90
4095
 91
0
280
0
281
0
  0
CLASS
  1
DICTIONARYVAR
  2
AcDbDictionaryVar
  3
ObjectDBX Classes
 90
0
 91
0
280
0
281
0
  0
CLASS
  1
CELLSTYLEMAP
  2
AcDbCellStyleMap
  3
ObjectDBX Classes
 90
1152
 91
0
280
0
281
0
  0
CLASS
  1
MENTALRAYRENDERSETTINGS
  2
AcDbMentalRayRenderSettings
  3
SCENEOE
 90
1024
 91
0
280
0
281
0
  0
CLASS
  1
ACDBDETAILVIEWSTYLE
  2
AcDbDetailViewStyle
  3
ObjectDBX Classes
 90
1025
 91
0
280
0
281
0
  0
CLASS
  1
ACDBSECTIONVIEWSTYLE
  2
AcDbSectionViewStyle
  3
ObjectDBX Classes
 90
1025
 91
0
280
0
281
0
  0
CLASS
  1
RASTERVARIABLES
  2
AcDbRasterVariables
  3
ISM
 90
0
 91
0
280
0
281
0
  0
CLASS
  1
ACDBPLACEHOLDER
  2
AcDbPlaceHolder
  3
ObjectDBX Classes
 90
0
 91
0
280
0
281
0
  0
CLASS
  1
LAYOUT
  2
AcDbLayout
  3
ObjectDBX Classes
 90
0
 91
0
280
0
281
0
  0
ENDSEC
  0
SECTION
  2
TABLES
  0
TABLE
  2
VPORT
  5
8
330
0
100
AcDbSymbolTable
 70
1
  0
VPORT
  5
23
330
8
100
AcDbSymbolTableRecord
100
AcDbViewportTableRecord
  2
*Active
 70
0
 10
0.0
 20
0.0
 11
1.0
 21
1.0
 12
0.0
 22
0.0
 13
0.0
 23
0.0
 14
0.5
 24
0.5
 15
0.5
 25
0.5
 16
0.0
 26
0.0
 36
1.0
 17
0.0
 27
0.0
 37
0.0
 40
1000.0
 41
1.34
 42
50.0
 43
0.0
 44
0.0
 50
0.0
 51
0.0
 71
0
 72
1000
 73
1
 74
3
 75
0
 76
0
 77
0
 78
0
281
0
 65
0
146
0.0
  0
ENDTAB
  0
TABLE
  2
LTYPE
  5
2
330
0
100
AcDbSymbolTable
 70
3
  0
LTYPE
  5
24
330
2
100
AcDbSymbolTableRecord
100
AcDbLinetypeTableRecord
  2
ByBlock
 70
0
  3

 72
65
 73
0
 40
0.0
  0
LTYPE
  5
25
330
2
100
AcDbSymbolTableRecord
100
AcDbLinetypeTableRecord
  2
ByLayer
 70
0
  3

 72
65
 73
0
 40
0.0
  0
LTYPE
  5
26
330
2
100
AcDbSymbolTableRecord
100
AcDbLinetypeTableRecord
  2
Continuous
 70
0
  3

 72
65
 73
0
 40
0.0
  0
ENDTAB
  0
TABLE
  2
LAYER
  5
1
330
0
100
AcDbSymbolTable
 70
2
  0
LAYER
  5
27
330
1
100
AcDbSymbolTableRecord
100
AcDbLayerTableRecord
  2
0
 70
0
 62
7
  6
Continuous
370
-3
390
13
347
21
  0
LAYER
  5
28
330
1
100
AcDbSymbolTableRecord
100
AcDbLayerTableRecord
  2
Defpoints
 70
0
 62
7
  6
Continuous
290
0
370
-3
390
13
347
21
  0
ENDTAB
  0
TABLE
  2
STYLE
  5
5
330
0
100
AcDbSymbolTable
 70
1
  0
STYLE
  5
29
330
5
100
AcDbSymbolTableRecord
100
AcDbTextStyleTableRecord
  2
Standard
 70
0
 40
0.0
 41
1.0
 50
0.0
 71
0
 42
2.5
  3
txt
  4

  0
ENDTAB
  0
TABLE
  2
VIEW
  5
7
330
0
100
AcDbSymbolTable
 70
0
  0
ENDTAB
  0
TABLE
  2
UCS
  5
6
330
0
100
AcDbSymbolTable
 70
0
  0
ENDTAB
  0
TABLE
  2
APPID
  5
3
330
0
100
AcDbSymbolTable
 70
3
  0
APPID
  5
2A
330
3
100
AcDbSymbolTableRecord
100
AcDbRegAppTableRecord
  2
ACAD
 70
0
  0
APPID
  5
1AF
330
3
100
AcDbSymbolTableRecord
100
AcDbRegAppTableRecord
  2
HATCHBACKGROUNDCOLOR
 70
0
  0
APPID
  5
1B0
330
3
100
AcDbSymbolTableRecord
100
AcDbRegAppTableRecord
  2
EZDXF
 70
0
  0
ENDTAB
  0
TABLE
  2
DIMSTYLE
  5
4
330
0
100
AcDbSymbolTable
 70
1
100
AcDbDimStyleTable
  0
DIMSTYLE
105
2B
330
4
100
AcDbSymbolTableRecord
100
AcDbDimStyleTableRecord
  2
Standard
 70
0
 40
1.0
 41
2.5
 42
0.625
 43
3.75
 44
1.25
 45
0.0
 46
0.0
 47
0.0
 48
0.0
 49
2.5
140
2.5
141
2.5
142
0.0
143
0.03937007874
144
1.0
145
0.0
146
1.0
147
0.625
148
0.0
 69
0
 70
0
 71
0
 72
0
 73
0
 74
0
 75
0
 76
0
 77
1
 78
8
 79
3
170
0
171
3
172
1
173
0
174
0
175
0
176
0
177
0
178
0
179
2
271
2
272
2
273
2
274
3
275
0
276
0
277
2
278
44
279
0
280
0
281
0
282
0
283
0
284
8
285
0
286
0
288
0
289
3
290
0
371
-2
372
-2
  0
ENDTAB
  0
TABLE
  2
BLOCK_RECORD
  5
9
330
0
100
AcDbSymbolTable
 70
98
  0
BLOCK_RECORD
  5
17
330
9
100
AcDbSymbolTableRecord
100
AcDbBlockTableRecord
  2
*Model_Space
340
1A
 70
0
280
1
281
0
  0
BLOCK_RECORD
  5
1B
330
9
100
AcDbSymbolTableRecord
100
AcDbBlockTableRecord
  2
*Paper_Space
340
1E
 70
0
280
1
281
0
  0
BLOCK_RECORD
  5
2F
330
9
100
AcDbSymbolTableRecord
100
AcDbBlockTableRecord
  2
EE12_BEG_04-WW12_END_04-0
340
0
 70
0
280
1
281
0
  0
BLOCK_RECORD
  5
33
330
9
100
AcDbSymbolTableRecord
100
AcDbBlockTableRecord
  2
EE12_BEG_05-WW12_END_05-0
340
0
 70
0
280
1
281
0
  0
BLOCK_RECORD
  5
37
330
9
100
AcDbSymbolTableRecord
100
AcDbBlockTableRecord
  2
EE12_BEG_06-WW12_END_06-0
340
0
 70
0
280
1
281
0
  0
BLOCK_RECORD
  5
3B
330
9
100
AcDbSymbolTableRecord
100
AcDbBlockTableRecord
  2
EE12_BEG_07-WW12_END_07-0
340
0
 70
0
280
1
281
0
  0
BLOCK_RECORD
  5
3F
330
9
100
AcDbSymbolTableRecord
100
AcDbBlockTableRecord
  2
EE12_BEG_04-WW12_END_04-1
340
0
 70
0
280
1
281
0
  0
BLOCK_RECORD
  5
43
330
9
100
AcDbSymbolTableRecord
100
AcDbBlockTableRecord
  2
EE12_BEG_05-WW12_END_05-1
340
0
 70
0
280
1
281
0
  0
BLOCK_RECORD
  5
47
330
9
100
AcDbSymbolTableRecord
100
AcDbBlockTableRecord
  2
EE12_BEG_06-WW12_END_06-1
340
0
 70
0
280
1
281
0
  0
BLOCK_RECORD
  5
4B
330
9
100
AcDbSymbolTableRecord
100
AcDbBlockTableRecord
  2
EE12_BEG_07-WW12_END_07-1
340
0
 70
0
280
1
281
0
  0
BLOCK_RECORD
  5
4F
330
9
100
AcDbSymbolTableRecord
100
AcDbBlockTableRecord
  2
EE12_BEG_04-WW12_END_04-2
340
0
 70
0
280
1
281
0
  0
BLOCK_RECORD
  5
53
330
9
100
AcDbSymbolTableRecord
100
AcDbBlockTableRecord
  2
EE12_BEG_05-WW12_END_05-2
340
0
 70
0
280
1
281
0
  0
BLOCK_RECORD
  5
57
330
9
100
AcDbSymbolTableRecord
100
AcDbBlockTableRecord
  2
EE12_BEG_06-WW12_END_06-2
340
0
 70
0
280
1
281
0
  0
BLOCK_RECORD
  5
5B
330
9
100
AcDbSymbolTableRecord
100
AcDbBlockTableRecord
  2
EE12_BEG_07-WW12_END_07-2
340
0
 70
0
280
1
281
0
  0
BLOCK_RECORD
  5
5F
330
9
100
AcDbSymbolTableRecord
100
AcDbBlockTableRecord
  2
EE12_BEG_04-WW12_END_04-3
340
0
 70
0
280
1
281
0
  0
BLOCK_RECORD
  5
63
330
9
100
AcDbSymbolTableRecord
100
AcDbBlockTableRecord
  2
EE12_BEG_05-WW12_END_05-3
340
0
 70
0
280
1
281
0
  0
BLOCK_RECORD
  5
67
330
9
100
AcDbSymbolTableRecord
100
AcDbBlockTableRecord
  2
EE12_BEG_06-WW12_END_06-3
340
0
 70
0
280
1
281
0
  0
BLOCK_RECORD
  5
6B
330
9
100
AcDbSymbolTableRecord
100
AcDbBlockTableRecord
  2
EE12_BEG_07-WW12_END_07-3
340
0
 70
0
280
1
281
0
  0
BLOCK_RECORD
  5
6F
330
9
100
AcDbSymbolTableRecord
100
AcDbBlockTableRecord
  2
EE12_BEG_04-WW12_END_04-4
340
0
 70
0
280
1
281
0
  0
BLOCK_RECORD
  5
73
330
9
100
AcDbSymbolTableRecord
100
AcDbBlockTableRecord
  2
EE12_BEG_05-WW12_END_05-4
340
0
 70
0
280
1
281
0
  0
BLOCK_RECORD
  5
77
330
9
100
AcDbSymbolTableRecord
100
AcDbBlockTableRecord
  2
EE12_BEG_06-WW12_END_06-4
340
0
 70
0
280
1
281
0
  0
BLOCK_RECORD
  5
7B
330
9
100
AcDbSymbolTableRecord
100
AcDbBlockTableRecord
  2
EE12_BEG_07-WW12_END_07-4
340
0
 70
0
280
1
281
0
  0
BLOCK_RECORD
  5
7F
330
9
100
AcDbSymbolTableRecord
100
AcDbBlockTableRecord
  2
EE12_BEG_04-WW12_END_04-5
340
0
 70
0
280
1
281
0
  0
BLOCK_RECORD
  5
83
330
9
100
AcDbSymbolTableRecord
100
AcDbBlockTableRecord
  2
EE12_BEG_05-WW12_END_05-5
340
0
 70
0
280
1
281
0
  0
BLOCK_RECORD
  5
87
330
9
100
AcDbSymbolTableRecord
100
AcDbBlockTableRecord
  2
EE12_BEG_06-WW12_END_06-5
340
0
 70
0
280
1
281
0
  0
BLOCK_RECORD
  5
8B
330
9
100
AcDbSymbolTableRecord
100
AcDbBlockTableRecord
  2
EE12_BEG_07-WW12_END_07-5
340
0
 70
0
280
1
281
0
  0
BLOCK_RECORD
  5
8F
330
9
100
AcDbSymbolTableRecord
100
AcDbBlockTableRecord
  2
EE12_BEG_04-WW12_END_04-6
340
0
 70
0
280
1
281
0
  0
BLOCK_RECORD
  5
93
330
9
100
AcDbSymbolTableRecord
100
AcDbBlockTableRecord
  2
EE12_BEG_05-WW12_END_05-6
340
0
 70
0
280
1
281
0
  0
BLOCK_RECORD
  5
97
330
9
100
AcDbSymbolTableRecord
100
AcDbBlockTableRecord
  2
EE12_BEG_06-WW12_END_06-6
340
0
 70
0
280
1
281
0
  0
BLOCK_RECORD
  5
9B
330
9
100
AcDbSymbolTableRecord
100
AcDbBlockTableRecord
  2
EE12_BEG_07-WW12_END_07-6
340
0
 70
0
280
1
281
0
  0
BLOCK_RECORD
  5
9F
330
9
100
AcDbSymbolTableRecord
100
AcDbBlockTableRecord
  2
EE12_BEG_04-WW12_END_04-7
340
0
 70
0
280
1
281
0
  0
BLOCK_RECORD
  5
A3
330
9
100
AcDbSymbolTableRecord
100
AcDbBlockTableRecord
  2
EE12_BEG_05-WW12_END_05-7
340
0
 70
0
280
1
281
0
  0
BLOCK_RECORD
  5
A7
330
9
100
AcDbSymbolTableRecord
100
AcDbBlockTableRecord
  2
EE12_BEG_06-WW12_END_06-7
340
0
 70
0
280
1
281
0
  0
BLOCK_RECORD
  5
AB
330
9
100
AcDbSymbolTableRecord
100
AcDbBlockTableRecord
  2
EE12_BEG_07-WW12_END_07-7
340
0
 70
0
280
1
281
0
  0
BLOCK_RECORD
  5
AF
330
9
100
AcDbSymbolTableRecord
100
AcDbBlockTableRecord
  2
EE12_BEG_04-WW12_END_04-8
340
0
 70
0
280
1
281
0
  0
BLOCK_RECORD
  5
B3
330
9
100
AcDbSymbolTableRecord
100
AcDbBlockTableRecord
  2
EE12_BEG_05-WW12_END_05-8
340
0
 70
0
280
1
281
0
  0
BLOCK_RECORD
  5
B7
330
9
100
AcDbSymbolTableRecord
100
AcDbBlockTableRecord
  2
EE12_BEG_06-WW12_END_06-8
340
0
 70
0
280
1
281
0
  0
BLOCK_RECORD
  5
BB
330
9
100
AcDbSymbolTableRecord
100
AcDbBlockTableRecord
  2
EE12_BEG_07-WW12_END_07-8
340
0
 70
0
280
1
281
0
  0
BLOCK_RECORD
  5
BF
330
9
100
AcDbSymbolTableRecord
100
AcDbBlockTableRecord
  2
EE12_BEG_04-WW12_END_04-9
340
0
 70
0
280
1
281
0
  0
BLOCK_RECORD
  5
C3
330
9
100
AcDbSymbolTableRecord
100
AcDbBlockTableRecord
  2
EE12_BEG_05-WW12_END_05-9
340
0
 70
0
280
1
281
0
  0
BLOCK_RECORD
  5
C7
330
9
100
AcDbSymbolTableRecord
100
AcDbBlockTableRecord
  2
EE12_BEG_06-WW12_END_06-9
340
0
 70
0
280
1
281
0
  0
BLOCK_RECORD
  5
CB
330
9
100
AcDbSymbolTableRecord
100
AcDbBlockTableRecord
  2
EE12_BEG_07-WW12_END_07-9
340
0
 70
0
280
1
281
0
  0
BLOCK_RECORD
  5
CF
330
9
100
AcDbSymbolTableRecord
100
AcDbBlockTableRecord
  2
EE12_BEG_04-WW12_END_04-10
340
0
 70
0
280
1
281
0
  0
BLOCK_RECORD
  5
D3
330
9
100
AcDbSymbolTableRecord
100
AcDbBlockTableRecord
  2
EE12_BEG_05-WW12_END_05-10
340
0
 70
0
280
1
281
0
  0
BLOCK_RECORD
  5
D7
330
9
100
AcDbSymbolTableRecord
100
AcDbBlockTableRecord
  2
EE12_BEG_06-WW12_END_06-10
340
0
 70
0
280
1
281
0
  0
BLOCK_RECORD
  5
DB
330
9
100
AcDbSymbolTableRecord
100
AcDbBlockTableRecord
  2
EE12_BEG_07-WW12_END_07-10
340
0
 70
0
280
1
281
0
  0
BLOCK_RECORD
  5
DF
330
9
100
AcDbSymbolTableRecord
100
AcDbBlockTableRecord
  2
EE12_BEG_04-WW12_END_04-11
340
0
 70
0
280
1
281
0
  0
BLOCK_RECORD
  5
E3
330
9
100
AcDbSymbolTableRecord
100
AcDbBlockTableRecord
  2
EE12_BEG_05-WW12_END_05-11
340
0
 70
0
280
1
281
0
  0
BLOCK_RECORD
  5
E7
330
9
100
AcDbSymbolTableRecord
100
AcDbBlockTableRecord
  2
EE12_BEG_06-WW12_END_06-11
340
0
 70
0
280
1
281
0
  0
BLOCK_RECORD
  5
EB
330
9
100
AcDbSymbolTableRecord
100
AcDbBlockTableRecord
  2
EE12_BEG_07-WW12_END_07-11
340
0
 70
0
280
1
281
0
  0
BLOCK_RECORD
  5
EF
330
9
100
AcDbSymbolTableRecord
100
AcDbBlockTableRecord
  2
WW12_BEG_04-EE12_END_04-0
340
0
 70
0
280
1
281
0
  0
BLOCK_RECORD
  5
F3
330
9
100
AcDbSymbolTableRecord
100
AcDbBlockTableRecord
  2
WW12_BEG_05-EE12_END_05-0
340
0
 70
0
280
1
281
0
  0
BLOCK_RECORD
  5
F7
330
9
100
AcDbSymbolTableRecord
100
AcDbBlockTableRecord
  2
WW12_BEG_06-EE12_END_06-0
340
0
 70
0
280
1
281
0
  0
BLOCK_RECORD
  5
FB
330
9
100
AcDbSymbolTableRecord
100
AcDbBlockTableRecord
  2
WW12_BEG_07-EE12_END_07-0
340
0
 70
0
280
1
281
0
  0
BLOCK_RECORD
  5
FF
330
9
100
AcDbSymbolTableRecord
100
AcDbBlockTableRecord
  2
WW12_BEG_04-EE12_END_04-1
340
0
 70
0
280
1
281
0
  0
BLOCK_RECORD
  5
103
330
9
100
AcDbSymbolTableRecord
100
AcDbBlockTableRecord
  2
WW12_BEG_05-EE12_END_05-1
340
0
 70
0
280
1
281
0
  0
BLOCK_RECORD
  5
107
330
9
100
AcDbSymbolTableRecord
100
AcDbBlockTableRecord
  2
WW12_BEG_06-EE12_END_06-1
340
0
 70
0
280
1
281
0
  0
BLOCK_RECORD
  5
10B
330
9
100
AcDbSymbolTableRecord
100
AcDbBlockTableRecord
  2
WW12_BEG_07-EE12_END_07-1
340
0
 70
0
280
1
281
0
  0
BLOCK_RECORD
  5
10F
330
9
100
AcDbSymbolTableRecord
100
AcDbBlockTableRecord
  2
WW12_BEG_04-EE12_END_04-2
340
0
 70
0
280
1
281
0
  0
BLOCK_RECORD
  5
113
330
9
100
AcDbSymbolTableRecord
100
AcDbBlockTableRecord
  2
WW12_BEG_05-EE12_END_05-2
340
0
 70
0
280
1
281
0
  0
BLOCK_RECORD
  5
117
330
9
100
AcDbSymbolTableRecord
100
AcDbBlockTableRecord
  2
WW12_BEG_06-EE12_END_06-2
340
0
 70
0
280
1
281
0
  0
BLOCK_RECORD
  5
11B
330
9
100
AcDbSymbolTableRecord
100
AcDbBlockTableRecord
  2
WW12_BEG_07-EE12_END_07-2
340
0
 70
0
280
1
281
0
  0
BLOCK_RECORD
  5
11F
330
9
100
AcDbSymbolTableRecord
100
AcDbBlockTableRecord
  2
WW12_BEG_04-EE12_END_04-3
340
0
 70
0
280
1
281
0
  0
BLOCK_RECORD
  5
123
330
9
100
AcDbSymbolTableRecord
100
AcDbBlockTableRecord
  2
WW12_BEG_05-EE12_END_05-3
340
0
 70
0
280
1
281
0
  0
BLOCK_RECORD
  5
127
330
9
100
AcDbSymbolTableRecord
100
AcDbBlockTableRecord
  2
WW12_BEG_06-EE12_END_06-3
340
0
 70
0
280
1
281
0
  0
BLOCK_RECORD
  5
12B
330
9
100
AcDbSymbolTableRecord
100
AcDbBlockTableRecord
  2
WW12_BEG_07-EE12_END_07-3
340
0
 70
0
280
1
281
0
  0
BLOCK_RECORD
  5
12F
330
9
100
AcDbSymbolTableRecord
100
AcDbBlockTableRecord
  2
WW12_BEG_04-EE12_END_04-4
340
0
 70
0
280
1
281
0
  0
BLOCK_RECORD
  5
133
330
9
100
AcDbSymbolTableRecord
100
AcDbBlockTableRecord
  2
WW12_BEG_05-EE12_END_05-4
340
0
 70
0
280
1
281
0
  0
BLOCK_RECORD
  5
137
330
9
100
AcDbSymbolTableRecord
100
AcDbBlockTableRecord
  2
WW12_BEG_06-EE12_END_06-4
340
0
 70
0
280
1
281
0
  0
BLOCK_RECORD
  5
13B
330
9
100
AcDbSymbolTableRecord
100
AcDbBlockTableRecord
  2
WW12_BEG_07-EE12_END_07-4
340
0
 70
0
280
1
281
0
  0
BLOCK_RECORD
  5
13F
330
9
100
AcDbSymbolTableRecord
100
AcDbBlockTableRecord
  2
WW12_BEG_04-EE12_END_04-5
340
0
 70
0
280
1
281
0
  0
BLOCK_RECORD
  5
143
330
9
100
AcDbSymbolTableRecord
100
AcDbBlockTableRecord
  2
WW12_BEG_05-EE12_END_05-5
340
0
 70
0
280
1
281
0
  0
BLOCK_RECORD
  5
147
330
9
100
AcDbSymbolTableRecord
100
AcDbBlockTableRecord
  2
WW12_BEG_06-EE12_END_06-5
340
0
 70
0
280
1
281
0
  0
BLOCK_RECORD
  5
14B
330
9
100
AcDbSymbolTableRecord
100
AcDbBlockTableRecord
  2
WW12_BEG_07-EE12_END_07-5
340
0
 70
0
280
1
281
0
  0
BLOCK_RECORD
  5
14F
330
9
100
AcDbSymbolTableRecord
100
AcDbBlockTableRecord
  2
WW12_BEG_04-EE12_END_04-6
340
0
 70
0
280
1
281
0
  0
BLOCK_RECORD
  5
153
330
9
100
AcDbSymbolTableRecord
100
AcDbBlockTableRecord
  2
WW12_BEG_05-EE12_END_05-6
340
0
 70
0
280
1
281
0
  0
BLOCK_RECORD
  5
157
330
9
100
AcDbSymbolTableRecord
100
AcDbBlockTableRecord
  2
WW12_BEG_06-EE12_END_06-6
340
0
 70
0
280
1
281
0
  0
BLOCK_RECORD
  5
15B
330
9
100
AcDbSymbolTableRecord
100
AcDbBlockTableRecord
  2
WW12_BEG_07-EE12_END_07-6
340
0
 70
0
280
1
281
0
  0
BLOCK_RECORD
  5
15F
330
9
100
AcDbSymbolTableRecord
100
AcDbBlockTableRecord
  2
WW12_BEG_04-EE12_END_04-7
340
0
 70
0
280
1
281
0
  0
BLOCK_RECORD
  5
163
330
9
100
AcDbSymbolTableRecord
100
AcDbBlockTableRecord
  2
WW12_BEG_05-EE12_END_05-7
340
0
 70
0
280
1
281
0
  0
BLOCK_RECORD
  5
167
330
9
100
AcDbSymbolTableRecord
100
AcDbBlockTableRecord
  2
WW12_BEG_06-EE12_END_06-7
340
0
 70
0
280
1
281
0
  0
BLOCK_RECORD
  5
16B
330
9
100
AcDbSymbolTableRecord
100
AcDbBlockTableRecord
  2
WW12_BEG_07-EE12_END_07-7
340
0
 70
0
280
1
281
0
  0
BLOCK_RECORD
  5
16F
330
9
100
AcDbSymbolTableRecord
100
AcDbBlockTableRecord
  2
WW12_BEG_04-EE12_END_04-8
340
0
 70
0
280
1
281
0
  0
BLOCK_RECORD
  5
173
330
9
100
AcDbSymbolTableRecord
100
AcDbBlockTableRecord
  2
WW12_BEG_05-EE12_END_05-8
340
0
 70
0
280
1
281
0
  0
BLOCK_RECORD
  5
177
330
9
100
AcDbSymbolTableRecord
100
AcDbBlockTableRecord
  2
WW12_BEG_06-EE12_END_06-8
340
0
 70
0
280
1
281
0
  0
BLOCK_RECORD
  5
17B
330
9
100
AcDbSymbolTableRecord
100
AcDbBlockTableRecord
  2
WW12_BEG_07-EE12_END_07-8
340
0
 70
0
280
1
281
0
  0
BLOCK_RECORD
  5
17F
330
9
100
AcDbSymbolTableRecord
100
AcDbBlockTableRecord
  2
WW12_BEG_04-EE12_END_04-9
340
0
 70
0
280
1
281
0
  0
BLOCK_RECORD
  5
183
330
9
100
AcDbSymbolTableRecord
100
AcDbBlockTableRecord
  2
WW12_BEG_05-EE12_END_05-9
340
0
 70
0
280
1
281
0
  0
BLOCK_RECORD
  5
187
330
9
100
AcDbSymbolTableRecord
100
AcDbBlockTableRecord
  2
WW12_BEG_06-EE12_END_06-9
340
0
 70
0
280
1
281
0
  0
BLOCK_RECORD
  5
18B
330
9
100
AcDbSymbolTableRecord
100
AcDbBlockTableRecord
  2
WW12_BEG_07-EE12_END_07-9
340
0
 70
0
280
1
281
0
  0
BLOCK_RECORD
  5
18F
330
9
100
AcDbSymbolTableRecord
100
AcDbBlockTableRecord
  2
WW12_BEG_04-EE12_END_04-10
340
0
 70
0
280
1
281
0
  0
BLOCK_RECORD
  5
193
330
9
100
AcDbSymbolTableRecord
100
AcDbBlockTableRecord
  2
WW12_BEG_05-EE12_END_05-10
340
0
 70
0
280
1
281
0
  0
BLOCK_RECORD
  5
197
330
9
100
AcDbSymbolTableRecord
100
AcDbBlockTableRecord
  2
WW12_BEG_06-EE12_END_06-10
340
0
 70
0
280
1
281
0
  0
BLOCK_RECORD
  5
19B
330
9
100
AcDbSymbolTableRecord
100
AcDbBlockTableRecord
  2
WW12_BEG_07-EE12_END_07-10
340
0
 70
0
280
1
281
0
  0
BLOCK_RECORD
  5
19F
330
9
100
AcDbSymbolTableRecord
100
AcDbBlockTableRecord
  2
WW12_BEG_04-EE12_END_04-11
340
0
 70
0
280
1
281
0
  0
BLOCK_RECORD
  5
1A3
330
9
100
AcDbSymbolTableRecord
100
AcDbBlockTableRecord
  2
WW12_BEG_05-EE12_END_05-11
340
0
 70
0
280
1
281
0
  0
BLOCK_RECORD
  5
1A7
330
9
100
AcDbSymbolTableRecord
100
AcDbBlockTableRecord
  2
WW12_BEG_06-EE12_END_06-11
340
0
 70
0
280
1
281
0
  0
BLOCK_RECORD
  5
1AB
330
9
100
AcDbSymbolTableRecord
100
AcDbBlockTableRecord
  2
WW12_BEG_07-EE12_END_07-11
340
0
 70
0
280
1
281
0
  0
ENDTAB
  0
ENDSEC
  0
SECTION
  2
BLOCKS
  0
BLOCK
  5
18
330
17
100
AcDbEntity
  8
0
100
AcDbBlockBegin
  2
*Model_Space
 70
0
 10
0.0
 20
0.0
 30
0.0
  3
*Model_Space
  1

  0
ENDBLK
  5
19
330
17
100
AcDbEntity
  8
0
100
AcDbBlockEnd
  0
BLOCK
  5
1C
330
1B
100
AcDbEntity
  8
0
100
AcDbBlockBegin
  2
*Paper_Space
 70
0
 10
0.0
 20
0.0
 30
0.0
  3
*Paper_Space
  1

  0
ENDBLK
  5
1D
330
1B
100
AcDbEntity
  8
0
100
AcDbBlockEnd
  0
BLOCK
  5
30
330
2F
100
AcDbEntity
  8
0
100
AcDbBlockBegin
  2
EE12_BEG_04-WW12_END_04-0
 70
0
 10
0.0
 20
0.0
 30
0.0
  3
EE12_BEG_04-WW12_END_04-0
  1

  0
LWPOLYLINE
  5
32
330
2F
100
AcDbEntity
  8
0
100
AcDbPolyline
 90
28
 70
0
 10
0.0
 20
0.0
 10
0.0
 20
-188.0
 10
570.0
 20
-188.0
 10
570.0
 20
2188.0
 10
-818.0
 20
2188.0
 10
-818.0
 20
2192.0
 10
-3802.0
 20
2192.0
 10
-3802.0
 20
2196.0
 10
-12786.0
 20
2196.0
 10
-12786.0
 20
2200.0
 10
-15770.0
 20
2200.0
 10
-15770.0
 20
2204.0
 10
-24754.0
 20
2204.0
 10
-24754.0
 20
2208.0
 10
-27738.0
 20
2208.0
 10
-27738.0
 20
2212.0
 10
-36722.0
 20
2212.0
 10
-36722.0
 20
2216.0
 10
-39706.0
 20
2216.0
 10
-39706.0
 20
2220.0
 10
-48690.0
 20
2220.0
 10
-48690.0
 20
2224.0
 10
-51674.0
 20
2224.0
 10
-51674.0
 20
2228.0
 10
-60658.0
 20
2228.0
 10
-60658.0
 20
2232.0
 10
-63000.0
 20
2232.0
 10
-63000.0
 20
2000.0
  0
ENDBLK
  5
31
330
2F
100
AcDbEntity
  8
0
100
AcDbBlockEnd
  0
BLOCK
  5
34
330
33
100
AcDbEntity
  8
0
100
AcDbBlockBegin
  2
EE12_BEG_05-WW12_END_05-0
 70
0
 10
0.0
 20
0.0
 30
0.0
  3
EE12_BEG_05-WW12_END_05-0
  1

  0
LWPOLYLINE
  5
36
330
33
100
AcDbEntity
  8
0
100
AcDbPolyline
 90
28
 70
0
 10
0.0
 20
0.0
 10
0.0
 20
-189.0
 10
575.0
 20
-189.0
 10
575.0
 20
2189.0
 10
-810.0
 20
2189.0
 10
-810.0
 20
2193.0
 10
-3794.0
 20
2193.0
 10
-3794.0
 20
2197.0
 10
-12778.0
 20
2197.0
 10
-12778.0
 20
2201.0
 10
-15762.0
 20
2201.0
 10
-15762.0
 20
2205.0
 10
-24746.0
 20
2205.0
 10
-24746.0
 20
2209.0
 10
-27730.0
 20
2209.0
 10
-27730.0
 20
2213.0
 10
-36714.0
 20
2213.0
 10
-36714.0
 20
2217.0
 10
-39698.0
 20
2217.0
 10
-39698.0
 20
2221.0
 10
-48682.0
 20
2221.0
 10
-48682.0
 20
2225.0
 10
-51666.0
 20
2225.0
 10
-51666.0
 20
2229.0
 10
-60650.0
 20
2229.0
 10
-60650.0
 20
2233.0
 10
-63000.0
 20
2233.0
 10
-63000.0
 20
2000.0
  0
ENDBLK
  5
35
330
33
100
AcDbEntity
  8
0
100
AcDbBlockEnd
  0
BLOCK
  5
38
330
37
100
AcDbEntity
  8
0
100
AcDbBlockBegin
  2
EE12_BEG_06-WW12_END_06-0
 70
0
 10
0.0
 20
0.0
 30
0.0
  3
EE12_BEG_06-WW12_END_06-0
  1

  0
LWPOLYLINE
  5
3A
330
37
100
AcDbEntity
  8
0
100
AcDbPolyline
 90
28
 70
0
 10
0.0
 20
0.0
 10
0.0
 20
-190.0
 10
580.0
 20
-190.0
 10
580.0
 20
2190.0
 10
-802.0
 20
2190.0
 10
-802.0
 20
2194.0
 10
-3786.0
 20
2194.0
 10
-3786.0
 20
2198.0
 10
-12770.0
 20
2198.0
 10
-12770.0
 20
2202.0
 10
-15754.0
 20
2202.0
 10
-15754.0
 20
2206.0
 10
-24738.0
 20
2206.0
 10
-24738.0
 20
2210.0
 10
-27722.0
 20
2210.0
 10
-27722.0
 20
2214.0
 10
-36706.0
 20
2214.0
 10
-36706.0
 20
2218.0
 10
-39690.0
 20
2218.0
 10
-39690.0
 20
2222.0
 10
-48674.0
 20
2222.0
 10
-48674.0
 20
2226.0
 10
-51658.0
 20
2226.0
 10
-51658.0
 20
2230.0
 10
-60642.0
 20
2230.0
 10
-60642.0
 20
2234.0
 10
-63000.0
 20
2234.0
 10
-63000.0
 20
2000.0
  0
ENDBLK
  5
39
330
37
100
AcDbEntity
  8
0
100
AcDbBlockEnd
  0
BLOCK
  5
3C
330
3B
100
AcDbEntity
  8
0
100
AcDbBlockBegin
  2
EE12_BEG_07-WW12_END_07-0
 70
0
 10
0.0
 20
0.0
 30
0.0
  3
EE12_BEG_07-WW12_END_07-0
  1

  0
LWPOLYLINE
  5
3E
330
3B
100
AcDbEntity
  8
0
100
AcDbPolyline
 90
28
 70
0
 10
0.0
 20
0.0
 10
0.0
 20
-191.0
 10
585.0
 20
-191.0
 10
585.0
 20
2191.0
 10
-794.0
 20
2191.0
 10
-794.0
 20
2195.0
 10
-3778.0
 20
2195.0
 10
-3778.0
 20
2199.0
 10
-12762.0
 20
2199.0
 10
-12762.0
 20
2203.0
 10
-15746.0
 20
2203.0
 10
-15746.0
 20
2207.0
 10
-24730.0
 20
2207.0
 10
-24730.0
 20
2211.0
 10
-27714.0
 20
2211.0
 10
-27714.0
 20
2215.0
 10
-36698.0
 20
2215.0
 10
-36698.0
 20
2219.0
 10
-39682.0
 20
2219.0
 10
-39682.0
 20
2223.0
 10
-48666.0
 20
2223.0
 10
-48666.0
 20
2227.0
 10
-51650.0
 20
2227.0
 10
-51650.0
 20
2231.0
 10
-60634.0
 20
2231.0
 10
-60634.0
 20
2235.0
 10
-63000.0
 20
2235.0
 10
-63000.0
 20
2000.0
  0
ENDBLK
  5
3D
330
3B
100
AcDbEntity
  8
0
100
AcDbBlockEnd
  0
BLOCK
  5
40
330
3F
100
AcDbEntity
  8
0
100
AcDbBlockBegin
  2
EE12_BEG_04-WW12_END_04-1
 70
0
 10
0.0
 20
0.0
 30
0.0
  3
EE12_BEG_04-WW12_END_04-1
  1

  0
LWPOLYLINE
  5
42
330
3F
100
AcDbEntity
  8
0
100
AcDbPolyline
 90
28
 70
0
 10
0.0
 20
0.0
 10
0.0
 20
-188.0
 10
2182.0
 20
-188.0
 10
2182.0
 20
-192.0
 10
3574.0
 20
-192.0
 10
3574.0
 20
2192.0
 10
2198.0
 20
2192.0
 10
2198.0
 20
2196.0
 10
-786.0
 20
2196.0
 10
-786.0
 20
2200.0
 10
-9770.0
 20
2200.0
 10
-9770.0
 20
2204.0
 10
-12754.0
 20
2204.0
 10
-12754.0
 20
2208.0
 10
-21738.0
 20
2208.0
 10
-21738.0
 20
2212.0
 10
-24722.0
 20
2212.0
 10
-24722.0
 20
2216.0
 10
-33706.0
 20
2216.0
 10
-33706.0
 20
2220.0
 10
-36690.0
 20
2220.0
 10
-36690.0
 20
2224.0
 10
-45674.0
 20
2224.0
 10
-45674.0
 20
2228.0
 10
-48658.0
 20
2228.0
 10
-48658.0
 20
2232.0
 10
-57000.0
 20
2232.0
 10
-57000.0
 20
2000.0
  0
ENDBLK
  5
41
330
3F
100
AcDbEntity
  8
0
100
AcDbBlockEnd
  0
BLOCK
  5
44
330
43
100
AcDbEntity
  8
0
100
AcDbBlockBegin
  2
EE12_BEG_05-WW12_END_05-1
 70
0
 10
0.0
 20
0.0
 30
0.0
  3
EE12_BEG_05-WW12_END_05-1
  1

  0
LWPOLYLINE
  5
46
330
43
100
AcDbEntity
  8
0
100
AcDbPolyline
 90
28
 70
0
 10
0.0
 20
0.0
 10
0.0
 20
-189.0
 10
2182.0
 20
-189.0
 10
2182.0
 20
-193.0
 10
3579.0
 20
-193.0
 10
3579.0
 20
2193.0
 10
2206.0
 20
2193.0
 10
2206.0
 20
2197.0
 10
-778.0
 20
2197.0
 10
-778.0
 20
2201.0
 10
-9762.0
 20
2201.0
 10
-9762.0
 20
2205.0
 10
-12746.0
 20
2205.0
 10
-12746.0
 20
2209.0
 10
-21730.0
 20
2209.0
 10
-21730.0
 20
2213.0
 10
-24714.0
 20
2213.0
 10
-24714.0
 20
2217.0
 10
-33698.0
 20
2217.0
 10
-33698.0
 20
2221.0
 10
-36682.0
 20
2221.0
 10
-36682.0
 20
2225.0
 10
-45666.0
 20
2225.0
 10
-45666.0
 20
2229.0
 10
-48650.0
 20
2229.0
 10
-48650.0
 20
2233.0
 10
-57000.0
 20
2233.0
 10
-57000.0
 20
2000.0
  0
ENDBLK
  5
45
330
43
100
AcDbEntity
  8
0
100
AcDbBlockEnd
  0
BLOCK
  5
48
330
47
100
AcDbEntity
  8
0
100
AcDbBlockBegin
  2
EE12_BEG_06-WW12_END_06-1
 70
0
 10
0.0
 20
0.0
 30
0.0
  3
EE12_BEG_06-WW12_END_06-1
  1

  0
LWPOLYLINE
  5
4A
330
47
100
AcDbEntity
  8
0
100
AcDbPolyline
 90
28
 70
0
 10
0.0
 20
0.0
 10
0.0
 20
-190.0
 10
2182.0
 20
-190.0
 10
2182.0
 20
-194.0
 10
3584.0
 20
-194.0
 10
3584.0
 20
2194.0
 10
2214.0
 20
2194.0
 10
2214.0
 20
2198.0
 10
-770.0
 20
2198.0
 10
-770.0
 20
2202.0
 10
-9754.0
 20
2202.0
 10
-9754.0
 20
2206.0
 10
-12738.0
 20
2206.0
 10
-12738.0
 20
2210.0
 10
-21722.0
 20
2210.0
 10
-21722.0
 20
2214.0
 10
-24706.0
 20
2214.0
 10
-24706.0
 20
2218.0
 10
-33690.0
 20
2218.0
 10
-33690.0
 20
2222.0
 10
-36674.0
 20
2222.0
 10
-36674.0
 20
2226.0
 10
-45658.0
 20
2226.0
 10
-45658.0
 20
2230.0
 10
-48642.0
 20
2230.0
 10
-48642.0
 20
2234.0
 10
-57000.0
 20
2234.0
 10
-57000.0
 20
2000.0
  0
ENDBLK
  5
49
330
47
100
AcDbEntity
  8
0
100
AcDbBlockEnd
  0
BLOCK
  5
4C
330
4B
100
AcDbEntity
  8
0
100
AcDbBlockBegin
  2
EE12_BEG_07-WW12_END_07-1
 70
0
 10
0.0
 20
0.0
 30
0.0
  3
EE12_BEG_07-WW12_END_07-1
  1

  0
LWPOLYLINE
  5
4E
330
4B
100
AcDbEntity
  8
0
100
AcDbPolyline
 90
28
 70
0
 10
0.0
 20
0.0
 10
0.0
 20
-191.0
 10
2182.0
 20
-191.0
 10
2182.0
 20
-195.0
 10
3589.0
 20
-195.0
 10
3589.0
 20
2195.0
 10
2222.0
 20
2195.0
 10
2222.0
 20
2199.0
 10
-762.0
 20
2199.0
 10
-762.0
 20
2203.0
 10
-9746.0
 20
2203.0
 10
-9746.0
 20
2207.0
 10
-12730.0
 20
2207.0
 10
-12730.0
 20
2211.0
 10
-21714.0
 20
2211.0
 10
-21714.0
 20
2215.0
 10
-24698.0
 20
2215.0
 10
-24698.0
 20
2219.0
 10
-33682.0
 20
2219.0
 10
-33682.0
 20
2223.0
 10
-36666.0
 20
2223.0
 10
-36666.0
 20
2227.0
 10
-45650.0
 20
2227.0
 10
-45650.0
 20
2231.0
 10
-48634.0
 20
2231.0
 10
-48634.0
 20
2235.0
 10
-57000.0
 20
2235.0
 10
-57000.0
 20
2000.0
  0
ENDBLK
  5
4D
330
4B
100
AcDbEntity
  8
0
100
AcDbBlockEnd
  0
BLOCK
  5
50
330
4F
100
AcDbEntity
  8
0
100
AcDbBlockBegin
  2
EE12_BEG_04-WW12_END_04-2
 70
0
 10
0.0
 20
0.0
 30
0.0
  3
EE12_BEG_04-WW12_END_04-2
  1

  0
LWPOLYLINE
  5
52
330
4F
100
AcDbEntity
  8
0
100
AcDbPolyline
 90
28
 70
0
 10
0.0
 20
0.0
 10
0.0
 20
-188.0
 10
8182.0
 20
-188.0
 10
8182.0
 20
-192.0
 10
11166.0
 20
-192.0
 10
11166.0
 20
-196.0
 10
12578.0
 20
-196.0
 10
12578.0
 20
2196.0
 10
11214.0
 20
2196.0
 10
11214.0
 20
2200.0
 10
8230.0
 20
2200.0
 10
8230.0
 20
2204.0
 10
-754.0
 20
2204.0
 10
-754.0
 20
2208.0
 10
-3738.0
 20
2208.0
 10
-3738.0
 20
2212.0
 10
-12722.0
 20
2212.0
 10
-12722.0
 20
2216.0
 10
-15706.0
 20
2216.0
 10
-15706.0
 20
2220.0
 10
-24690.0
 20
2220.0
 10
-24690.0
 20
2224.0
 10
-27674.0
 20
2224.0
 10
-27674.0
 20
2228.0
 10
-36658.0
 20
2228.0
 10
-36658.0
 20
2232.0
 10
-39000.0
 20
2232.0
 10
-39000.0
 20
2000.0
  0
ENDBLK
  5
51
330
4F
100
AcDbEntity
  8
0
100
AcDbBlockEnd
  0
BLOCK
  5
54
330
53
100
AcDbEntity
  8
0
100
AcDbBlockBegin
  2
EE12_BEG_05-WW12_END_05-2
 70
0
 10
0.0
 20
0.0
 30
0.0
  3
EE12_BEG_05-WW12_END_05-2
  1

  0
LWPOLYLINE
  5
56
330
53
100
AcDbEntity
  8
0
100
AcDbPolyline
 90
28
 70
0
 10
0.0
 20
0.0
 10
0.0
 20
-189.0
 10
8182.0
 20
-189.0
 10
8182.0
 20
-193.0
 10
11166.0
 20
-193.0
 10
11166.0
 20
-197.0
 10
12583.0
 20
-197.0
 10
12583.0
 20
2197.0
 10
11222.0
 20
2197.0
 10
11222.0
 20
2201.0
 10
8238.0
 20
2201.0
 10
8238.0
 20
2205.0
 10
-746.0
 20
2205.0
 10
-746.0
 20
2209.0
 10
-3730.0
 20
2209.0
 10
-3730.0
 20
2213.0
 10
-12714.0
 20
2213.0
 10
-12714.0
 20
2217.0
 10
-15698.0
 20
2217.0
 10
-15698.0
 20
2221.0
 10
-24682.0
 20
2221.0
 10
-24682.0
 20
2225.0
 10
-27666.0
 20
2225.0
 10
-27666.0
 20
2229.0
 10
-36650.0
 20
2229.0
 10
-36650.0
 20
2233.0
 10
-39000.0
 20
2233.0
 10
-39000.0
 20
2000.0
  0
ENDBLK
  5
55
330
53
100
AcDbEntity
  8
0
100
AcDbBlockEnd
  0
BLOCK
  5
58
330
57
100
AcDbEntity
  8
0
100
AcDbBlockBegin
  2
EE12_BEG_06-WW12_END_06-2
 70
0
 10
0.0
 20
0.0
 30
0.0
  3
EE12_BEG_06-WW12_END_06-2
  1

  0
LWPOLYLINE
  5
5A
330
57
100
AcDbEntity
  8
0
100
AcDbPolyline
 90
28
 70
0
 10
0.0
 20
0.0
 10
0.0
 20
-190.0
 10
8182.0
 20
-190.0
 10
8182.0
 20
-194.0
 10
11166.0
 20
-194.0
 10
11166.0
 20
-198.0
 10
12588.0
 20
-198.0
 10
12588.0
 20
2198.0
 10
11230.0
 20
2198.0
 10
11230.0
 20
2202.0
 10
8246.0
 20
2202.0
 10
8246.0
 20
2206.0
 10
-738.0
 20
2206.0
 10
-738.0
 20
2210.0
 10
-3722.0
 20
2210.0
 10
-3722.0
 20
2214.0
 10
-12706.0
 20
2214.0
 10
-12706.0
 20
2218.0
 10
-15690.0
 20
2218.0
 10
-15690.0
 20
2222.0
 10
-24674.0
 20
2222.0
 10
-24674.0
 20
2226.0
 10
-27658.0
 20
2226.0
 10
-27658.0
 20
2230.0
 10
-36642.0
 20
2230.0
 10
-36642.0
 20
2234.0
 10
-39000.0
 20
2234.0
 10
-39000.0
 20
2000.0
  0
ENDBLK
  5
59
330
57
100
AcDbEntity
  8
0
100
AcDbBlockEnd
  0
BLOCK
  5
5C
330
5B
100
AcDbEntity
  8
0
100
AcDbBlockBegin
  2
EE12_BEG_07-WW12_END_07-2
 70
0
 10
0.0
 20
0.0
 30
0.0
  3
EE12_BEG_07-WW12_END_07-2
  1

  0
LWPOLYLINE
  5
5E
330
5B
100
AcDbEntity
  8
0
100
AcDbPolyline
 90
28
 70
0
 10
0.0
 20
0.0
 10
0.0
 20
-191.0
 10
8182.0
 20
-191.0
 10
8182.0
 20
-195.0
 10
11166.0
 20
-195.0
 10
11166.0
 20
-199.0
 10
12593.0
 20
-199.0
 10
12593.0
 20
2199.0
 10
11238.0
 20
2199.0
 10
11238.0
 20
2203.0
 10
8254.0
 20
2203.0
 10
8254.0
 20
2207.0
 10
-730.0
 20
2207.0
 10
-730.0
 20
2211.0
 10
-3714.0
 20
2211.0
 10
-3714.0
 20
2215.0
 10
-12698.0
 20
2215.0
 10
-12698.0
 20
2219.0
 10
-15682.0
 20
2219.0
 10
-15682.0
 20
2223.0
 10
-24666.0
 20
2223.0
 10
-24666.0
 20
2227.0
 10
-27650.0
 20
2227.0
 10
-27650.0
 20
2231.0
 10
-36634.0
 20
2231.0
 10
-36634.0
 20
2235.0
 10
-39000.0
 20
2235.0
 10
-39000.0
 20
2000.0
  0
ENDBLK
  5
5D
330
5B
100
AcDbEntity
  8
0
100
AcDbBlockEnd
  0
BLOCK
  5
60
330
5F
100
AcDbEntity
  8
0
100
AcDbBlockBegin
  2
EE12_BEG_04-WW12_END_04-3
 70
0
 10
0.0
 20
0.0
 30
0.0
  3
EE12_BEG_04-WW12_END_04-3
  1

  0
LWPOLYLINE
  5
62
330
5F
100
AcDbEntity
  8
0
100
AcDbPolyline
 90
28
 70
0
 10
0.0
 20
0.0
 10
0.0
 20
-188.0
 10
2182.0
 20
-188.0
 10
2182.0
 20
-192.0
 10
11166.0
 20
-192.0
 10
11166.0
 20
-196.0
 10
14150.0
 20
-196.0
 10
14150.0
 20
-200.0
 10
15582.0
 20
-200.0
 10
15582.0
 20
2200.0
 10
14230.0
 20
2200.0
 10
14230.0
 20
2204.0
 10
11246.0
 20
2204.0
 10
11246.0
 20
2208.0
 10
2262.0
 20
2208.0
 10
2262.0
 20
2212.0
 10
-722.0
 20
2212.0
 10
-722.0
 20
2216.0
 10
-9706.0
 20
2216.0
 10
-9706.0
 20
2220.0
 10
-12690.0
 20
2220.0
 10
-12690.0
 20
2224.0
 10
-21674.0
 20
2224.0
 10
-21674.0
 20
2228.0
 10
-24658.0
 20
2228.0
 10
-24658.0
 20
2232.0
 10
-33000.0
 20
2232.0
 10
-33000.0
 20
2000.0
  0
ENDBLK
  5
61
330
5F
100
AcDbEntity
  8
0
100
AcDbBlockEnd
  0
BLOCK
  5
64
330
63
100
AcDbEntity
  8
0
100
AcDbBlockBegin
  2
EE12_BEG_05-WW12_END_05-3
 70
0
 10
0.0
 20
0.0
 30
0.0
  3
EE12_BEG_05-WW12_END_05-3
  1

  0
LWPOLYLINE
  5
66
330
63
100
AcDbEntity
  8
0
100
AcDbPolyline
 90
28
 70
0
 10
0.0
 20
0.0
 10
0.0
 20
-189.0
 10
2182.0
 20
-189.0
 10
2182.0
 20
-193.0
 10
11166.0
 20
-193.0
 10
11166.0
 20
-197.0
 10
14150.0
 20
-197.0
 10
14150.0
 20
-201.0
 10
15587.0
 20
-201.0
 10
15587.0
 20
2201.0
 10
14238.0
 20
2201.0
 10
14238.0
 20
2205.0
 10
11254.0
 20
2205.0
 10
11254.0
 20
2209.0
 10
2270.0
 20
2209.0
 10
2270.0
 20
2213.0
 10
-714.0
 20
2213.0
 10
-714.0
 20
2217.0
 10
-9698.0
 20
2217.0
 10
-9698.0
 20
2221.0
 10
-12682.0
 20
2221.0
 10
-12682.0
 20
2225.0
 10
-21666.0
 20
2225.0
 10
-21666.0
 20
2229.0
 10
-24650.0
 20
2229.0
 10
-24650.0
 20
2233.0
 10
-33000.0
 20
2233.0
 10
-33000.0
 20
2000.0
  0
ENDBLK
  5
65
330
63
100
AcDbEntity
  8
0
100
AcDbBlockEnd
  0
BLOCK
  5
68
330
67
100
AcDbEntity
  8
0
100
AcDbBlockBegin
  2
EE12_BEG_06-WW12_END_06-3
 70
0
 10
0.0
 20
0.0
 30
0.0
  3
EE12_BEG_06-WW12_END_06-3
  1

  0
LWPOLYLINE
  5
6A
330
67
100
AcDbEntity
  8
0
100
AcDbPolyline
 90
28
 70
0
 10
0.0
 20
0.0
 10
0.0
 20
-190.0
 10
2182.0
 20
-190.0
 10
2182.0
 20
-194.0
 10
11166.0
 20
-194.0
 10
11166.0
 20
-198.0
 10
14150.0
 20
-198.0
 10
14150.0
 20
-202.0
 10
15592.0
 20
-202.0
 10
15592.0
 20
2202.0
 10
14246.0
 20
2202.0
 10
14246.0
 20
2206.0
 10
11262.0
 20
2206.0
 10
11262.0
 20
2210.0
 10
2278.0
 20
2210.0
 10
2278.0
 20
2214.0
 10
-706.0
 20
2214.0
 10
-706.0
 20
2218.0
 10
-9690.0
 20
2218.0
 10
-9690.0
 20
2222.0
 10
-12674.0
 20
2222.0
 10
-12674.0
 20
2226.0
 10
-21658.0
 20
2226.0
 10
-21658.0
 20
2230.0
 10
-24642.0
 20
2230.0
 10
-24642.0
 20
2234.0
 10
-33000.0
 20
2234.0
 10
-33000.0
 20
2000.0
  0
ENDBLK
  5
69
330
67
100
AcDbEntity
  8
0
100
AcDbBlockEnd
  0
BLOCK
  5
6C
330
6B
100
AcDbEntity
  8
0
100
AcDbBlockBegin
  2
EE12_BEG_07-WW12_END_07-3
 70
0
 10
0.0
 20
0.0
 30
0.0
  3
EE12_BEG_07-WW12_END_07-3
  1

  0
LWPOLYLINE
  5
6E
330
6B
100
AcDbEntity
  8
0
100
AcDbPolyline
 90
28
 70
0
 10
0.0
 20
0.0
 10
0.0
 20
-191.0
 10
2182.0
 20
-191.0
 10
2182.0
 20
-195.0
 10
11166.0
 20
-195.0
 10
11166.0
 20
-199.0
 10
14150.0
 20
-199.0
 10
14150.0
 20
-203.0
 10
15597.0
 20
-203.0
 10
15597.0
 20
2203.0
 10
14254.0
 20
2203.0
 10
14254.0
 20
2207.0
 10
11270.0
 20
2207.0
 10
11270.0
 20
2211.0
 10
2286.0
 20
2211.0
 10
2286.0
 20
2215.0
 10
-698.0
 20
2215.0
 10
-698.0
 20
2219.0
 10
-9682.0
 20
2219.0
 10
-9682.0
 20
2223.0
 10
-12666.0
 20
2223.0
 10
-12666.0
 20
2227.0
 10
-21650.0
 20
2227.0
 10
-21650.0
 20
2231.0
 10
-24634.0
 20
2231.0
 10
-24634.0
 20
2235.0
 10
-33000.0
 20
2235.0
 10
-33000.0
 20
2000.0
  0
ENDBLK
  5
6D
330
6B
100
AcDbEntity
  8
0
100
AcDbBlockEnd
  0
BLOCK
  5
70
330
6F
100
AcDbEntity
  8
0
100
AcDbBlockBegin
  2
EE12_BEG_04-WW12_END_04-4
 70
0
 10
0.0
 20
0.0
 30
0.0
  3
EE12_BEG_04-WW12_END_04-4
  1

  0
LWPOLYLINE
  5
72
330
6F
100
AcDbEntity
  8
0
100
AcDbPolyline
 90
28
 70
0
 10
0.0
 20
0.0
 10
0.0
 20
-188.0
 10
8182.0
 20
-188.0
 10
8182.0
 20
-192.0
 10
11166.0
 20
-192.0
 10
11166.0
 20
-196.0
 10
20150.0
 20
-196.0
 10
20150.0
 20
-200.0
 10
23134.0
 20
-200.0
 10
23134.0
 20
-204.0
 10
24586.0
 20
-204.0
 10
24586.0
 20
2204.0
 10
23246.0
 20
2204.0
 10
23246.0
 20
2208.0
 10
20262.0
 20
2208.0
 10
20262.0
 20
2212.0
 10
11278.0
 20
2212.0
 10
11278.0
 20
2216.0
 10
8294.0
 20
2216.0
 10
8294.0
 20
2220.0
 10
-690.0
 20
2220.0
 10
-690.0
 20
2224.0
 10
-3674.0
 20
2224.0
 10
-3674.0
 20
2228.0
 10
-12658.0
 20
2228.0
 10
-12658.0
 20
2232.0
 10
-15000.0
 20
2232.0
 10
-15000.0
 20
2000.0
  0
ENDBLK
  5
71
330
6F
100
AcDbEntity
  8
0
100
AcDbBlockEnd
  0
BLOCK
  5
74
330
73
100
AcDbEntity
  8
0
100
AcDbBlockBegin
  2
EE12_BEG_05-WW12_END_05-4
 70
0
 10
0.0
 20
0.0
 30
0.0
  3
EE12_BEG_05-WW12_END_05-4
  1

  0
LWPOLYLINE
  5
76
330
73
100
AcDbEntity
  8
0
100
AcDbPolyline
 90
28
 70
0
 10
0.0
 20
0.0
 10
0.0
 20
-189.0
 10
8182.0
 20
-189.0
 10
8182.0
 20
-193.0
 10
11166.0
 20
-193.0
 10
11166.0
 20
-197.0
 10
20150.0
 20
-197.0
 10
20150.0
 20
-201.0
 10
23134.0
 20
-201.0
 10
23134.0
 20
-205.0
 10
24591.0
 20
-205.0
 10
24591.0
 20
2205.0
 10
23254.0
 20
2205.0
 10
23254.0
 20
2209.0
 10
20270.0
 20
2209.0
 10
20270.0
 20
2213.0
 10
11286.0
 20
2213.0
 10
11286.0
 20
2217.0
 10
8302.0
 20
2217.0
 10
8302.0
 20
2221.0
 10
-682.0
 20
2221.0
 10
-682.0
 20
2225.0
 10
-3666.0
 20
2225.0
 10
-3666.0
 20
2229.0
 10
-12650.0
 20
2229.0
 10
-12650.0
 20
2233.0
 10
-15000.0
 20
2233.0
 10
-15000.0
 20
2000.0
  0
ENDBLK
  5
75
330
73
100
AcDbEntity
  8
0
100
AcDbBlockEnd
  0
BLOCK
  5
78
330
77
100
AcDbEntity
  8
0
100
AcDbBlockBegin
  2
EE12_BEG_06-WW12_END_06-4
 70
0
 10
0.0
 20
0.0
 30
0.0
  3
EE12_BEG_06-WW12_END_06-4
  1

  0
LWPOLYLINE
  5
7A
330
77
100
AcDbEntity
  8
0
100
AcDbPolyline
 90
28
 70
0
 10
0.0
 20
0.0
 10
0.0
 20
-190.0
 10
8182.0
 20
-190.0
 10
8182.0
 20
-194.0
 10
11166.0
 20
-194.0
 10
11166.0
 20
-198.0
 10
20150.0
 20
-198.0
 10
20150.0
 20
-202.0
 10
23134.0
 20
-202.0
 10
23134.0
 20
-206.0
 10
24596.0
 20
-206.0
 10
24596.0
 20
2206.0
 10
23262.0
 20
2206.0
 10
23262.0
 20
2210.0
 10
20278.0
 20
2210.0
 10
20278.0
 20
2214.0
 10
11294.0
 20
2214.0
 10
11294.0
 20
2218.0
 10
8310.0
 20
2218.0
 10
8310.0
 20
2222.0
 10
-674.0
 20
2222.0
 10
-674.0
 20
2226.0
 10
-3658.0
 20
2226.0
 10
-3658.0
 20
2230.0
 10
-12642.0
 20
2230.0
 10
-12642.0
 20
2234.0
 10
-15000.0
 20
2234.0
 10
-15000.0
 20
2000.0
  0
ENDBLK
  5
79
330
77
100
AcDbEntity
  8
0
100
AcDbBlockEnd
  0
BLOCK
  5
7C
330
7B
100
AcDbEntity
  8
0
100
AcDbBlockBegin
  2
EE12_BEG_07-WW12_END_07-4
 70
0
 10
0.0
 20
0.0
 30
0.0
  3
EE12_BEG_07-WW12_END_07-4
  1

  0
LWPOLYLINE
  5
7E
330
7B
100
AcDbEntity
  8
0
100
AcDbPolyline
 90
28
 70
0
 10
0.0
 20
0.0
 10
0.0
 20
-191.0
 10
8182.0
 20
-191.0
 10
8182.0
 20
-195.0
 10
11166.0
 20
-195.0
 10
11166.0
 20
-199.0
 10
20150.0
 20
-199.0
 10
20150.0
 20
-203.0
 10
23134.0
 20
-203.0
 10
23134.0
 20
-207.0
 10
24601.0
 20
-207.0
 10
24601.0
 20
2207.0
 10
23270.0
 20
2207.0
 10
23270.0
 20
2211.0
 10
20286.0
 20
2211.0
 10
20286.0
 20
2215.0
 10
11302.0
 20
2215.0
 10
11302.0
 20
2219.0
 10
8318.0
 20
2219.0
 10
8318.0
 20
2223.0
 10
-666.0
 20
2223.0
 10
-666.0
 20
2227.0
 10
-3650.0
 20
2227.0
 10
-3650.0
 20
2231.0
 10
-12634.0
 20
2231.0
 10
-12634.0
 20
2235.0
 10
-15000.0
 20
2235.0
 10
-15000.0
 20
2000.0
  0
ENDBLK
  5
7D
330
7B
100
AcDbEntity
  8
0
100
AcDbBlockEnd
  0
BLOCK
  5
80
330
7F
100
AcDbEntity
  8
0
100
AcDbBlockBegin
  2
EE12_BEG_04-WW12_END_04-5
 70
0
 10
0.0
 20
0.0
 30
0.0
  3
EE12_BEG_04-WW12_END_04-5
  1

  0
LWPOLYLINE
  5
82
330
7F
100
AcDbEntity
  8
0
100
AcDbPolyline
 90
28
 70
0
 10
0.0
 20
0.0
 10
0.0
 20
-188.0
 10
2182.0
 20
-188.0
 10
2182.0
 20
-192.0
 10
11166.0
 20
-192.0
 10
11166.0
 20
-196.0
 10
14150.0
 20
-196.0
 10
14150.0
 20
-200.0
 10
23134.0
 20
-200.0
 10
23134.0
 20
-204.0
 10
26118.0
 20
-204.0
 10
26118.0
 20
-208.0
 10
27590.0
 20
-208.0
 10
27590.0
 20
2208.0
 10
26262.0
 20
2208.0
 10
26262.0
 20
2212.0
 10
23278.0
 20
2212.0
 10
23278.0
 20
2216.0
 10
14294.0
 20
2216.0
 10
14294.0
 20
2220.0
 10
11310.0
 20
2220.0
 10
11310.0
 20
2224.0
 10
2326.0
 20
2224.0
 10
2326.0
 20
2228.0
 10
-658.0
 20
2228.0
 10
-658.0
 20
2232.0
 10
-9000.0
 20
2232.0
 10
-9000.0
 20
2000.0
  0
ENDBLK
  5
81
330
7F
100
AcDbEntity
  8
0
100
AcDbBlockEnd
  0
BLOCK
  5
84
330
83
100
AcDbEntity
  8
0
100
AcDbBlockBegin
  2
EE12_BEG_05-WW12_END_05-5
 70
0
 10
0.0
 20
0.0
 30
0.0
  3
EE12_BEG_05-WW12_END_05-5
  1

  0
LWPOLYLINE
  5
86
330
83
100
AcDbEntity
  8
0
100
AcDbPolyline
 90
28
 70
0
 10
0.0
 20
0.0
 10
0.0
 20
-189.0
 10
2182.0
 20
-189.0
 10
2182.0
 20
-193.0
 10
11166.0
 20
-193.0
 10
11166.0
 20
-197.0
 10
14150.0
 20
-197.0
 10
14150.0
 20
-201.0
 10
23134.0
 20
-201.0
 10
23134.0
 20
-205.0
 10
26118.0
 20
-205.0
 10
26118.0
 20
-209.0
 10
27595.0
 20
-209.0
 10
27595.0
 20
2209.0
 10
26270.0
 20
2209.0
 10
26270.0
 20
2213.0
 10
23286.0
 20
2213.0
 10
23286.0
 20
2217.0
 10
14302.0
 20
2217.0
 10
14302.0
 20
2221.0
 10
11318.0
 20
2221.0
 10
11318.0
 20
2225.0
 10
2334.0
 20
2225.0
 10
2334.0
 20
2229.0
 10
-650.0
 20
2229.0
 10
-650.0
 20
2233.0
 10
-9000.0
 20
2233.0
 10
-9000.0
 20
2000.0
  0
ENDBLK
  5
85
330
83
100
AcDbEntity
  8
0
100
AcDbBlockEnd
  0
BLOCK
  5
88
330
87
100
AcDbEntity
  8
0
100
AcDbBlockBegin
  2
EE12_BEG_06-WW12_END_06-5
 70
0
 10
0.0
 20
0.0
 30
0.0
  3
EE12_BEG_06-WW12_END_06-5
  1

  0
LWPOLYLINE
  5
8A
330
87
100
AcDbEntity
  8
0
100
AcDbPolyline
 90
28
 70
0
 10
0.0
 20
0.0
 10
0.0
 20
-190.0
 10
2182.0
 20
-190.0
 10
2182.0
 20
-194.0
 10
11166.0
 20
-194.0
 10
11166.0
 20
-198.0
 10
14150.0
 20
-198.0
 10
14150.0
 20
-202.0
 10
23134.0
 20
-202.0
 10
23134.0
 20
-206.0
 10
26118.0
 20
-206.0
 10
26118.0
 20
-210.0
 10
27600.0
 20
-210.0
 10
27600.0
 20
2210.0
 10
26278.0
 20
2210.0
 10
26278.0
 20
2214.0
 10
23294.0
 20
2214.0
 10
23294.0
 20
2218.0
 10
14310.0
 20
2218.0
 10
14310.0
 20
2222.0
 10
11326.0
 20
2222.0
 10
11326.0
 20
2226.0
 10
2342.0
 20
2226.0
 10
2342.0
 20
2230.0
 10
-642.0
 20
2230.0
 10
-642.0
 20
2234.0
 10
-9000.0
 20
2234.0
 10
-9000.0
 20
2000.0
  0
ENDBLK
  5
89
330
87
100
AcDbEntity
  8
0
100
AcDbBlockEnd
  0
BLOCK
  5
8C
330
8B
100
AcDbEntity
  8
0
100
AcDbBlockBegin
  2
EE12_BEG_07-WW12_END_07-5
 70
0
 10
0.0
 20
0.0
 30
0.0
  3
EE12_BEG_07-WW12_END_07-5
  1

  0
LWPOLYLINE
  5
8E
330
8B
100
AcDbEntity
  8
0
100
AcDbPolyline
 90
28
 70
0
 10
0.0
 20
0.0
 10
0.0
 20
-191.0
 10
2182.0
 20
-191.0
 10
2182.0
 20
-195.0
 10
11166.0
 20
-195.0
 10
11166.0
 20
-199.0
 10
14150.0
 20
-199.0
 10
14150.0
 20
-203.0
 10
23134.0
 20
-203.0
 10
23134.0
 20
-207.0
 10
26118.0
 20
-207.0
 10
26118.0
 20
-211.0
 10
27605.0
 20
-211.0
 10
27605.0
 20
2211.0
 10
26286.0
 20
2211.0
 10
26286.0
 20
2215.0
 10
23302.0
 20
2215.0
 10
23302.0
 20
2219.0
 10
14318.0
 20
2219.0
 10
14318.0
 20
2223.0
 10
11334.0
 20
2223.0
 10
11334.0
 20
2227.0
 10
2350.0
 20
2227.0
 10
2350.0
 20
2231.0
 10
-634.0
 20
2231.0
 10
-634.0
 20
2235.0
 10
-9000.0
 20
2235.0
 10
-9000.0
 20
2000.0
  0
ENDBLK
  5
8D
330
8B
100
AcDbEntity
  8
0
100
AcDbBlockEnd
  0
BLOCK
  5
90
330
8F
100
AcDbEntity
  8
0
100
AcDbBlockBegin
  2
EE12_BEG_04-WW12_END_04-6
 70
0
 10
0.0
 20
0.0
 30
0.0
  3
EE12_BEG_04-WW12_END_04-6
  1

  0
LWPOLYLINE
  5
92
330
8F
100
AcDbEntity
  8
0
100
AcDbPolyline
 90
28
 70
0
 10
0.0
 20
0.0
 10
0.0
 20
-188.0
 10
8182.0
 20
-188.0
 10
8182.0
 20
-192.0
 10
11166.0
 20
-192.0
 10
11166.0
 20
-196.0
 10
20150.0
 20
-196.0
 10
20150.0
 20
-200.0
 10
23134.0
 20
-200.0
 10
23134.0
 20
-204.0
 10
32118.0
 20
-204.0
 10
32118.0
 20
-208.0
 10
35102.0
 20
-208.0
 10
35102.0
 20
-212.0
 10
36594.0
 20
-212.0
 10
36594.0
 20
2212.0
 10
35278.0
 20
2212.0
 10
35278.0
 20
2216.0
 10
32294.0
 20
2216.0
 10
32294.0
 20
2220.0
 10
23310.0
 20
2220.0
 10
23310.0
 20
2224.0
 10
20326.0
 20
2224.0
 10
20326.0
 20
2228.0
 10
11342.0
 20
2228.0
 10
11342.0
 20
2232.0
 10
9000.0
 20
2232.0
 10
9000.0
 20
2000.0
  0
ENDBLK
  5
91
330
8F
100
AcDbEntity
  8
0
100
AcDbBlockEnd
  0
BLOCK
  5
94
330
93
100
AcDbEntity
  8
0
100
AcDbBlockBegin
  2
EE12_BEG_05-WW12_END_05-6
 70
0
 10
0.0
 20
0.0
 30
0.0
  3
EE12_BEG_05-WW12_END_05-6
  1

  0
LWPOLYLINE
  5
96
330
93
100
AcDbEntity
  8
0
100
AcDbPolyline
 90
28
 70
0
 10
0.0
 20
0.0
 10
0.0
 20
-189.0
 10
8182.0
 20
-189.0
 10
8182.0
 20
-193.0
 10
11166.0
 20
-193.0
 10
11166.0
 20
-197.0
 10
20150.0
 20
-197.0
 10
20150.0
 20
-201.0
 10
23134.0
 20
-201.0
 10
23134.0
 20
-205.0
 10
32118.0
 20
-205.0
 10
32118.0
 20
-209.0
 10
35102.0
 20
-209.0
 10
35102.0
 20
-213.0
 10
36599.0
 20
-213.0
 10
36599.0
 20
2213.0
 10
35286.0
 20
2213.0
 10
35286.0
 20
2217.0
 10
32302.0
 20
2217.0
 10
32302.0
 20
2221.0
 10
23318.0
 20
2221.0
 10
23318.0
 20
2225.0
 10
20334.0
 20
2225.0
 10
20334.0
 20
2229.0
 10
11350.0
 20
2229.0
 10
11350.0
 20
2233.0
 10
9000.0
 20
2233.0
 10
9000.0
 20
2000.0
  0
ENDBLK
  5
95
330
93
100
AcDbEntity
  8
0
100
AcDbBlockEnd
  0
BLOCK
  5
98
330
97
100
AcDbEntity
  8
0
100
AcDbBlockBegin
  2
EE12_BEG_06-WW12_END_06-6
 70
0
 10
0.0
 20
0.0
 30
0.0
  3
EE12_BEG_06-WW12_END_06-6
  1

  0
LWPOLYLINE
  5
9A
330
97
100
AcDbEntity
  8
0
100
AcDbPolyline
 90
28
 70
0
 10
0.0
 20
0.0
 10
0.0
 20
-190.0
 10
8182.0
 20
-190.0
 10
8182.0
 20
-194.0
 10
11166.0
 20
-194.0
 10
11166.0
 20
-198.0
 10
20150.0
 20
-198.0
 10
20150.0
 20
-202.0
 10
23134.0
 20
-202.0
 10
23134.0
 20
-206.0
 10
32118.0
 20
-206.0
 10
32118.0
 20
-210.0
 10
35102.0
 20
-210.0
 10
35102.0
 20
-214.0
 10
36604.0
 20
-214.0
 10
36604.0
 20
2214.0
 10
35294.0
 20
2214.0
 10
35294.0
 20
2218.0
 10
32310.0
 20
2218.0
 10
32310.0
 20
2222.0
 10
23326.0
 20
2222.0
 10
23326.0
 20
2226.0
 10
20342.0
 20
2226.0
 10
20342.0
 20
2230.0
 10
11358.0
 20
2230.0
 10
11358.0
 20
2234.0
 10
9000.0
 20
2234.0
 10
9000.0
 20
2000.0
  0
ENDBLK
  5
99
330
97
100
AcDbEntity
  8
0
100
AcDbBlockEnd
  0
BLOCK
  5
9C
330
9B
100
AcDbEntity
  8
0
100
AcDbBlockBegin
  2
EE12_BEG_07-WW12_END_07-6
 70
0
 10
0.0
 20
0.0
 30
0.0
  3
EE12_BEG_07-WW12_END_07-6
  1

  0
LWPOLYLINE
  5
9E
330
9B
100
AcDbEntity
  8
0
100
AcDbPolyline
 90
28
 70
0
 10
0.0
 20
0.0
 10
0.0
 20
-191.0
 10
8182.0
 20
-191.0
 10
8182.0
 20
-195.0
 10
11166.0
 20
-195.0
 10
11166.0
 20
-199.0
 10
20150.0
 20
-199.0
 10
20150.0
 20
-203.0
 10
23134.0
 20
-203.0
 10
23134.0
 20
-207.0
 10
32118.0
 20
-207.0
 10
32118.0
 20
-211.0
 10
35102.0
 20
-211.0
 10
35102.0
 20
-215.0
 10
36609.0
 20
-215.0
 10
36609.0
 20
2215.0
 10
35302.0
 20
2215.0
 10
35302.0
 20
2219.0
 10
32318.0
 20
2219.0
 10
32318.0
 20
2223.0
 10
23334.0
 20
2223.0
 10
23334.0
 20
2227.0
 10
20350.0
 20
2227.0
 10
20350.0
 20
2231.0
 10
11366.0
 20
2231.0
 10
11366.0
 20
2235.0
 10
9000.0
 20
2235.0
 10
9000.0
 20
2000.0
  0
ENDBLK
  5
9D
330
9B
100
AcDbEntity
  8
0
100
AcDbBlockEnd
  0
BLOCK
  5
A0
330
9F
100
AcDbEntity
  8
0
100
AcDbBlockBegin
  2
EE12_BEG_04-WW12_END_04-7
 70
0
 10
0.0
 20
0.0
 30
0.0
  3
EE12_BEG_04-WW12_END_04-7
  1

  0
LWPOLYLINE
  5
A2
330
9F
100
AcDbEntity
  8
0
100
AcDbPolyline
 90
28
 70
0
 10
0.0
 20
0.0
 10
0.0
 20
-188.0
 10
2182.0
 20
-188.0
 10
2182.0
 20
-192.0
 10
11166.0
 20
-192.0
 10
11166.0
 20
-196.0
 10
14150.0
 20
-196.0
 10
14150.0
 20
-200.0
 10
23134.0
 20
-200.0
 10
23134.0
 20
-204.0
 10
26118.0
 20
-204.0
 10
26118.0
 20
-208.0
 10
35102.0
 20
-208.0
 10
35102.0
 20
-212.0
 10
38086.0
 20
-212.0
 10
38086.0
 20
-216.0
 10
39598.0
 20
-216.0
 10
39598.0
 20
2216.0
 10
38294.0
 20
2216.0
 10
38294.0
 20
2220.0
 10
35310.0
 20
2220.0
 10
35310.0
 20
2224.0
 10
26326.0
 20
2224.0
 10
26326.0
 20
2228.0
 10
23342.0
 20
2228.0
 10
23342.0
 20
2232.0
 10
15000.0
 20
2232.0
 10
15000.0
 20
2000.0
  0
ENDBLK
  5
A1
330
9F
100
AcDbEntity
  8
0
100
AcDbBlockEnd
  0
BLOCK
  5
A4
330
A3
100
AcDbEntity
  8
0
100
AcDbBlockBegin
  2
EE12_BEG_05-WW12_END_05-7
 70
0
 10
0.0
 20
0.0
 30
0.0
  3
EE12_BEG_05-WW12_END_05-7
  1

  0
LWPOLYLINE
  5
A6
330
A3
100
AcDbEntity
  8
0
100
AcDbPolyline
 90
28
 70
0
 10
0.0
 20
0.0
 10
0.0
 20
-189.0
 10
2182.0
 20
-189.0
 10
2182.0
 20
-193.0
 10
11166.0
 20
-193.0
 10
11166.0
 20
-197.0
 10
14150.0
 20
-197.0
 10
14150.0
 20
-201.0
 10
23134.0
 20
-201.0
 10
23134.0
 20
-205.0
 10
26118.0
 20
-205.0
 10
26118.0
 20
-209.0
 10
35102.0
 20
-209.0
 10
35102.0
 20
-213.0
 10
38086.0
 20
-213.0
 10
38086.0
 20
-217.0
 10
39603.0
 20
-217.0
 10
39603.0
 20
2217.0
 10
38302.0
 20
2217.0
 10
38302.0
 20
2221.0
 10
35318.0
 20
2221.0
 10
35318.0
 20
2225.0
 10
26334.0
 20
2225.0
 10
26334.0
 20
2229.0
 10
23350.0
 20
2229.0
 10
23350.0
 20
2233.0
 10
15000.0
 20
2233.0
 10
15000.0
 20
2000.0
  0
ENDBLK
  5
A5
330
A3
100
AcDbEntity
  8
0
100
AcDbBlockEnd
  0
BLOCK
  5
A8
330
A7
100
AcDbEntity
  8
0
100
AcDbBlockBegin
  2
EE12_BEG_06-WW12_END_06-7
 70
0
 10
0.0
 20
0.0
 30
0.0
  3
EE12_BEG_06-WW12_END_06-7
  1

  0
LWPOLYLINE
  5
AA
330
A7
100
AcDbEntity
  8
0
100
AcDbPolyline
 90
28
 70
0
 10
0.0
 20
0.0
 10
0.0
 20
-190.0
 10
2182.0
 20
-190.0
 10
2182.0
 20
-194.0
 10
11166.0
 20
-194.0
 10
11166.0
 20
-198.0
 10
14150.0
 20
-198.0
 10
14150.0
 20
-202.0
 10
23134.0
 20
-202.0
 10
23134.0
 20
-206.0
 10
26118.0
 20
-206.0
 10
26118.0
 20
-210.0
 10
35102.0
 20
-210.0
 10
35102.0
 20
-214.0
 10
38086.0
 20
-214.0
 10
38086.0
 20
-218.0
 10
39608.0
 20
-218.0
 10
39608.0
 20
2218.0
 10
38310.0
 20
2218.0
 10
38310.0
 20
2222.0
 10
35326.0
 20
2222.0
 10
35326.0
 20
2226.0
 10
26342.0
 20
2226.0
 10
26342.0
 20
2230.0
 10
23358.0
 20
2230.0
 10
23358.0
 20
2234.0
 10
15000.0
 20
2234.0
 10
15000.0
 20
2000.0
  0
ENDBLK
  5
A9
330
A7
100
AcDbEntity
  8
0
100
AcDbBlockEnd
  0
BLOCK
  5
AC
330
AB
100
AcDbEntity
  8
0
100
AcDbBlockBegin
  2
EE12_BEG_07-WW12_END_07-7
 70
0
 10
0.0
 20
0.0
 30
0.0
  3
EE12_BEG_07-WW12_END_07-7
  1

  0
LWPOLYLINE
  5
AE
330
AB
100
AcDbEntity
  8
0
100
AcDbPolyline
 90
28
 70
0
 10
0.0
 20
0.0
 10
0.0
 20
-191.0
 10
2182.0
 20
-191.0
 10
2182.0
 20
-195.0
 10
11166.0
 20
-195.0
 10
11166.0
 20
-199.0
 10
14150.0
 20
-199.0
 10
14150.0
 20
-203.0
 10
23134.0
 20
-203.0
 10
23134.0
 20
-207.0
 10
26118.0
 20
-207.0
 10
26118.0
 20
-211.0
 10
35102.0
 20
-211.0
 10
35102.0
 20
-215.0
 10
38086.0
 20
-215.0
 10
38086.0
 20
-219.0
 10
39613.0
 20
-219.0
 10
39613.0
 20
2219.0
 10
38318.0
 20
2219.0
 10
38318.0
 20
2223.0
 10
35334.0
 20
2223.0
 10
35334.0
 20
2227.0
 10
26350.0
 20
2227.0
 10
26350.0
 20
2231.0
 10
23366.0
 20
2231.0
 10
23366.0
 20
2235.0
 10
15000.0
 20
2235.0
 10
15000.0
 20
2000.0
  0
ENDBLK
  5
AD
330
AB
100
AcDbEntity
  8
0
100
AcDbBlockEnd
  0
BLOCK
  5
B0
330
AF
100
AcDbEntity
  8
0
100
AcDbBlockBegin
  2
EE12_BEG_04-WW12_END_04-8
 70
0
 10
0.0
 20
0.0
 30
0.0
  3
EE12_BEG_04-WW12_END_04-8
  1

  0
LWPOLYLINE
  5
B2
330
AF
100
AcDbEntity
  8
0
100
AcDbPolyline
 90
28
 70
0
 10
0.0
 20
0.0
 10
0.0
 20
-188.0
 10
8182.0
 20
-188.0
 10
8182.0
 20
-192.0
 10
11166.0
 20
-192.0
 10
11166.0
 20
-196.0
 10
20150.0
 20
-196.0
 10
20150.0
 20
-200.0
 10
23134.0
 20
-200.0
 10
23134.0
 20
-204.0
 10
32118.0
 20
-204.0
 10
32118.0
 20
-208.0
 10
35102.0
 20
-208.0
 10
35102.0
 20
-212.0
 10
44086.0
 20
-212.0
 10
44086.0
 20
-216.0
 10
47070.0
 20
-216.0
 10
47070.0
 20
-220.0
 10
48602.0
 20
-220.0
 10
48602.0
 20
2220.0
 10
47310.0
 20
2220.0
 10
47310.0
 20
2224.0
 10
44326.0
 20
2224.0
 10
44326.0
 20
2228.0
 10
35342.0
 20
2228.0
 10
35342.0
 20
2232.0
 10
33000.0
 20
2232.0
 10
33000.0
 20
2000.0
  0
ENDBLK
  5
B1
330
AF
100
AcDbEntity
  8
0
100
AcDbBlockEnd
  0
BLOCK
  5
B4
330
B3
100
AcDbEntity
  8
0
100
AcDbBlockBegin
  2
EE12_BEG_05-WW12_END_05-8
 70
0
 10
0.0
 20
0.0
 30
0.0
  3
EE12_BEG_05-WW12_END_05-8
  1

  0
LWPOLYLINE
  5
B6
330
B3
100
AcDbEntity
  8
0
100
AcDbPolyline
 90
28
 70
0
 10
0.0
 20
0.0
 10
0.0
 20
-189.0
 10
8182.0
 20
-189.0
 10
8182.0
 20
-193.0
 10
11166.0
 20
-193.0
 10
11166.0
 20
-197.0
 10
20150.0
 20
-197.0
 10
20150.0
 20
-201.0
 10
23134.0
 20
-201.0
 10
23134.0
 20
-205.0
 10
32118.0
 20
-205.0
 10
32118.0
 20
-209.0
 10
35102.0
 20
-209.0
 10
35102.0
 20
-213.0
 10
44086.0
 20
-213.0
 10
44086.0
 20
-217.0
 10
47070.0
 20
-217.0
 10
47070.0
 20
-221.0
 10
48607.0
 20
-221.0
 10
48607.0
 20
2221.0
 10
47318.0
 20
2221.0
 10
47318.0
 20
2225.0
 10
44334.0
 20
2225.0
 10
44334.0
 20
2229.0
 10
35350.0
 20
2229.0
 10
35350.0
 20
2233.0
 10
33000.0
 20
2233.0
 10
33000.0
 20
2000.0
  0
ENDBLK
  5
B5
330
B3
100
AcDbEntity
  8
0
100
AcDbBlockEnd
  0
BLOCK
  5
B8
330
B7
100
AcDbEntity
  8
0
100
AcDbBlockBegin
  2
EE12_BEG_06-WW12_END_06-8
 70
0
 10
0.0
 20
0.0
 30
0.0
  3
EE12_BEG_06-WW12_END_06-8
  1

  0
LWPOLYLINE
  5
BA
330
B7
100
AcDbEntity
  8
0
100
AcDbPolyline
 90
28
 70
0
 10
0.0
 20
0.0
 10
0.0
 20
-190.0
 10
8182.0
 20
-190.0
 10
8182.0
 20
-194.0
 10
11166.0
 20
-194.0
 10
11166.0
 20
-198.0
 10
20150.0
 20
-198.0
 10
20150.0
 20
-202.0
 10
23134.0
 20
-202.0
 10
23134.0
 20
-206.0
 10
32118.0
 20
-206.0
 10
32118.0
 20
-210.0
 10
35102.0
 20
-210.0
 10
35102.0
 20
-214.0
 10
44086.0
 20
-214.0
 10
44086.0
 20
-218.0
 10
47070.0
 20
-218.0
 10
47070.0
 20
-222.0
 10
48612.0
 20
-222.0
 10
48612.0
 20
2222.0
 10
47326.0
 20
2222.0
 10
47326.0
 20
2226.0
 10
44342.0
 20
2226.0
 10
44342.0
 20
2230.0
 10
35358.0
 20
2230.0
 10
35358.0
 20
2234.0
 10
33000.0
 20
2234.0
 10
33000.0
 20
2000.0
  0
ENDBLK
  5
B9
330
B7
100
AcDbEntity
  8
0
100
AcDbBlockEnd
  0
BLOCK
  5
BC
330
BB
100
AcDbEntity
  8
0
100
AcDbBlockBegin
  2
EE12_BEG_07-WW12_END_07-8
 70
0
 10
0.0
 20
0.0
 30
0.0
  3
EE12_BEG_07-WW12_END_07-8
  1

  0
LWPOLYLINE
  5
BE
330
BB
100
AcDbEntity
  8
0
100
AcDbPolyline
 90
28
 70
0
 10
0.0
 20
0.0
 10
0.0
 20
-191.0
 10
8182.0
 20
-191.0
 10
8182.0
 20
-195.0
 10
11166.0
 20
-195.0
 10
11166.0
 20
-199.0
 10
20150.0
 20
-199.0
 10
20150.0
 20
-203.0
 10
23134.0
 20
-203.0
 10
23134.0
 20
-207.0
 10
32118.0
 20
-207.0
 10
32118.0
 20
-211.0
 10
35102.0
 20
-211.0
 10
35102.0
 20
-215.0
 10
44086.0
 20
-215.0
 10
44086.0
 20
-219.0
 10
47070.0
 20
-219.0
 10
47070.0
 20
-223.0
 10
48617.0
 20
-223.0
 10
48617.0
 20
2223.0
 10
47334.0
 20
2223.0
 10
47334.0
 20
2227.0
 10
44350.0
 20
2227.0
 10
44350.0
 20
2231.0
 10
35366.0
 20
2231.0
 10
35366.0
 20
2235.0
 10
33000.0
 20
2235.0
 10
33000.0
 20
2000.0
  0
ENDBLK
  5
BD
330
BB
100
AcDbEntity
  8
0
100
AcDbBlockEnd
  0
BLOCK
  5
C0
330
BF
100
AcDbEntity
  8
0
100
AcDbBlockBegin
  2
EE12_BEG_04-WW12_END_04-9
 70
0
 10
0.0
 20
0.0
 30
0.0
  3
EE12_BEG_04-WW12_END_04-9
  1

  0
LWPOLYLINE
  5
C2
330
BF
100
AcDbEntity
  8
0
100
AcDbPolyline
 90
28
 70
0
 10
0.0
 20
0.0
 10
0.0
 20
-188.0
 10
2182.0
 20
-188.0
 10
2182.0
 20
-192.0
 10
11166.0
 20
-192.0
 10
11166.0
 20
-196.0
 10
14150.0
 20
-196.0
 10
14150.0
 20
-200.0
 10
23134.0
 20
-200.0
 10
23134.0
 20
-204.0
 10
26118.0
 20
-204.0
 10
26118.0
 20
-208.0
 10
35102.0
 20
-208.0
 10
35102.0
 20
-212.0
 10
38086.0
 20
-212.0
 10
38086.0
 20
-216.0
 10
47070.0
 20
-216.0
 10
47070.0
 20
-220.0
 10
50054.0
 20
-220.0
 10
50054.0
 20
-224.0
 10
51606.0
 20
-224.0
 10
51606.0
 20
2224.0
 10
50326.0
 20
2224.0
 10
50326.0
 20
2228.0
 10
47342.0
 20
2228.0
 10
47342.0
 20
2232.0
 10
39000.0
 20
2232.0
 10
39000.0
 20
2000.0
  0
ENDBLK
  5
C1
330
BF
100
AcDbEntity
  8
0
100
AcDbBlockEnd
  0
BLOCK
  5
C4
330
C3
100
AcDbEntity
  8
0
100
AcDbBlockBegin
  2
EE12_BEG_05-WW12_END_05-9
 70
0
 10
0.0
 20
0.0
 30
0.0
  3
EE12_BEG_05-WW12_END_05-9
  1

  0
LWPOLYLINE
  5
C6
330
C3
100
AcDbEntity
  8
0
100
AcDbPolyline
 90
28
 70
0
 10
0.0
 20
0.0
 10
0.0
 20
-189.0
 10
2182.0
 20
-189.0
 10
2182.0
 20
-193.0
 10
11166.0
 20
-193.0
 10
11166.0
 20
-197.0
 10
14150.0
 20
-197.0
 10
14150.0
 20
-201.0
 10
23134.0
 20
-201.0
 10
23134.0
 20
-205.0
 10
26118.0
 20
-205.0
 10
26118.0
 20
-209.0
 10
35102.0
 20
-209.0
 10
35102.0
 20
-213.0
 10
38086.0
 20
-213.0
 10
38086.0
 20
-217.0
 10
47070.0
 20
-217.0
 10
47070.0
 20
-221.0
 10
50054.0
 20
-221.0
 10
50054.0
 20
-225.0
 10
51611.0
 20
-225.0
 10
51611.0
 20
2225.0
 10
50334.0
 20
2225.0
 10
50334.0
 20
2229.0
 10
47350.0
 20
2229.0
 10
47350.0
 20
2233.0
 10
39000.0
 20
2233.0
 10
39000.0
 20
2000.0
  0
ENDBLK
  5
C5
330
C3
100
AcDbEntity
  8
0
100
AcDbBlockEnd
  0
BLOCK
  5
C8
330
C7
100
AcDbEntity
  8
0
100
AcDbBlockBegin
  2
EE12_BEG_06-WW12_END_06-9
 70
0
 10
0.0
 20
0.0
 30
0.0
  3
EE12_BEG_06-WW12_END_06-9
  1

  0
LWPOLYLINE
  5
CA
330
C7
100
AcDbEntity
  8
0
100
AcDbPolyline
 90
28
 70
0
 10
0.0
 20
0.0
 10
0.0
 20
-190.0
 10
2182.0
 20
-190.0
 10
2182.0
 20
-194.0
 10
11166.0
 20
-194.0
 10
11166.0
 20
-198.0
 10
14150.0
 20
-198.0
 10
14150.0
 20
-202.0
 10
23134.0
 20
-202.0
 10
23134.0
 20
-206.0
 10
26118.0
 20
-206.0
 10
26118.0
 20
-210.0
 10
35102.0
 20
-210.0
 10
35102.0
 20
-214.0
 10
38086.0
 20
-214.0
 10
38086.0
 20
-218.0
 10
47070.0
 20
-218.0
 10
47070.0
 20
-222.0
 10
50054.0
 20
-222.0
 10
50054.0
 20
-226.0
 10
51616.0
 20
-226.0
 10
51616.0
 20
2226.0
 10
50342.0
 20
2226.0
 10
50342.0
 20
2230.0
 10
47358.0
 20
2230.0
 10
47358.0
 20
2234.0
 10
39000.0
 20
2234.0
 10
39000.0
 20
2000.0
  0
ENDBLK
  5
C9
330
C7
100
AcDbEntity
  8
0
100
AcDbBlockEnd
  0
BLOCK
  5
CC
330
CB
100
AcDbEntity
  8
0
100
AcDbBlockBegin
  2
EE12_BEG_07-WW12_END_07-9
 70
0
 10
0.0
 20
0.0
 30
0.0
  3
EE12_BEG_07-WW12_END_07-9
  1

  0
LWPOLYLINE
  5
CE
330
CB
100
AcDbEntity
  8
0
100
AcDbPolyline
 90
28
 70
0
 10
0.0
 20
0.0
 10
0.0
 20
-191.0
 10
2182.0
 20
-191.0
 10
2182.0
 20
-195.0
 10
11166.0
 20
-195.0
 10
11166.0
 20
-199.0
 10
14150.0
 20
-199.0
 10
14150.0
 20
-203.0
 10
23134.0
 20
-203.0
 10
23134.0
 20
-207.0
 10
26118.0
 20
-207.0
 10
26118.0
 20
-211.0
 10
35102.0
 20
-211.0
 10
35102.0
 20
-215.0
 10
38086.0
 20
-215.0
 10
38086.0
 20
-219.0
 10
47070.0
 20
-219.0
 10
47070.0
 20
-223.0
 10
50054.0
 20
-223.0
 10
50054.0
 20
-227.0
 10
51621.0
 20
-227.0
 10
51621.0
 20
2227.0
 10
50350.0
 20
2227.0
 10
50350.0
 20
2231.0
 10
47366.0
 20
2231.0
 10
47366.0
 20
2235.0
 10
39000.0
 20
2235.0
 10
39000.0
 20
2000.0
  0
ENDBLK
  5
CD
330
CB
100
AcDbEntity
  8
0
100
AcDbBlockEnd
  0
BLOCK
  5
D0
330
CF
100
AcDbEntity
  8
0
100
AcDbBlockBegin
  2
EE12_BEG_04-WW12_END_04-10
 70
0
 10
0.0
 20
0.0
 30
0.0
  3
EE12_BEG_04-WW12_END_04-10
  1

  0
LWPOLYLINE
  5
D2
330
CF
100
AcDbEntity
  8
0
100
AcDbPolyline
 90
28
 70
0
 10
0.0
 20
0.0
 10
0.0
 20
-188.0
 10
8182.0
 20
-188.0
 10
8182.0
 20
-192.0
 10
11166.0
 20
-192.0
 10
11166.0
 20
-196.0
 10
20150.0
 20
-196.0
 10
20150.0
 20
-200.0
 10
23134.0
 20
-200.0
 10
23134.0
 20
-204.0
 10
32118.0
 20
-204.0
 10
32118.0
 20
-208.0
 10
35102.0
 20
-208.0
 10
35102.0
 20
-212.0
 10
44086.0
 20
-212.0
 10
44086.0
 20
-216.0
 10
47070.0
 20
-216.0
 10
47070.0
 20
-220.0
 10
56054.0
 20
-220.0
 10
56054.0
 20
-224.0
 10
59038.0
 20
-224.0
 10
59038.0
 20
-228.0
 10
60610.0
 20
-228.0
 10
60610.0
 20
2228.0
 10
59342.0
 20
2228.0
 10
59342.0
 20
2232.0
 10
57000.0
 20
2232.0
 10
57000.0
 20
2000.0
  0
ENDBLK
  5
D1
330
CF
100
AcDbEntity
  8
0
100
AcDbBlockEnd
  0
BLOCK
  5
D4
330
D3
100
AcDbEntity
  8
0
100
AcDbBlockBegin
  2
EE12_BEG_05-WW12_END_05-10
 70
0
 10
0.0
 20
0.0
 30
0.0
  3
EE12_BEG_05-WW12_END_05-10
  1

  0
LWPOLYLINE
  5
D6
330
D3
100
AcDbEntity
  8
0
100
AcDbPolyline
 90
28
 70
0
 10
0.0
 20
0.0
 10
0.0
 20
-189.0
 10
8182.0
 20
-189.0
 10
8182.0
 20
-193.0
 10
11166.0
 20
-193.0
 10
11166.0
 20
-197.0
 10
20150.0
 20
-197.0
 10
20150.0
 20
-201.0
 10
23134.0
 20
-201.0
 10
23134.0
 20
-205.0
 10
32118.0
 20
-205.0
 10
32118.0
 20
-209.0
 10
35102.0
 20
-209.0
 10
35102.0
 20
-213.0
 10
44086.0
 20
-213.0
 10
44086.0
 20
-217.0
 10
47070.0
 20
-217.0
 10
47070.0
 20
-221.0
 10
56054.0
 20
-221.0
 10
56054.0
 20
-225.0
 10
59038.0
 20
-225.0
 10
59038.0
 20
-229.0
 10
60615.0
 20
-229.0
 10
60615.0
 20
2229.0
 10
59350.0
 20
2229.0
 10
59350.0
 20
2233.0
 10
57000.0
 20
2233.0
 10
57000.0
 20
2000.0
  0
ENDBLK
  5
D5
330
D3
100
AcDbEntity
  8
0
100
AcDbBlockEnd
  0
BLOCK
  5
D8
330
D7
100
AcDbEntity
  8
0
100
AcDbBlockBegin
  2
EE12_BEG_06-WW12_END_06-10
 70
0
 10
0.0
 20
0.0
 30
0.0
  3
EE12_BEG_06-WW12_END_06-10
  1

  0
LWPOLYLINE
  5
DA
330
D7
100
AcDbEntity
  8
0
100
AcDbPolyline
 90
28
 70
0
 10
0.0
 20
0.0
 10
0.0
 20
-190.0
 10
8182.0
 20
-190.0
 10
8182.0
 20
-194.0
 10
11166.0
 20
-194.0
 10
11166.0
 20
-198.0
 10
20150.0
 20
-198.0
 10
20150.0
 20
-202.0
 10
23134.0
 20
-202.0
 10
23134.0
 20
-206.0
 10
32118.0
 20
-206.0
 10
32118.0
 20
-210.0
 10
35102.0
 20
-210.0
 10
35102.0
 20
-214.0
 10
44086.0
 20
-214.0
 10
44086.0
 20
-218.0
 10
47070.0
 20
-218.0
 10
47070.0
 20
-222.0
 10
56054.0
 20
-222.0
 10
56054.0
 20
-226.0
 10
59038.0
 20
-226.0
 10
59038.0
 20
-230.0
 10
60620.0
 20
-230.0
 10
60620.0
 20
2230.0
 10
59358.0
 20
2230.0
 10
59358.0
 20
2234.0
 10
57000.0
 20
2234.0
 10
57000.0
 20
2000.0
  0
ENDBLK
  5
D9
330
D7
100
AcDbEntity
  8
0
100
AcDbBlockEnd
  0
BLOCK
  5
DC
330
DB
100
AcDbEntity
  8
0
100
AcDbBlockBegin
  2
EE12_BEG_07-WW12_END_07-10
 70
0
 10
0.0
 20
0.0
 30
0.0
  3
EE12_BEG_07-WW12_END_07-10
  1

  0
LWPOLYLINE
  5
DE
330
DB
100
AcDbEntity
  8
0
100
AcDbPolyline
 90
28
 70
0
 10
0.0
 20
0.0
 10
0.0
 20
-191.0
 10
8182.0
 20
-191.0
 10
8182.0
 20
-195.0
 10
11166.0
 20
-195.0
 10
11166.0
 20
-199.0
 10
20150.0
 20
-199.0
 10
20150.0
 20
-203.0
 10
23134.0
 20
-203.0
 10
23134.0
 20
-207.0
 10
32118.0
 20
-207.0
 10
32118.0
 20
-211.0
 10
35102.0
 20
-211.0
 10
35102.0
 20
-215.0
 10
44086.0
 20
-215.0
 10
44086.0
 20
-219.0
 10
47070.0
 20
-219.0
 10
47070.0
 20
-223.0
 10
56054.0
 20
-223.0
 10
56054.0
 20
-227.0
 10
59038.0
 20
-227.0
 10
59038.0
 20
-231.0
 10
60625.0
 20
-231.0
 10
60625.0
 20
2231.0
 10
59366.0
 20
2231.0
 10
59366.0
 20
2235.0
 10
57000.0
 20
2235.0
 10
57000.0
 20
2000.0
  0
ENDBLK
  5
DD
330
DB
100
AcDbEntity
  8
0
100
AcDbBlockEnd
  0
BLOCK
  5
E0
330
DF
100
AcDbEntity
  8
0
100
AcDbBlockBegin
  2
EE12_BEG_04-WW12_END_04-11
 70
0
 10
0.0
 20
0.0
 30
0.0
  3
EE12_BEG_04-WW12_END_04-11
  1

  0
LWPOLYLINE
  5
E2
330
DF
100
AcDbEntity
  8
0
100
AcDbPolyline
 90
28
 70
0
 10
0.0
 20
0.0
 10
0.0
 20
-188.0
 10
2182.0
 20
-188.0
 10
2182.0
 20
-192.0
 10
11166.0
 20
-192.0
 10
11166.0
 20
-196.0
 10
14150.0
 20
-196.0
 10
14150.0
 20
-200.0
 10
23134.0
 20
-200.0
 10
23134.0
 20
-204.0
 10
26118.0
 20
-204.0
 10
26118.0
 20
-208.0
 10
35102.0
 20
-208.0
 10
35102.0
 20
-212.0
 10
38086.0
 20
-212.0
 10
38086.0
 20
-216.0
 10
47070.0
 20
-216.0
 10
47070.0
 20
-220.0
 10
50054.0
 20
-220.0
 10
50054.0
 20
-224.0
 10
59038.0
 20
-224.0
 10
59038.0
 20
-228.0
 10
62022.0
 20
-228.0
 10
62022.0
 20
-232.0
 10
63614.0
 20
-232.0
 10
63614.0
 20
2232.0
 10
63000.0
 20
2232.0
 10
63000.0
 20
2000.0
  0
ENDBLK
  5
E1
330
DF
100
AcDbEntity
  8
0
100
AcDbBlockEnd
  0
BLOCK
  5
E4
330
E3
100
AcDbEntity
  8
0
100
AcDbBlockBegin
  2
EE12_BEG_05-WW12_END_05-11
 70
0
 10
0.0
 20
0.0
 30
0.0
  3
EE12_BEG_05-WW12_END_05-11
  1

  0
LWPOLYLINE
  5
E6
330
E3
100
AcDbEntity
  8
0
100
AcDbPolyline
 90
28
 70
0
 10
0.0
 20
0.0
 10
0.0
 20
-189.0
 10
2182.0
 20
-189.0
 10
2182.0
 20
-193.0
 10
11166.0
 20
-193.0
 10
11166.0
 20
-197.0
 10
14150.0
 20
-197.0
 10
14150.0
 20
-201.0
 10
23134.0
 20
-201.0
 10
23134.0
 20
-205.0
 10
26118.0
 20
-205.0
 10
26118.0
 20
-209.0
 10
35102.0
 20
-209.0
 10
35102.0
 20
-213.0
 10
38086.0
 20
-213.0
 10
38086.0
 20
-217.0
 10
47070.0
 20
-217.0
 10
47070.0
 20
-221.0
 10
50054.0
 20
-221.0
 10
50054.0
 20
-225.0
 10
59038.0
 20
-225.0
 10
59038.0
 20
-229.0
 10
62022.0
 20
-229.0
 10
62022.0
 20
-233.0
 10
63619.0
 20
-233.0
 10
63619.0
 20
2233.0
 10
63000.0
 20
2233.0
 10
63000.0
 20
2000.0
  0
ENDBLK
  5
E5
330
E3
100
AcDbEntity
  8
0
100
AcDbBlockEnd
  0
BLOCK
  5
E8
330
E7
100
AcDbEntity
  8
0
100
AcDbBlockBegin
  2
EE12_BEG_06-WW12_END_06-11
 70
0
 10
0.0
 20
0.0
 30
0.0
  3
EE12_BEG_06-WW12_END_06-11
  1

  0
LWPOLYLINE
  5
EA
330
E7
100
AcDbEntity
  8
0
100
AcDbPolyline
 90
28
 70
0
 10
0.0
 20
0.0
 10
0.0
 20
-190.0
 10
2182.0
 20
-190.0
 10
2182.0
 20
-194.0
 10
11166.0
 20
-194.0
 10
11166.0
 20
-198.0
 10
14150.0
 20
-198.0
 10
14150.0
 20
-202.0
 10
23134.0
 20
-202.0
 10
23134.0
 20
-206.0
 10
26118.0
 20
-206.0
 10
26118.0
 20
-210.0
 10
35102.0
 20
-210.0
 10
35102.0
 20
-214.0
 10
38086.0
 20
-214.0
 10
38086.0
 20
-218.0
 10
47070.0
 20
-218.0
 10
47070.0
 20
-222.0
 10
50054.0
 20
-222.0
 10
50054.0
 20
-226.0
 10
59038.0
 20
-226.0
 10
59038.0
 20
-230.0
 10
62022.0
 20
-230.0
 10
62022.0
 20
-234.0
 10
63624.0
 20
-234.0
 10
63624.0
 20
2234.0
 10
63000.0
 20
2234.0
 10
63000.0
 20
2000.0
  0
ENDBLK
  5
E9
330
E7
100
AcDbEntity
  8
0
100
AcDbBlockEnd
  0
BLOCK
  5
EC
330
EB
100
AcDbEntity
  8
0
100
AcDbBlockBegin
  2
EE12_BEG_07-WW12_END_07-11
 70
0
 10
0.0
 20
0.0
 30
0.0
  3
EE12_BEG_07-WW12_END_07-11
  1

  0
LWPOLYLINE
  5
EE
330
EB
100
AcDbEntity
  8
0
100
AcDbPolyline
 90
28
 70
0
 10
0.0
 20
0.0
 10
0.0
 20
-191.0
 10
2182.0
 20
-191.0
 10
2182.0
 20
-195.0
 10
11166.0
 20
-195.0
 10
11166.0
 20
-199.0
 10
14150.0
 20
-199.0
 10
14150.0
 20
-203.0
 10
23134.0
 20
-203.0
 10
23134.0
 20
-207.0
 10
26118.0
 20
-207.0
 10
26118.0
 20
-211.0
 10
35102.0
 20
-211.0
 10
35102.0
 20
-215.0
 10
38086.0
 20
-215.0
 10
38086.0
 20
-219.0
 10
47070.0
 20
-219.0
 10
47070.0
 20
-223.0
 10
50054.0
 20
-223.0
 10
50054.0
 20
-227.0
 10
59038.0
 20
-227.0
 10
59038.0
 20
-231.0
 10
62022.0
 20
-231.0
 10
62022.0
 20
-235.0
 10
63629.0
 20
-235.0
 10
63629.0
 20
2235.0
 10
63000.0
 20
2235.0
 10
63000.0
 20
2000.0
  0
ENDBLK
  5
ED
330
EB
100
AcDbEntity
  8
0
100
AcDbBlockEnd
  0
BLOCK
  5
F0
330
EF
100
AcDbEntity
  8
0
100
AcDbBlockBegin
  2
WW12_BEG_04-EE12_END_04-0
 70
0
 10
0.0
 20
0.0
 30
0.0
  3
WW12_BEG_04-EE12_END_04-0
  1

  0
LWPOLYLINE
  5
F2
330
EF
100
AcDbEntity
  8
0
100
AcDbPolyline
 90
28
 70
0
 10
0.0
 20
0.0
 10
0.0
 20
188.0
 10
-570.0
 20
188.0
 10
-570.0
 20
-2188.0
 10
818.0
 20
-2188.0
 10
818.0
 20
-2192.0
 10
3802.0
 20
-2192.0
 10
3802.0
 20
-2196.0
 10
12786.0
 20
-2196.0
 10
12786.0
 20
-2200.0
 10
15770.0
 20
-2200.0
 10
15770.0
 20
-2204.0
 10
24754.0
 20
-2204.0
 10
24754.0
 20
-2208.0
 10
27738.0
 20
-2208.0
 10
27738.0
 20
-2212.0
 10
36722.0
 20
-2212.0
 10
36722.0
 20
-2216.0
 10
39706.0
 20
-2216.0
 10
39706.0
 20
-2220.0
 10
48690.0
 20
-2220.0
 10
48690.0
 20
-2224.0
 10
51674.0
 20
-2224.0
 10
51674.0
 20
-2228.0
 10
60658.0
 20
-2228.0
 10
60658.0
 20
-2232.0
 10
63000.0
 20
-2232.0
 10
63000.0
 20
-2000.0
  0
ENDBLK
  5
F1
330
EF
100
AcDbEntity
  8
0
100
AcDbBlockEnd
  0
BLOCK
  5
F4
330
F3
100
AcDbEntity
  8
0
100
AcDbBlockBegin
  2
WW12_BEG_05-EE12_END_05-0
 70
0
 10
0.0
 20
0.0
 30
0.0
  3
WW12_BEG_05-EE12_END_05-0
  1

  0
LWPOLYLINE
  5
F6
330
F3
100
AcDbEntity
  8
0
100
AcDbPolyline
 90
28
 70
0
 10
0.0
 20
0.0
 10
0.0
 20
189.0
 10
-575.0
 20
189.0
 10
-575.0
 20
-2189.0
 10
810.0
 20
-2189.0
 10
810.0
 20
-2193.0
 10
3794.0
 20
-2193.0
 10
3794.0
 20
-2197.0
 10
12778.0
 20
-2197.0
 10
12778.0
 20
-2201.0
 10
15762.0
 20
-2201.0
 10
15762.0
 20
-2205.0
 10
24746.0
 20
-2205.0
 10
24746.0
 20
-2209.0
 10
27730.0
 20
-2209.0
 10
27730.0
 20
-2213.0
 10
36714.0
 20
-2213.0
 10
36714.0
 20
-2217.0
 10
39698.0
 20
-2217.0
 10
39698.0
 20
-2221.0
 10
48682.0
 20
-2221.0
 10
48682.0
 20
-2225.0
 10
51666.0
 20
-2225.0
 10
51666.0
 20
-2229.0
 10
60650.0
 20
-2229.0
 10
60650.0
 20
-2233.0
 10
63000.0
 20
-2233.0
 10
63000.0
 20
-2000.0
  0
ENDBLK
  5
F5
330
F3
100
AcDbEntity
  8
0
100
AcDbBlockEnd
  0
BLOCK
  5
F8
330
F7
100
AcDbEntity
  8
0
100
AcDbBlockBegin
  2
WW12_BEG_06-EE12_END_06-0
 70
0
 10
0.0
 20
0.0
 30
0.0
  3
WW12_BEG_06-EE12_END_06-0
  1

  0
LWPOLYLINE
  5
FA
330
F7
100
AcDbEntity
  8
0
100
AcDbPolyline
 90
28
 70
0
 10
0.0
 20
0.0
 10
0.0
 20
190.0
 10
-580.0
 20
190.0
 10
-580.0
 20
-2190.0
 10
802.0
 20
-2190.0
 10
802.0
 20
-2194.0
 10
3786.0
 20
-2194.0
 10
3786.0
 20
-2198.0
 10
12770.0
 20
-2198.0
 10
12770.0
 20
-2202.0
 10
15754.0
 20
-2202.0
 10
15754.0
 20
-2206.0
 10
24738.0
 20
-2206.0
 10
24738.0
 20
-2210.0
 10
27722.0
 20
-2210.0
 10
27722.0
 20
-2214.0
 10
36706.0
 20
-2214.0
 10
36706.0
 20
-2218.0
 10
39690.0
 20
-2218.0
 10
39690.0
 20
-2222.0
 10
48674.0
 20
-2222.0
 10
48674.0
 20
-2226.0
 10
51658.0
 20
-2226.0
 10
51658.0
 20
-2230.0
 10
60642.0
 20
-2230.0
 10
60642.0
 20
-2234.0
 10
63000.0
 20
-2234.0
 10
63000.0
 20
-2000.0
  0
ENDBLK
  5
F9
330
F7
100
AcDbEntity
  8
0
100
AcDbBlockEnd
  0
BLOCK
  5
FC
330
FB
100
AcDbEntity
  8
0
100
AcDbBlockBegin
  2
WW12_BEG_07-EE12_END_07-0
 70
0
 10
0.0
 20
0.0
 30
0.0
  3
WW12_BEG_07-EE12_END_07-0
  1

  0
LWPOLYLINE
  5
FE
330
FB
100
AcDbEntity
  8
0
100
AcDbPolyline
 90
28
 70
0
 10
0.0
 20
0.0
 10
0.0
 20
191.0
 10
-585.0
 20
191.0
 10
-585.0
 20
-2191.0
 10
794.0
 20
-2191.0
 10
794.0
 20
-2195.0
 10
3778.0
 20
-2195.0
 10
3778.0
 20
-2199.0
 10
12762.0
 20
-2199.0
 10
12762.0
 20
-2203.0
 10
15746.0
 20
-2203.0
 10
15746.0
 20
-2207.0
 10
24730.0
 20
-2207.0
 10
24730.0
 20
-2211.0
 10
27714.0
 20
-2211.0
 10
27714.0
 20
-2215.0
 10
36698.0
 20
-2215.0
 10
36698.0
 20
-2219.0
 10
39682.0
 20
-2219.0
 10
39682.0
 20
-2223.0
 10
48666.0
 20
-2223.0
 10
48666.0
 20
-2227.0
 10
51650.0
 20
-2227.0
 10
51650.0
 20
-2231.0
 10
60634.0
 20
-2231.0
 10
60634.0
 20
-2235.0
 10
63000.0
 20
-2235.0
 10
63000.0
 20
-2000.0
  0
ENDBLK
  5
FD
330
FB
100
AcDbEntity
  8
0
100
AcDbBlockEnd
  0
BLOCK
  5
100
330
FF
100
AcDbEntity
  8
0
100
AcDbBlockBegin
  2
WW12_BEG_04-EE12_END_04-1
 70
0
 10
0.0
 20
0.0
 30
0.0
  3
WW12_BEG_04-EE12_END_04-1
  1

  0
LWPOLYLINE
  5
102
330
FF
100
AcDbEntity
  8
0
100
AcDbPolyline
 90
28
 70
0
 10
0.0
 20
0.0
 10
0.0
 20
188.0
 10
-2182.0
 20
188.0
 10
-2182.0
 20
192.0
 10
-3574.0
 20
192.0
 10
-3574.0
 20
-2192.0
 10
-2198.0
 20
-2192.0
 10
-2198.0
 20
-2196.0
 10
786.0
 20
-2196.0
 10
786.0
 20
-2200.0
 10
9770.0
 20
-2200.0
 10
9770.0
 20
-2204.0
 10
12754.0
 20
-2204.0
 10
12754.0
 20
-2208.0
 10
21738.0
 20
-2208.0
 10
21738.0
 20
-2212.0
 10
24722.0
 20
-2212.0
 10
24722.0
 20
-2216.0
 10
33706.0
 20
-2216.0
 10
33706.0
 20
-2220.0
 10
36690.0
 20
-2220.0
 10
36690.0
 20
-2224.0
 10
45674.0
 20
-2224.0
 10
45674.0
 20
-2228.0
 10
48658.0
 20
-2228.0
 10
48658.0
 20
-2232.0
 10
57000.0
 20
-2232.0
 10
57000.0
 20
-2000.0
  0
ENDBLK
  5
101
330
FF
100
AcDbEntity
  8
0
100
AcDbBlockEnd
  0
BLOCK
  5
104
330
103
100
AcDbEntity
  8
0
100
AcDbBlockBegin
  2
WW12_BEG_05-EE12_END_05-1
 70
0
 10
0.0
 20
0.0
 30
0.0
  3
WW12_BEG_05-EE12_END_05-1
  1

  0
LWPOLYLINE
  5
106
330
103
100
AcDbEntity
  8
0
100
AcDbPolyline
 90
28
 70
0
 10
0.0
 20
0.0
 10
0.0
 20
189.0
 10
-2182.0
 20
189.0
 10
-2182.0
 20
193.0
 10
-3579.0
 20
193.0
 10
-3579.0
 20
-2193.0
 10
-2206.0
 20
-2193.0
 10
-2206.0
 20
-2197.0
 10
778.0
 20
-2197.0
 10
778.0
 20
-2201.0
 10
9762.0
 20
-2201.0
 10
9762.0
 20
-2205.0
 10
12746.0
 20
-2205.0
 10
12746.0
 20
-2209.0
 10
21730.0
 20
-2209.0
 10
21730.0
 20
-2213.0
 10
24714.0
 20
-2213.0
 10
24714.0
 20
-2217.0
 10
33698.0
 20
-2217.0
 10
33698.0
 20
-2221.0
 10
36682.0
 20
-2221.0
 10
36682.0
 20
-2225.0
 10
45666.0
 20
-2225.0
 10
45666.0
 20
-2229.0
 10
48650.0
 20
-2229.0
 10
48650.0
 20
-2233.0
 10
57000.0
 20
-2233.0
 10
57000.0
 20
-2000.0
  0
ENDBLK
  5
105
330
103
100
AcDbEntity
  8
0
100
AcDbBlockEnd
  0
BLOCK
  5
108
330
107
100
AcDbEntity
  8
0
100
AcDbBlockBegin
  2
WW12_BEG_06-EE12_END_06-1
 70
0
 10
0.0
 20
0.0
 30
0.0
  3
WW12_BEG_06-EE12_END_06-1
  1

  0
LWPOLYLINE
  5
10A
330
107
100
AcDbEntity
  8
0
100
AcDbPolyline
 90
28
 70
0
 10
0.0
 20
0.0
 10
0.0
 20
190.0
 10
-2182.0
 20
190.0
 10
-2182.0
 20
194.0
 10
-3584.0
 20
194.0
 10
-3584.0
 20
-2194.0
 10
-2214.0
 20
-2194.0
 10
-2214.0
 20
-2198.0
 10
770.0
 20
-2198.0
 10
770.0
 20
-2202.0
 10
9754.0
 20
-2202.0
 10
9754.0
 20
-2206.0
 10
12738.0
 20
-2206.0
 10
12738.0
 20
-2210.0
 10
21722.0
 20
-2210.0
 10
21722.0
 20
-2214.0
 10
24706.0
 20
-2214.0
 10
24706.0
 20
-2218.0
 10
33690.0
 20
-2218.0
 10
33690.0
 20
-2222.0
 10
36674.0
 20
-2222.0
 10
36674.0
 20
-2226.0
 10
45658.0
 20
-2226.0
 10
45658.0
 20
-2230.0
 10
48642.0
 20
-2230.0
 10
48642.0
 20
-2234.0
 10
57000.0
 20
-2234.0
 10
57000.0
 20
-2000.0
  0
ENDBLK
  5
109
330
107
100
AcDbEntity
  8
0
100
AcDbBlockEnd
  0
BLOCK
  5
10C
330
10B
100
AcDbEntity
  8
0
100
AcDbBlockBegin
  2
WW12_BEG_07-EE12_END_07-1
 70
0
 10
0.0
 20
0.0
 30
0.0
  3
WW12_BEG_07-EE12_END_07-1
  1

  0
LWPOLYLINE
  5
10E
330
10B
100
AcDbEntity
  8
0
100
AcDbPolyline
 90
28
 70
0
 10
0.0
 20
0.0
 10
0.0
 20
191.0
 10
-2182.0
 20
191.0
 10
-2182.0
 20
195.0
 10
-3589.0
 20
195.0
 10
-3589.0
 20
-2195.0
 10
-2222.0
 20
-2195.0
 10
-2222.0
 20
-2199.0
 10
762.0
 20
-2199.0
 10
762.0
 20
-2203.0
 10
9746.0
 20
-2203.0
 10
9746.0
 20
-2207.0
 10
12730.0
 20
-2207.0
 10
12730.0
 20
-2211.0
 10
21714.0
 20
-2211.0
 10
21714.0
 20
-2215.0
 10
24698.0
 20
-2215.0
 10
24698.0
 20
-2219.0
 10
33682.0
 20
-2219.0
 10
33682.0
 20
-2223.0
 10
36666.0
 20
-2223.0
 10
36666.0
 20
-2227.0
 10
45650.0
 20
-2227.0
 10
45650.0
 20
-2231.0
 10
48634.0
 20
-2231.0
 10
48634.0
 20
-2235.0
 10
57000.0
 20
-2235.0
 10
57000.0
 20
-2000.0
  0
ENDBLK
  5
10D
330
10B
100
AcDbEntity
  8
0
100
AcDbBlockEnd
  0
BLOCK
  5
110
330
10F
100
AcDbEntity
  8
0
100
AcDbBlockBegin
  2
WW12_BEG_04-EE12_END_04-2
 70
0
 10
0.0
 20
0.0
 30
0.0
  3
WW12_BEG_04-EE12_END_04-2
  1

  0
LWPOLYLINE
  5
112
330
10F
100
AcDbEntity
  8
0
100
AcDbPolyline
 90
28
 70
0
 10
0.0
 20
0.0
 10
0.0
 20
188.0
 10
-8182.0
 20
188.0
 10
-8182.0
 20
192.0
 10
-11166.0
 20
192.0
 10
-11166.0
 20
196.0
 10
-12578.0
 20
196.0
 10
-12578.0
 20
-2196.0
 10
-11214.0
 20
-2196.0
 10
-11214.0
 20
-2200.0
 10
-8230.0
 20
-2200.0
 10
-8230.0
 20
-2204.0
 10
754.0
 20
-2204.0
 10
754.0
 20
-2208.0
 10
3738.0
 20
-2208.0
 10
3738.0
 20
-2212.0
 10
12722.0
 20
-2212.0
 10
12722.0
 20
-2216.0
 10
15706.0
 20
-2216.0
 10
15706.0
 20
-2220.0
 10
24690.0
 20
-2220.0
 10
24690.0
 20
-2224.0
 10
27674.0
 20
-2224.0
 10
27674.0
 20
-2228.0
 10
36658.0
 20
-2228.0
 10
36658.0
 20
-2232.0
 10
39000.0
 20
-2232.0
 10
39000.0
 20
-2000.0
  0
ENDBLK
  5
111
330
10F
100
AcDbEntity
  8
0
100
AcDbBlockEnd
  0
BLOCK
  5
114
330
113
100
AcDbEntity
  8
0
100
AcDbBlockBegin
  2
WW12_BEG_05-EE12_END_05-2
 70
0
 10
0.0
 20
0.0
 30
0.0
  3
WW12_BEG_05-EE12_END_05-2
  1

  0
LWPOLYLINE
  5
116
330
113
100
AcDbEntity
  8
0
100
AcDbPolyline
 90
28
 70
0
 10
0.0
 20
0.0
 10
0.0
 20
189.0
 10
-8182.0
 20
189.0
 10
-8182.0
 20
193.0
 10
-11166.0
 20
193.0
 10
-11166.0
 20
197.0
 10
-12583.0
 20
197.0
 10
-12583.0
 20
-2197.0
 10
-11222.0
 20
-2197.0
 10
-11222.0
 20
-2201.0
 10
-8238.0
 20
-2201.0
 10
-8238.0
 20
-2205.0
 10
746.0
 20
-2205.0
 10
746.0
 20
-2209.0
 10
3730.0
 20
-2209.0
 10
3730.0
 20
-2213.0
 10
12714.0
 20
-2213.0
 10
12714.0
 20
-2217.0
 10
15698.0
 20
-2217.0
 10
15698.0
 20
-2221.0
 10
24682.0
 20
-2221.0
 10
24682.0
 20
-2225.0
 10
27666.0
 20
-2225.0
 10
27666.0
 20
-2229.0
 10
36650.0
 20
-2229.0
 10
36650.0
 20
-2233.0
 10
39000.0
 20
-2233.0
 10
39000.0
 20
-2000.0
  0
ENDBLK
  5
115
330
113
100
AcDbEntity
  8
0
100
AcDbBlockEnd
  0
BLOCK
  5
118
330
117
100
AcDbEntity
  8
0
100
AcDbBlockBegin
  2
WW12_BEG_06-EE12_END_06-2
 70
0
 10
0.0
 20
0.0
 30
0.0
  3
WW12_BEG_06-EE12_END_06-2
  1

  0
LWPOLYLINE
  5
11A
330
117
100
AcDbEntity
  8
0
100
AcDbPolyline
 90
28
 70
0
 10
0.0
 20
0.0
 10
0.0
 20
190.0
 10
-8182.0
 20
190.0
 10
-8182.0
 20
194.0
 10
-11166.0
 20
194.0
 10
-11166.0
 20
198.0
 10
-12588.0
 20
198.0
 10
-12588.0
 20
-2198.0
 10
-11230.0
 20
-2198.0
 10
-11230.0
 20
-2202.0
 10
-8246.0
 20
-2202.0
 10
-8246.0
 20
-2206.0
 10
738.0
 20
-2206.0
 10
738.0
 20
-2210.0
 10
3722.0
 20
-2210.0
 10
3722.0
 20
-2214.0
 10
12706.0
 20
-2214.0
 10
12706.0
 20
-2218.0
 10
15690.0
 20
-2218.0
 10
15690.0
 20
-2222.0
 10
24674.0
 20
-2222.0
 10
24674.0
 20
-2226.0
 10
27658.0
 20
-2226.0
 10
27658.0
 20
-2230.0
 10
36642.0
 20
-2230.0
 10
36642.0
 20
-2234.0
 10
39000.0
 20
-2234.0
 10
39000.0
 20
-2000.0
  0
ENDBLK
  5
119
330
117
100
AcDbEntity
  8
0
100
AcDbBlockEnd
  0
BLOCK
  5
11C
330
11B
100
AcDbEntity
  8
0
100
AcDbBlockBegin
  2
WW12_BEG_07-EE12_END_07-2
 70
0
 10
0.0
 20
0.0
 30
0.0
  3
WW12_BEG_07-EE12_END_07-2
  1

  0
LWPOLYLINE
  5
11E
330
11B
100
AcDbEntity
  8
0
100
AcDbPolyline
 90
28
 70
0
 10
0.0
 20
0.0
 10
0.0
 20
191.0
 10
-8182.0
 20
191.0
 10
-8182.0
 20
195.0
 10
-11166.0
 20
195.0
 10
-11166.0
 20
199.0
 10
-12593.0
 20
199.0
 10
-12593.0
 20
-2199.0
 10
-11238.0
 20
-2199.0
 10
-11238.0
 20
-2203.0
 10
-8254.0
 20
-2203.0
 10
-8254.0
 20
-2207.0
 10
730.0
 20
-2207.0
 10
730.0
 20
-2211.0
 10
3714.0
 20
-2211.0
 10
3714.0
 20
-2215.0
 10
12698.0
 20
-2215.0
 10
12698.0
 20
-2219.0
 10
15682.0
 20
-2219.0
 10
15682.0
 20
-2223.0
 10
24666.0
 20
-2223.0
 10
24666.0
 20
-2227.0
 10
27650.0
 20
-2227.0
 10
27650.0
 20
-2231.0
 10
36634.0
 20
-2231.0
 10
36634.0
 20
-2235.0
 10
39000.0
 20
-2235.0
 10
39000.0
 20
-2000.0
  0
ENDBLK
  5
11D
330
11B
100
AcDbEntity
  8
0
100
AcDbBlockEnd
  0
BLOCK
  5
120
330
11F
100
AcDbEntity
  8
0
100
AcDbBlockBegin
  2
WW12_BEG_04-EE12_END_04-3
 70
0
 10
0.0
 20
0.0
 30
0.0
  3
WW12_BEG_04-EE12_END_04-3
  1

  0
LWPOLYLINE
  5
122
330
11F
100
AcDbEntity
  8
0
100
AcDbPolyline
 90
28
 70
0
 10
0.0
 20
0.0
 10
0.0
 20
188.0
 10
-2182.0
 20
188.0
 10
-2182.0
 20
192.0
 10
-11166.0
 20
192.0
 10
-11166.0
 20
196.0
 10
-14150.0
 20
196.0
 10
-14150.0
 20
200.0
 10
-15582.0
 20
200.0
 10
-15582.0
 20
-2200.0
 10
-14230.0
 20
-2200.0
 10
-14230.0
 20
-2204.0
 10
-11246.0
 20
-2204.0
 10
-11246.0
 20
-2208.0
 10
-2262.0
 20
-2208.0
 10
-2262.0
 20
-2212.0
 10
722.0
 20
-2212.0
 10
722.0
 20
-2216.0
 10
9706.0
 20
-2216.0
 10
9706.0
 20
-2220.0
 10
12690.0
 20
-2220.0
 10
12690.0
 20
-2224.0
 10
21674.0
 20
-2224.0
 10
21674.0
 20
-2228.0
 10
24658.0
 20
-2228.0
 10
24658.0
 20
-2232.0
 10
33000.0
 20
-2232.0
 10
33000.0
 20
-2000.0
  0
ENDBLK
  5
121
330
11F
100
AcDbEntity
  8
0
100
AcDbBlockEnd
  0
BLOCK
  5
124
330
123
100
AcDbEntity
  8
0
100
AcDbBlockBegin
  2
WW12_BEG_05-EE12_END_05-3
 70
0
 10
0.0
 20
0.0
 30
0.0
  3
WW12_BEG_05-EE12_END_05-3
  1

  0
LWPOLYLINE
  5
126
330
123
100
AcDbEntity
  8
0
100
AcDbPolyline
 90
28
 70
0
 10
0.0
 20
0.0
 10
0.0
 20
189.0
 10
-2182.0
 20
189.0
 10
-2182.0
 20
193.0
 10
-11166.0
 20
193.0
 10
-11166.0
 20
197.0
 10
-14150.0
 20
197.0
 10
-14150.0
 20
201.0
 10
-15587.0
 20
201.0
 10
-15587.0
 20
-2201.0
 10
-14238.0
 20
-2201.0
 10
-14238.0
 20
-2205.0
 10
-11254.0
 20
-2205.0
 10
-11254.0
 20
-2209.0
 10
-2270.0
 20
-2209.0
 10
-2270.0
 20
-2213.0
 10
714.0
 20
-2213.0
 10
714.0
 20
-2217.0
 10
9698.0
 20
-2217.0
 10
9698.0
 20
-2221.0
 10
12682.0
 20
-2221.0
 10
12682.0
 20
-2225.0
 10
21666.0
 20
-2225.0
 10
21666.0
 20
-2229.0
 10
24650.0
 20
-2229.0
 10
24650.0
 20
-2233.0
 10
33000.0
 20
-2233.0
 10
33000.0
 20
-2000.0
  0
ENDBLK
  5
125
330
123
100
AcDbEntity
  8
0
100
AcDbBlockEnd
  0
BLOCK
  5
128
330
127
100
AcDbEntity
  8
0
100
AcDbBlockBegin
  2
WW12_BEG_06-EE12_END_06-3
 70
0
 10
0.0
 20
0.0
 30
0.0
  3
WW12_BEG_06-EE12_END_06-3
  1

  0
LWPOLYLINE
  5
12A
330
127
100
AcDbEntity
  8
0
100
AcDbPolyline
 90
28
 70
0
 10
0.0
 20
0.0
 10
0.0
 20
190.0
 10
-2182.0
 20
190.0
 10
-2182.0
 20
194.0
 10
-11166.0
 20
194.0
 10
-11166.0
 20
198.0
 10
-14150.0
 20
198.0
 10
-14150.0
 20
202.0
 10
-15592.0
 20
202.0
 10
-15592.0
 20
-2202.0
 10
-14246.0
 20
-2202.0
 10
-14246.0
 20
-2206.0
 10
-11262.0
 20
-2206.0
 10
-11262.0
 20
-2210.0
 10
-2278.0
 20
-2210.0
 10
-2278.0
 20
-2214.0
 10
706.0
 20
-2214.0
 10
706.0
 20
-2218.0
 10
9690.0
 20
-2218.0
 10
9690.0
 20
-2222.0
 10
12674.0
 20
-2222.0
 10
12674.0
 20
-2226.0
 10
21658.0
 20
-2226.0
 10
21658.0
 20
-2230.0
 10
24642.0
 20
-2230.0
 10
24642.0
 20
-2234.0
 10
33000.0
 20
-2234.0
 10
33000.0
 20
-2000.0
  0
ENDBLK
  5
129
330
127
100
AcDbEntity
  8
0
100
AcDbBlockEnd
  0
BLOCK
  5
12C
330
12B
100
AcDbEntity
  8
0
100
AcDbBlockBegin
  2
WW12_BEG_07-EE12_END_07-3
 70
0
 10
0.0
 20
0.0
 30
0.0
  3
WW12_BEG_07-EE12_END_07-3
  1

  0
LWPOLYLINE
  5
12E
330
12B
100
AcDbEntity
  8
0
100
AcDbPolyline
 90
28
 70
0
 10
0.0
 20
0.0
 10
0.0
 20
191.0
 10
-2182.0
 20
191.0
 10
-2182.0
 20
195.0
 10
-11166.0
 20
195.0
 10
-11166.0
 20
199.0
 10
-14150.0
 20
199.0
 10
-14150.0
 20
203.0
 10
-15597.0
 20
203.0
 10
-15597.0
 20
-2203.0
 10
-14254.0
 20
-2203.0
 10
-14254.0
 20
-2207.0
 10
-11270.0
 20
-2207.0
 10
-11270.0
 20
-2211.0
 10
-2286.0
 20
-2211.0
 10
-2286.0
 20
-2215.0
 10
698.0
 20
-2215.0
 10
698.0
 20
-2219.0
 10
9682.0
 20
-2219.0
 10
9682.0
 20
-2223.0
 10
12666.0
 20
-2223.0
 10
12666.0
 20
-2227.0
 10
21650.0
 20
-2227.0
 10
21650.0
 20
-2231.0
 10
24634.0
 20
-2231.0
 10
24634.0
 20
-2235.0
 10
33000.0
 20
-2235.0
 10
33000.0
 20
-2000.0
  0
ENDBLK
  5
12D
330
12B
100
AcDbEntity
  8
0
100
AcDbBlockEnd
  0
BLOCK
  5
130
330
12F
100
AcDbEntity
  8
0
100
AcDbBlockBegin
  2
WW12_BEG_04-EE12_END_04-4
 70
0
 10
0.0
 20
0.0
 30
0.0
  3
WW12_BEG_04-EE12_END_04-4
  1

  0
LWPOLYLINE
  5
132
330
12F
100
AcDbEntity
  8
0
100
AcDbPolyline
 90
28
 70
0
 10
0.0
 20
0.0
 10
0.0
 20
188.0
 10
-8182.0
 20
188.0
 10
-8182.0
 20
192.0
 10
-11166.0
 20
192.0
 10
-11166.0
 20
196.0
 10
-20150.0
 20
196.0
 10
-20150.0
 20
200.0
 10
-23134.0
 20
200.0
 10
-23134.0
 20
204.0
 10
-24586.0
 20
204.0
 10
-24586.0
 20
-2204.0
 10
-23246.0
 20
-2204.0
 10
-23246.0
 20
-2208.0
 10
-20262.0
 20
-2208.0
 10
-20262.0
 20
-2212.0
 10
-11278.0
 20
-2212.0
 10
-11278.0
 20
-2216.0
 10
-8294.0
 20
-2216.0
 10
-8294.0
 20
-2220.0
 10
690.0
 20
-2220.0
 10
690.0
 20
-2224.0
 10
3674.0
 20
-2224.0
 10
3674.0
 20
-2228.0
 10
12658.0
 20
-2228.0
 10
12658.0
 20
-2232.0
 10
15000.0
 20
-2232.0
 10
15000.0
 20
-2000.0
  0
ENDBLK
  5
131
330
12F
100
AcDbEntity
  8
0
100
AcDbBlockEnd
  0
BLOCK
  5
134
330
133
100
AcDbEntity
  8
0
100
AcDbBlockBegin
  2
WW12_BEG_05-EE12_END_05-4
 70
0
 10
0.0
 20
0.0
 30
0.0
  3
WW12_BEG_05-EE12_END_05-4
  1

  0
LWPOLYLINE
  5
136
330
133
100
AcDbEntity
  8
0
100
AcDbPolyline
 90
28
 70
0
 10
0.0
 20
0.0
 10
0.0
 20
189.0
 10
-8182.0
 20
189.0
 10
-8182.0
 20
193.0
 10
-11166.0
 20
193.0
 10
-11166.0
 20
197.0
 10
-20150.0
 20
197.0
 10
-20150.0
 20
201.0
 10
-23134.0
 20
201.0
 10
-23134.0
 20
205.0
 10
-24591.0
 20
205.0
 10
-24591.0
 20
-2205.0
 10
-23254.0
 20
-2205.0
 10
-23254.0
 20
-2209.0
 10
-20270.0
 20
-2209.0
 10
-20270.0
 20
-2213.0
 10
-11286.0
 20
-2213.0
 10
-11286.0
 20
-2217.0
 10
-8302.0
 20
-2217.0
 10
-8302.0
 20
-2221.0
 10
682.0
 20
-2221.0
 10
682.0
 20
-2225.0
 10
3666.0
 20
-2225.0
 10
3666.0
 20
-2229.0
 10
12650.0
 20
-2229.0
 10
12650.0
 20
-2233.0
 10
15000.0
 20
-2233.0
 10
15000.0
 20
-2000.0
  0
ENDBLK
  5
135
330
133
100
AcDbEntity
  8
0
100
AcDbBlockEnd
  0
BLOCK
  5
138
330
137
100
AcDbEntity
  8
0
100
AcDbBlockBegin
  2
WW12_BEG_06-EE12_END_06-4
 70
0
 10
0.0
 20
0.0
 30
0.0
  3
WW12_BEG_06-EE12_END_06-4
  1

  0
LWPOLYLINE
  5
13A
330
137
100
AcDbEntity
  8
0
100
AcDbPolyline
 90
28
 70
0
 10
0.0
 20
0.0
 10
0.0
 20
190.0
 10
-8182.0
 20
190.0
 10
-8182.0
 20
194.0
 10
-11166.0
 20
194.0
 10
-11166.0
 20
198.0
 10
-20150.0
 20
198.0
 10
-20150.0
 20
202.0
 10
-23134.0
 20
202.0
 10
-23134.0
 20
206.0
 10
-24596.0
 20
206.0
 10
-24596.0
 20
-2206.0
 10
-23262.0
 20
-2206.0
 10
-23262.0
 20
-2210.0
 10
-20278.0
 20
-2210.0
 10
-20278.0
 20
-2214.0
 10
-11294.0
 20
-2214.0
 10
-11294.0
 20
-2218.0
 10
-8310.0
 20
-2218.0
 10
-8310.0
 20
-2222.0
 10
674.0
 20
-2222.0
 10
674.0
 20
-2226.0
 10
3658.0
 20
-2226.0
 10
3658.0
 20
-2230.0
 10
12642.0
 20
-2230.0
 10
12642.0
 20
-2234.0
 10
15000.0
 20
-2234.0
 10
15000.0
 20
-2000.0
  0
ENDBLK
  5
139
330
137
100
AcDbEntity
  8
0
100
AcDbBlockEnd
  0
BLOCK
  5
13C
330
13B
100
AcDbEntity
  8
0
100
AcDbBlockBegin
  2
WW12_BEG_07-EE12_END_07-4
 70
0
 10
0.0
 20
0.0
 30
0.0
  3
WW12_BEG_07-EE12_END_07-4
  1

  0
LWPOLYLINE
  5
13E
330
13B
100
AcDbEntity
  8
0
100
AcDbPolyline
 90
28
 70
0
 10
0.0
 20
0.0
 10
0.0
 20
191.0
 10
-8182.0
 20
191.0
 10
-8182.0
 20
195.0
 10
-11166.0
 20
195.0
 10
-11166.0
 20
199.0
 10
-20150.0
 20
199.0
 10
-20150.0
 20
203.0
 10
-23134.0
 20
203.0
 10
-23134.0
 20
207.0
 10
-24601.0
 20
207.0
 10
-24601.0
 20
-2207.0
 10
-23270.0
 20
-2207.0
 10
-23270.0
 20
-2211.0
 10
-20286.0
 20
-2211.0
 10
-20286.0
 20
-2215.0
 10
-11302.0
 20
-2215.0
 10
-11302.0
 20
-2219.0
 10
-8318.0
 20
-2219.0
 10
-8318.0
 20
-2223.0
 10
666.0
 20
-2223.0
 10
666.0
 20
-2227.0
 10
3650.0
 20
-2227.0
 10
3650.0
 20
-2231.0
 10
12634.0
 20
-2231.0
 10
12634.0
 20
-2235.0
 10
15000.0
 20
-2235.0
 10
15000.0
 20
-2000.0
  0
ENDBLK
  5
13D
330
13B
100
AcDbEntity
  8
0
100
AcDbBlockEnd
  0
BLOCK
  5
140
330
13F
100
AcDbEntity
  8
0
100
AcDbBlockBegin
  2
WW12_BEG_04-EE12_END_04-5
 70
0
 10
0.0
 20
0.0
 30
0.0
  3
WW12_BEG_04-EE12_END_04-5
  1

  0
LWPOLYLINE
  5
142
330
13F
100
AcDbEntity
  8
0
100
AcDbPolyline
 90
28
 70
0
 10
0.0
 20
0.0
 10
0.0
 20
188.0
 10
-2182.0
 20
188.0
 10
-2182.0
 20
192.0
 10
-11166.0
 20
192.0
 10
-11166.0
 20
196.0
 10
-14150.0
 20
196.0
 10
-14150.0
 20
200.0
 10
-23134.0
 20
200.0
 10
-23134.0
 20
204.0
 10
-26118.0
 20
204.0
 10
-26118.0
 20
208.0
 10
-27590.0
 20
208.0
 10
-27590.0
 20
-2208.0
 10
-26262.0
 20
-2208.0
 10
-26262.0
 20
-2212.0
 10
-23278.0
 20
-2212.0
 10
-23278.0
 20
-2216.0
 10
-14294.0
 20
-2216.0
 10
-14294.0
 20
-2220.0
 10
-11310.0
 20
-2220.0
 10
-11310.0
 20
-2224.0
 10
-2326.0
 20
-2224.0
 10
-2326.0
 20
-2228.0
 10
658.0
 20
-2228.0
 10
658.0
 20
-2232.0
 10
9000.0
 20
-2232.0
 10
9000.0
 20
-2000.0
  0
ENDBLK
  5
141
330
13F
100
AcDbEntity
  8
0
100
AcDbBlockEnd
  0
BLOCK
  5
144
330
143
100
AcDbEntity
  8
0
100
AcDbBlockBegin
  2
WW12_BEG_05-EE12_END_05-5
 70
0
 10
0.0
 20
0.0
 30
0.0
  3
WW12_BEG_05-EE12_END_05-5
  1

  0
LWPOLYLINE
  5
146
330
143
100
AcDbEntity
  8
0
100
AcDbPolyline
 90
28
 70
0
 10
0.0
 20
0.0
 10
0.0
 20
189.0
 10
-2182.0
 20
189.0
 10
-2182.0
 20
193.0
 10
-11166.0
 20
193.0
 10
-11166.0
 20
197.0
 10
-14150.0
 20
197.0
 10
-14150.0
 20
201.0
 10
-23134.0
 20
201.0
 10
-23134.0
 20
205.0
 10
-26118.0
 20
205.0
 10
-26118.0
 20
209.0
 10
-27595.0
 20
209.0
 10
-27595.0
 20
-2209.0
 10
-26270.0
 20
-2209.0
 10
-26270.0
 20
-2213.0
 10
-23286.0
 20
-2213.0
 10
-23286.0
 20
-2217.0
 10
-14302.0
 20
-2217.0
 10
-14302.0
 20
-2221.0
 10
-11318.0
 20
-2221.0
 10
-11318.0
 20
-2225.0
 10
-2334.0
 20
-2225.0
 10
-2334.0
 20
-2229.0
 10
650.0
 20
-2229.0
 10
650.0
 20
-2233.0
 10
9000.0
 20
-2233.0
 10
9000.0
 20
-2000.0
  0
ENDBLK
  5
145
330
143
100
AcDbEntity
  8
0
100
AcDbBlockEnd
  0
BLOCK
  5
148
330
147
100
AcDbEntity
  8
0
100
AcDbBlockBegin
  2
WW12_BEG_06-EE12_END_06-5
 70
0
 10
0.0
 20
0.0
 30
0.0
  3
WW12_BEG_06-EE12_END_06-5
  1

  0
LWPOLYLINE
  5
14A
330
147
100
AcDbEntity
  8
0
100
AcDbPolyline
 90
28
 70
0
 10
0.0
 20
0.0
 10
0.0
 20
190.0
 10
-2182.0
 20
190.0
 10
-2182.0
 20
194.0
 10
-11166.0
 20
194.0
 10
-11166.0
 20
198.0
 10
-14150.0
 20
198.0
 10
-14150.0
 20
202.0
 10
-23134.0
 20
202.0
 10
-23134.0
 20
206.0
 10
-26118.0
 20
206.0
 10
-26118.0
 20
210.0
 10
-27600.0
 20
210.0
 10
-27600.0
 20
-2210.0
 10
-26278.0
 20
-2210.0
 10
-26278.0
 20
-2214.0
 10
-23294.0
 20
-2214.0
 10
-23294.0
 20
-2218.0
 10
-14310.0
 20
-2218.0
 10
-14310.0
 20
-2222.0
 10
-11326.0
 20
-2222.0
 10
-11326.0
 20
-2226.0
 10
-2342.0
 20
-2226.0
 10
-2342.0
 20
-2230.0
 10
642.0
 20
-2230.0
 10
642.0
 20
-2234.0
 10
9000.0
 20
-2234.0
 10
9000.0
 20
-2000.0
  0
ENDBLK
  5
149
330
147
100
AcDbEntity
  8
0
100
AcDbBlockEnd
  0
BLOCK
  5
14C
330
14B
100
AcDbEntity
  8
0
100
AcDbBlockBegin
  2
WW12_BEG_07-EE12_END_07-5
 70
0
 10
0.0
 20
0.0
 30
0.0
  3
WW12_BEG_07-EE12_END_07-5
  1

  0
LWPOLYLINE
  5
14E
330
14B
100
AcDbEntity
  8
0
100
AcDbPolyline
 90
28
 70
0
 10
0.0
 20
0.0
 10
0.0
 20
191.0
 10
-2182.0
 20
191.0
 10
-2182.0
 20
195.0
 10
-11166.0
 20
195.0
 10
-11166.0
 20
199.0
 10
-14150.0
 20
199.0
 10
-14150.0
 20
203.0
 10
-23134.0
 20
203.0
 10
-23134.0
 20
207.0
 10
-26118.0
 20
207.0
 10
-26118.0
 20
211.0
 10
-27605.0
 20
211.0
 10
-27605.0
 20
-2211.0
 10
-26286.0
 20
-2211.0
 10
-26286.0
 20
-2215.0
 10
-23302.0
 20
-2215.0
 10
-23302.0
 20
-2219.0
 10
-14318.0
 20
-2219.0
 10
-14318.0
 20
-2223.0
 10
-11334.0
 20
-2223.0
 10
-11334.0
 20
-2227.0
 10
-2350.0
 20
-2227.0
 10
-2350.0
 20
-2231.0
 10
634.0
 20
-2231.0
 10
634.0
 20
-2235.0
 10
9000.0
 20
-2235.0
 10
9000.0
 20
-2000.0
  0
ENDBLK
  5
14D
330
14B
100
AcDbEntity
  8
0
100
AcDbBlockEnd
  0
BLOCK
  5
150
330
14F
100
AcDbEntity
  8
0
100
AcDbBlockBegin
  2
WW12_BEG_04-EE12_END_04-6
 70
0
 10
0.0
 20
0.0
 30
0.0
  3
WW12_BEG_04-EE12_END_04-6
  1

  0
LWPOLYLINE
  5
152
330
14F
100
AcDbEntity
  8
0
100
AcDbPolyline
 90
28
 70
0
 10
0.0
 20
0.0
 10
0.0
 20
188.0
 10
-8182.0
 20
188.0
 10
-8182.0
 20
192.0
 10
-11166.0
 20
192.0
 10
-11166.0
 20
196.0
 10
-20150.0
 20
196.0
 10
-20150.0
 20
200.0
 10
-23134.0
 20
200.0
 10
-23134.0
 20
204.0
 10
-32118.0
 20
204.0
 10
-32118.0
 20
208.0
 10
-35102.0
 20
208.0
 10
-35102.0
 20
212.0
 10
-36594.0
 20
212.0
 10
-36594.0
 20
-2212.0
 10
-35278.0
 20
-2212.0
 10
-35278.0
 20
-2216.0
 10
-32294.0
 20
-2216.0
 10
-32294.0
 20
-2220.0
 10
-23310.0
 20
-2220.0
 10
-23310.0
 20
-2224.0
 10
-20326.0
 20
-2224.0
 10
-20326.0
 20
-2228.0
 10
-11342.0
 20
-2228.0
 10
-11342.0
 20
-2232.0
 10
-9000.0
 20
-2232.0
 10
-9000.0
 20
-2000.0
  0
ENDBLK
  5
151
330
14F
100
AcDbEntity
  8
0
100
AcDbBlockEnd
  0
BLOCK
  5
154
330
153
100
AcDbEntity
  8
0
100
AcDbBlockBegin
  2
WW12_BEG_05-EE12_END_05-6
 70
0
 10
0.0
 20
0.0
 30
0.0
  3
WW12_BEG_05-EE12_END_05-6
  1

  0
LWPOLYLINE
  5
156
330
153
100
AcDbEntity
  8
0
100
AcDbPolyline
 90
28
 70
0
 10
0.0
 20
0.0
 10
0.0
 20
189.0
 10
-8182.0
 20
189.0
 10
-8182.0
 20
193.0
 10
-11166.0
 20
193.0
 10
-11166.0
 20
197.0
 10
-20150.0
 20
197.0
 10
-20150.0
 20
201.0
 10
-23134.0
 20
201.0
 10
-23134.0
 20
205.0
 10
-32118.0
 20
205.0
 10
-32118.0
 20
209.0
 10
-35102.0
 20
209.0
 10
-35102.0
 20
213.0
 10
-36599.0
 20
213.0
 10
-36599.0
 20
-2213.0
 10
-35286.0
 20
-2213.0
 10
-35286.0
 20
-2217.0
 10
-32302.0
 20
-2217.0
 10
-32302.0
 20
-2221.0
 10
-23318.0
 20
-2221.0
 10
-23318.0
 20
-2225.0
 10
-20334.0
 20
-2225.0
 10
-20334.0
 20
-2229.0
 10
-11350.0
 20
-2229.0
 10
-11350.0
 20
-2233.0
 10
-9000.0
 20
-2233.0
 10
-9000.0
 20
-2000.0
  0
ENDBLK
  5
155
330
153
100
AcDbEntity
  8
0
100
AcDbBlockEnd
  0
BLOCK
  5
158
330
157
100
AcDbEntity
  8
0
100
AcDbBlockBegin
  2
WW12_BEG_06-EE12_END_06-6
 70
0
 10
0.0
 20
0.0
 30
0.0
  3
WW12_BEG_06-EE12_END_06-6
  1

  0
LWPOLYLINE
  5
15A
330
157
100
AcDbEntity
  8
0
100
AcDbPolyline
 90
28
 70
0
 10
0.0
 20
0.0
 10
0.0
 20
190.0
 10
-8182.0
 20
190.0
 10
-8182.0
 20
194.0
 10
-11166.0
 20
194.0
 10
-11166.0
 20
198.0
 10
-20150.0
 20
198.0
 10
-20150.0
 20
202.0
 10
-23134.0
 20
202.0
 10
-23134.0
 20
206.0
 10
-32118.0
 20
206.0
 10
-32118.0
 20
210.0
 10
-35102.0
 20
210.0
 10
-35102.0
 20
214.0
 10
-36604.0
 20
214.0
 10
-36604.0
 20
-2214.0
 10
-35294.0
 20
-2214.0
 10
-35294.0
 20
-2218.0
 10
-32310.0
 20
-2218.0
 10
-32310.0
 20
-2222.0
 10
-23326.0
 20
-2222.0
 10
-23326.0
 20
-2226.0
 10
-20342.0
 20
-2226.0
 10
-20342.0
 20
-2230.0
 10
-11358.0
 20
-2230.0
 10
-11358.0
 20
-2234.0
 10
-9000.0
 20
-2234.0
 10
-9000.0
 20
-2000.0
  0
ENDBLK
  5
159
330
157
100
AcDbEntity
  8
0
100
AcDbBlockEnd
  0
BLOCK
  5
15C
330
15B
100
AcDbEntity
  8
0
100
AcDbBlockBegin
  2
WW12_BEG_07-EE12_END_07-6
 70
0
 10
0.0
 20
0.0
 30
0.0
  3
WW12_BEG_07-EE12_END_07-6
  1

  0
LWPOLYLINE
  5
15E
330
15B
100
AcDbEntity
  8
0
100
AcDbPolyline
 90
28
 70
0
 10
0.0
 20
0.0
 10
0.0
 20
191.0
 10
-8182.0
 20
191.0
 10
-8182.0
 20
195.0
 10
-11166.0
 20
195.0
 10
-11166.0
 20
199.0
 10
-20150.0
 20
199.0
 10
-20150.0
 20
203.0
 10
-23134.0
 20
203.0
 10
-23134.0
 20
207.0
 10
-32118.0
 20
207.0
 10
-32118.0
 20
211.0
 10
-35102.0
 20
211.0
 10
-35102.0
 20
215.0
 10
-36609.0
 20
215.0
 10
-36609.0
 20
-2215.0
 10
-35302.0
 20
-2215.0
 10
-35302.0
 20
-2219.0
 10
-32318.0
 20
-2219.0
 10
-32318.0
 20
-2223.0
 10
-23334.0
 20
-2223.0
 10
-23334.0
 20
-2227.0
 10
-20350.0
 20
-2227.0
 10
-20350.0
 20
-2231.0
 10
-11366.0
 20
-2231.0
 10
-11366.0
 20
-2235.0
 10
-9000.0
 20
-2235.0
 10
-9000.0
 20
-2000.0
  0
ENDBLK
  5
15D
330
15B
100
AcDbEntity
  8
0
100
AcDbBlockEnd
  0
BLOCK
  5
160
330
15F
100
AcDbEntity
  8
0
100
AcDbBlockBegin
  2
WW12_BEG_04-EE12_END_04-7
 70
0
 10
0.0
 20
0.0
 30
0.0
  3
WW12_BEG_04-EE12_END_04-7
  1

  0
LWPOLYLINE
  5
162
330
15F
100
AcDbEntity
  8
0
100
AcDbPolyline
 90
28
 70
0
 10
0.0
 20
0.0
 10
0.0
 20
188.0
 10
-2182.0
 20
188.0
 10
-2182.0
 20
192.0
 10
-11166.0
 20
192.0
 10
-11166.0
 20
196.0
 10
-14150.0
 20
196.0
 10
-14150.0
 20
200.0
 10
-23134.0
 20
200.0
 10
-23134.0
 20
204.0
 10
-26118.0
 20
204.0
 10
-26118.0
 20
208.0
 10
-35102.0
 20
208.0
 10
-35102.0
 20
212.0
 10
-38086.0
 20
212.0
 10
-38086.0
 20
216.0
 10
-39598.0
 20
216.0
 10
-39598.0
 20
-2216.0
 10
-38294.0
 20
-2216.0
 10
-38294.0
 20
-2220.0
 10
-35310.0
 20
-2220.0
 10
-35310.0
 20
-2224.0
 10
-26326.0
 20
-2224.0
 10
-26326.0
 20
-2228.0
 10
-23342.0
 20
-2228.0
 10
-23342.0
 20
-2232.0
 10
-15000.0
 20
-2232.0
 10
-15000.0
 20
-2000.0
  0
ENDBLK
  5
161
330
15F
100
AcDbEntity
  8
0
100
AcDbBlockEnd
  0
BLOCK
  5
164
330
163
100
AcDbEntity
  8
0
100
AcDbBlockBegin
  2
WW12_BEG_05-EE12_END_05-7
 70
0
 10
0.0
 20
0.0
 30
0.0
  3
WW12_BEG_05-EE12_END_05-7
  1

  0
LWPOLYLINE
  5
166
330
163
100
AcDbEntity
  8
0
100
AcDbPolyline
 90
28
 70
0
 10
0.0
 20
0.0
 10
0.0
 20
189.0
 10
-2182.0
 20
189.0
 10
-2182.0
 20
193.0
 10
-11166.0
 20
193.0
 10
-11166.0
 20
197.0
 10
-14150.0
 20
197.0
 10
-14150.0
 20
201.0
 10
-23134.0
 20
201.0
 10
-23134.0
 20
205.0
 10
-26118.0
 20
205.0
 10
-26118.0
 20
209.0
 10
-35102.0
 20
209.0
 10
-35102.0
 20
213.0
 10
-38086.0
 20
213.0
 10
-38086.0
 20
217.0
 10
-39603.0
 20
217.0
 10
-39603.0
 20
-2217.0
 10
-38302.0
 20
-2217.0
 10
-38302.0
 20
-2221.0
 10
-35318.0
 20
-2221.0
 10
-35318.0
 20
-2225.0
 10
-26334.0
 20
-2225.0
 10
-26334.0
 20
-2229.0
 10
-23350.0
 20
-2229.0
 10
-23350.0
 20
-2233.0
 10
-15000.0
 20
-2233.0
 10
-15000.0
 20
-2000.0
  0
ENDBLK
  5
165
330
163
100
AcDbEntity
  8
0
100
AcDbBlockEnd
  0
BLOCK
  5
168
330
167
100
AcDbEntity
  8
0
100
AcDbBlockBegin
  2
WW12_BEG_06-EE12_END_06-7
 70
0
 10
0.0
 20
0.0
 30
0.0
  3
WW12_BEG_06-EE12_END_06-7
  1

  0
LWPOLYLINE
  5
16A
330
167
100
AcDbEntity
  8
0
100
AcDbPolyline
 90
28
 70
0
 10
0.0
 20
0.0
 10
0.0
 20
190.0
 10
-2182.0
 20
190.0
 10
-2182.0
 20
194.0
 10
-11166.0
 20
194.0
 10
-11166.0
 20
198.0
 10
-14150.0
 20
198.0
 10
-14150.0
 20
202.0
 10
-23134.0
 20
202.0
 10
-23134.0
 20
206.0
 10
-26118.0
 20
206.0
 10
-26118.0
 20
210.0
 10
-35102.0
 20
210.0
 10
-35102.0
 20
214.0
 10
-38086.0
 20
214.0
 10
-38086.0
 20
218.0
 10
-39608.0
 20
218.0
 10
-39608.0
 20
-2218.0
 10
-38310.0
 20
-2218.0
 10
-38310.0
 20
-2222.0
 10
-35326.0
 20
-2222.0
 10
-35326.0
 20
-2226.0
 10
-26342.0
 20
-2226.0
 10
-26342.0
 20
-2230.0
 10
-23358.0
 20
-2230.0
 10
-23358.0
 20
-2234.0
 10
-15000.0
 20
-2234.0
 10
-15000.0
 20
-2000.0
  0
ENDBLK
  5
169
330
167
100
AcDbEntity
  8
0
100
AcDbBlockEnd
  0
BLOCK
  5
16C
330
16B
100
AcDbEntity
  8
0
100
AcDbBlockBegin
  2
WW12_BEG_07-EE12_END_07-7
 70
0
 10
0.0
 20
0.0
 30
0.0
  3
WW12_BEG_07-EE12_END_07-7
  1

  0
LWPOLYLINE
  5
16E
330
16B
100
AcDbEntity
  8
0
100
AcDbPolyline
 90
28
 70
0
 10
0.0
 20
0.0
 10
0.0
 20
191.0
 10
-2182.0
 20
191.0
 10
-2182.0
 20
195.0
 10
-11166.0
 20
195.0
 10
-11166.0
 20
199.0
 10
-14150.0
 20
199.0
 10
-14150.0
 20
203.0
 10
-23134.0
 20
203.0
 10
-23134.0
 20
207.0
 10
-26118.0
 20
207.0
 10
-26118.0
 20
211.0
 10
-35102.0
 20
211.0
 10
-35102.0
 20
215.0
 10
-38086.0
 20
215.0
 10
-38086.0
 20
219.0
 10
-39613.0
 20
219.0
 10
-39613.0
 20
-2219.0
 10
-38318.0
 20
-2219.0
 10
-38318.0
 20
-2223.0
 10
-35334.0
 20
-2223.0
 10
-35334.0
 20
-2227.0
 10
-26350.0
 20
-2227.0
 10
-26350.0
 20
-2231.0
 10
-23366.0
 20
-2231.0
 10
-23366.0
 20
-2235.0
 10
-15000.0
 20
-2235.0
 10
-15000.0
 20
-2000.0
  0
ENDBLK
  5
16D
330
16B
100
AcDbEntity
  8
0
100
AcDbBlockEnd
  0
BLOCK
  5
170
330
16F
100
AcDbEntity
  8
0
100
AcDbBlockBegin
  2
WW12_BEG_04-EE12_END_04-8
 70
0
 10
0.0
 20
0.0
 30
0.0
  3
WW12_BEG_04-EE12_END_04-8
  1

  0
LWPOLYLINE
  5
172
330
16F
100
AcDbEntity
  8
0
100
AcDbPolyline
 90
28
 70
0
 10
0.0
 20
0.0
 10
0.0
 20
188.0
 10
-8182.0
 20
188.0
 10
-8182.0
 20
192.0
 10
-11166.0
 20
192.0
 10
-11166.0
 20
196.0
 10
-20150.0
 20
196.0
 10
-20150.0
 20
200.0
 10
-23134.0
 20
200.0
 10
-23134.0
 20
204.0
 10
-32118.0
 20
204.0
 10
-32118.0
 20
208.0
 10
-35102.0
 20
208.0
 10
-35102.0
 20
212.0
 10
-44086.0
 20
212.0
 10
-44086.0
 20
216.0
 10
-47070.0
 20
216.0
 10
-47070.0
 20
220.0
 10
-48602.0
 20
220.0
 10
-48602.0
 20
-2220.0
 10
-47310.0
 20
-2220.0
 10
-47310.0
 20
-2224.0
 10
-44326.0
 20
-2224.0
 10
-44326.0
 20
-2228.0
 10
-35342.0
 20
-2228.0
 10
-35342.0
 20
-2232.0
 10
-33000.0
 20
-2232.0
 10
-33000.0
 20
-2000.0
  0
ENDBLK
  5
171
330
16F
100
AcDbEntity
  8
0
100
AcDbBlockEnd
  0
BLOCK
  5
174
330
173
100
AcDbEntity
  8
0
100
AcDbBlockBegin
  2
WW12_BEG_05-EE12_END_05-8
 70
0
 10
0.0
 20
0.0
 30
0.0
  3
WW12_BEG_05-EE12_END_05-8
  1

  0
LWPOLYLINE
  5
176
330
173
100
AcDbEntity
  8
0
100
AcDbPolyline
 90
28
 70
0
 10
0.0
 20
0.0
 10
0.0
 20
189.0
 10
-8182.0
 20
189.0
 10
-8182.0
 20
193.0
 10
-11166.0
 20
193.0
 10
-11166.0
 20
197.0
 10
-20150.0
 20
197.0
 10
-20150.0
 20
201.0
 10
-23134.0
 20
201.0
 10
-23134.0
 20
205.0
 10
-32118.0
 20
205.0
 10
-32118.0
 20
209.0
 10
-35102.0
 20
209.0
 10
-35102.0
 20
213.0
 10
-44086.0
 20
213.0
 10
-44086.0
 20
217.0
 10
-47070.0
 20
217.0
 10
-47070.0
 20
221.0
 10
-48607.0
 20
221.0
 10
-48607.0
 20
-2221.0
 10
-47318.0
 20
-2221.0
 10
-47318.0
 20
-2225.0
 10
-44334.0
 20
-2225.0
 10
-44334.0
 20
-2229.0
 10
-35350.0
 20
-2229.0
 10
-35350.0
 20
-2233.0
 10
-33000.0
 20
-2233.0
 10
-33000.0
 20
-2000.0
  0
ENDBLK
  5
175
330
173
100
AcDbEntity
  8
0
100
AcDbBlockEnd
  0
BLOCK
  5
178
330
177
100
AcDbEntity
  8
0
100
AcDbBlockBegin
  2
WW12_BEG_06-EE12_END_06-8
 70
0
 10
0.0
 20
0.0
 30
0.0
  3
WW12_BEG_06-EE12_END_06-8
  1

  0
LWPOLYLINE
  5
17A
330
177
100
AcDbEntity
  8
0
100
AcDbPolyline
 90
28
 70
0
 10
0.0
 20
0.0
 10
0.0
 20
190.0
 10
-8182.0
 20
190.0
 10
-8182.0
 20
194.0
 10
-11166.0
 20
194.0
 10
-11166.0
 20
198.0
 10
-20150.0
 20
198.0
 10
-20150.0
 20
202.0
 10
-23134.0
 20
202.0
 10
-23134.0
 20
206.0
 10
-32118.0
 20
206.0
 10
-32118.0
 20
210.0
 10
-35102.0
 20
210.0
 10
-35102.0
 20
214.0
 10
-44086.0
 20
214.0
 10
-44086.0
 20
218.0
 10
-47070.0
 20
218.0
 10
-47070.0
 20
222.0
 10
-48612.0
 20
222.0
 10
-48612.0
 20
-2222.0
 10
-47326.0
 20
-2222.0
 10
-47326.0
 20
-2226.0
 10
-44342.0
 20
-2226.0
 10
-44342.0
 20
-2230.0
 10
-35358.0
 20
-2230.0
 10
-35358.0
 20
-2234.0
 10
-33000.0
 20
-2234.0
 10
-33000.0
 20
-2000.0
  0
ENDBLK
  5
179
330
177
100
AcDbEntity
  8
0
100
AcDbBlockEnd
  0
BLOCK
  5
17C
330
17B
100
AcDbEntity
  8
0
100
AcDbBlockBegin
  2
WW12_BEG_07-EE12_END_07-8
 70
0
 10
0.0
 20
0.0
 30
0.0
  3
WW12_BEG_07-EE12_END_07-8
  1

  0
LWPOLYLINE
  5
17E
330
17B
100
AcDbEntity
  8
0
100
AcDbPolyline
 90
28
 70
0
 10
0.0
 20
0.0
 10
0.0
 20
191.0
 10
-8182.0
 20
191.0
 10
-8182.0
 20
195.0
 10
-11166.0
 20
195.0
 10
-11166.0
 20
199.0
 10
-20150.0
 20
199.0
 10
-20150.0
 20
203.0
 10
-23134.0
 20
203.0
 10
-23134.0
 20
207.0
 10
-32118.0
 20
207.0
 10
-32118.0
 20
211.0
 10
-35102.0
 20
211.0
 10
-35102.0
 20
215.0
 10
-44086.0
 20
215.0
 10
-44086.0
 20
219.0
 10
-47070.0
 20
219.0
 10
-47070.0
 20
223.0
 10
-48617.0
 20
223.0
 10
-48617.0
 20
-2223.0
 10
-47334.0
 20
-2223.0
 10
-47334.0
 20
-2227.0
 10
-44350.0
 20
-2227.0
 10
-44350.0
 20
-2231.0
 10
-35366.0
 20
-2231.0
 10
-35366.0
 20
-2235.0
 10
-33000.0
 20
-2235.0
 10
-33000.0
 20
-2000.0
  0
ENDBLK
  5
17D
330
17B
100
AcDbEntity
  8
0
100
AcDbBlockEnd
  0
BLOCK
  5
180
330
17F
100
AcDbEntity
  8
0
100
AcDbBlockBegin
  2
WW12_BEG_04-EE12_END_04-9
 70
0
 10
0.0
 20
0.0
 30
0.0
  3
WW12_BEG_04-EE12_END_04-9
  1

  0
LWPOLYLINE
  5
182
330
17F
100
AcDbEntity
  8
0
100
AcDbPolyline
 90
28
 70
0
 10
0.0
 20
0.0
 10
0.0
 20
188.0
 10
-2182.0
 20
188.0
 10
-2182.0
 20
192.0
 10
-11166.0
 20
192.0
 10
-11166.0
 20
196.0
 10
-14150.0
 20
196.0
 10
-14150.0
 20
200.0
 10
-23134.0
 20
200.0
 10
-23134.0
 20
204.0
 10
-26118.0
 20
204.0
 10
-26118.0
 20
208.0
 10
-35102.0
 20
208.0
 10
-35102.0
 20
212.0
 10
-38086.0
 20
212.0
 10
-38086.0
 20
216.0
 10
-47070.0
 20
216.0
 10
-47070.0
 20
220.0
 10
-50054.0
 20
220.0
 10
-50054.0
 20
224.0
 10
-51606.0
 20
224.0
 10
-51606.0
 20
-2224.0
 10
-50326.0
 20
-2224.0
 10
-50326.0
 20
-2228.0
 10
-47342.0
 20
-2228.0
 10
-47342.0
 20
-2232.0
 10
-39000.0
 20
-2232.0
 10
-39000.0
 20
-2000.0
  0
ENDBLK
  5
181
330
17F
100
AcDbEntity
  8
0
100
AcDbBlockEnd
  0
BLOCK
  5
184
330
183
100
AcDbEntity
  8
0
100
AcDbBlockBegin
  2
WW12_BEG_05-EE12_END_05-9
 70
0
 10
0.0
 20
0.0
 30
0.0
  3
WW12_BEG_05-EE12_END_05-9
  1

  0
LWPOLYLINE
  5
186
330
183
100
AcDbEntity
  8
0
100
AcDbPolyline
 90
28
 70
0
 10
0.0
 20
0.0
 10
0.0
 20
189.0
 10
-2182.0
 20
189.0
 10
-2182.0
 20
193.0
 10
-11166.0
 20
193.0
 10
-11166.0
 20
197.0
 10
-14150.0
 20
197.0
 10
-14150.0
 20
201.0
 10
-23134.0
 20
201.0
 10
-23134.0
 20
205.0
 10
-26118.0
 20
205.0
 10
-26118.0
 20
209.0
 10
-35102.0
 20
209.0
 10
-35102.0
 20
213.0
 10
-38086.0
 20
213.0
 10
-38086.0
 20
217.0
 10
-47070.0
 20
217.0
 10
-47070.0
 20
221.0
 10
-50054.0
 20
221.0
 10
-50054.0
 20
225.0
 10
-51611.0
 20
225.0
 10
-51611.0
 20
-2225.0
 10
-50334.0
 20
-2225.0
 10
-50334.0
 20
-2229.0
 10
-47350.0
 20
-2229.0
 10
-47350.0
 20
-2233.0
 10
-39000.0
 20
-2233.0
 10
-39000.0
 20
-2000.0
  0
ENDBLK
  5
185
330
183
100
AcDbEntity
  8
0
100
AcDbBlockEnd
  0
BLOCK
  5
188
330
187
100
AcDbEntity
  8
0
100
AcDbBlockBegin
  2
WW12_BEG_06-EE12_END_06-9
 70
0
 10
0.0
 20
0.0
 30
0.0
  3
WW12_BEG_06-EE12_END_06-9
  1

  0
LWPOLYLINE
  5
18A
330
187
100
AcDbEntity
  8
0
100
AcDbPolyline
 90
28
 70
0
 10
0.0
 20
0.0
 10
0.0
 20
190.0
 10
-2182.0
 20
190.0
 10
-2182.0
 20
194.0
 10
-11166.0
 20
194.0
 10
-11166.0
 20
198.0
 10
-14150.0
 20
198.0
 10
-14150.0
 20
202.0
 10
-23134.0
 20
202.0
 10
-23134.0
 20
206.0
 10
-26118.0
 20
206.0
 10
-26118.0
 20
210.0
 10
-35102.0
 20
210.0
 10
-35102.0
 20
214.0
 10
-38086.0
 20
214.0
 10
-38086.0
 20
218.0
 10
-47070.0
 20
218.0
 10
-47070.0
 20
222.0
 10
-50054.0
 20
222.0
 10
-50054.0
 20
226.0
 10
-51616.0
 20
226.0
 10
-51616.0
 20
-2226.0
 10
-50342.0
 20
-2226.0
 10
-50342.0
 20
-2230.0
 10
-47358.0
 20
-2230.0
 10
-47358.0
 20
-2234.0
 10
-39000.0
 20
-2234.0
 10
-39000.0
 20
-2000.0
  0
ENDBLK
  5
189
330
187
100
AcDbEntity
  8
0
100
AcDbBlockEnd
  0
BLOCK
  5
18C
330
18B
100
AcDbEntity
  8
0
100
AcDbBlockBegin
  2
WW12_BEG_07-EE12_END_07-9
 70
0
 10
0.0
 20
0.0
 30
0.0
  3
WW12_BEG_07-EE12_END_07-9
  1

  0
LWPOLYLINE
  5
18E
330
18B
100
AcDbEntity
  8
0
100
AcDbPolyline
 90
28
 70
0
 10
0.0
 20
0.0
 10
0.0
 20
191.0
 10
-2182.0
 20
191.0
 10
-2182.0
 20
195.0
 10
-11166.0
 20
195.0
 10
-11166.0
 20
199.0
 10
-14150.0
 20
199.0
 10
-14150.0
 20
203.0
 10
-23134.0
 20
203.0
 10
-23134.0
 20
207.0
 10
-26118.0
 20
207.0
 10
-26118.0
 20
211.0
 10
-35102.0
 20
211.0
 10
-35102.0
 20
215.0
 10
-38086.0
 20
215.0
 10
-38086.0
 20
219.0
 10
-47070.0
 20
219.0
 10
-47070.0
 20
223.0
 10
-50054.0
 20
223.0
 10
-50054.0
 20
227.0
 10
-51621.0
 20
227.0
 10
-51621.0
 20
-2227.0
 10
-50350.0
 20
-2227.0
 10
-50350.0
 20
-2231.0
 10
-47366.0
 20
-2231.0
 10
-47366.0
 20
-2235.0
 10
-39000.0
 20
-2235.0
 10
-39000.0
 20
-2000.0
  0
ENDBLK
  5
18D
330
18B
100
AcDbEntity
  8
0
100
AcDbBlockEnd
  0
BLOCK
  5
190
330
18F
100
AcDbEntity
  8
0
100
AcDbBlockBegin
  2
WW12_BEG_04-EE12_END_04-10
 70
0
 10
0.0
 20
0.0
 30
0.0
  3
WW12_BEG_04-EE12_END_04-10
  1

  0
LWPOLYLINE
  5
192
330
18F
100
AcDbEntity
  8
0
100
AcDbPolyline
 90
28
 70
0
 10
0.0
 20
0.0
 10
0.0
 20
188.0
 10
-8182.0
 20
188.0
 10
-8182.0
 20
192.0
 10
-11166.0
 20
192.0
 10
-11166.0
 20
196.0
 10
-20150.0
 20
196.0
 10
-20150.0
 20
200.0
 10
-23134.0
 20
200.0
 10
-23134.0
 20
204.0
 10
-32118.0
 20
204.0
 10
-32118.0
 20
208.0
 10
-35102.0
 20
208.0
 10
-35102.0
 20
212.0
 10
-44086.0
 20
212.0
 10
-44086.0
 20
216.0
 10
-47070.0
 20
216.0
 10
-47070.0
 20
220.0
 10
-56054.0
 20
220.0
 10
-56054.0
 20
224.0
 10
-59038.0
 20
224.0
 10
-59038.0
 20
228.0
 10
-60610.0
 20
228.0
 10
-60610.0
 20
-2228.0
 10
-59342.0
 20
-2228.0
 10
-59342.0
 20
-2232.0
 10
-57000.0
 20
-2232.0
 10
-57000.0
 20
-2000.0
  0
ENDBLK
  5
191
330
18F
100
AcDbEntity
  8
0
100
AcDbBlockEnd
  0
BLOCK
  5
194
330
193
100
AcDbEntity
  8
0
100
AcDbBlockBegin
  2
WW12_BEG_05-EE12_END_05-10
 70
0
 10
0.0
 20
0.0
 30
0.0
  3
WW12_BEG_05-EE12_END_05-10
  1

  0
LWPOLYLINE
  5
196
330
193
100
AcDbEntity
  8
0
100
AcDbPolyline
 90
28
 70
0
 10
0.0
 20
0.0
 10
0.0
 20
189.0
 10
-8182.0
 20
189.0
 10
-8182.0
 20
193.0
 10
-11166.0
 20
193.0
 10
-11166.0
 20
197.0
 10
-20150.0
 20
197.0
 10
-20150.0
 20
201.0
 10
-23134.0
 20
201.0
 10
-23134.0
 20
205.0
 10
-32118.0
 20
205.0
 10
-32118.0
 20
209.0
 10
-35102.0
 20
209.0
 10
-35102.0
 20
213.0
 10
-44086.0
 20
213.0
 10
-44086.0
 20
217.0
 10
-47070.0
 20
217.0
 10
-47070.0
 20
221.0
 10
-56054.0
 20
221.0
 10
-56054.0
 20
225.0
 10
-59038.0
 20
225.0
 10
-59038.0
 20
229.0
 10
-60615.0
 20
229.0
 10
-60615.0
 20
-2229.0
 10
-59350.0
 20
-2229.0
 10
-59350.0
 20
-2233.0
 10
-57000.0
 20
-2233.0
 10
-57000.0
 20
-2000.0
  0
ENDBLK
  5
195
330
193
100
AcDbEntity
  8
0
100
AcDbBlockEnd
  0
BLOCK
  5
198
330
197
100
AcDbEntity
  8
0
100
AcDbBlockBegin
  2
WW12_BEG_06-EE12_END_06-10
 70
0
 10
0.0
 20
0.0
 30
0.0
  3
WW12_BEG_06-EE12_END_06-10
  1

  0
LWPOLYLINE
  5
19A
330
197
100
AcDbEntity
  8
0
100
AcDbPolyline
 90
28
 70
0
 10
0.0
 20
0.0
 10
0.0
 20
190.0
 10
-8182.0
 20
190.0
 10
-8182.0
 20
194.0
 10
-11166.0
 20
194.0
 10
-11166.0
 20
198.0
 10
-20150.0
 20
198.0
 10
-20150.0
 20
202.0
 10
-23134.0
 20
202.0
 10
-23134.0
 20
206.0
 10
-32118.0
 20
206.0
 10
-32118.0
 20
210.0
 10
-35102.0
 20
210.0
 10
-35102.0
 20
214.0
 10
-44086.0
 20
214.0
 10
-44086.0
 20
218.0
 10
-47070.0
 20
218.0
 10
-47070.0
 20
222.0
 10
-56054.0
 20
222.0
 10
-56054.0
 20
226.0
 10
-59038.0
 20
226.0
 10
-59038.0
 20
230.0
 10
-60620.0
 20
230.0
 10
-60620.0
 20
-2230.0
 10
-59358.0
 20
-2230.0
 10
-59358.0
 20
-2234.0
 10
-57000.0
 20
-2234.0
 10
-57000.0
 20
-2000.0
  0
ENDBLK
  5
199
330
197
100
AcDbEntity
  8
0
100
AcDbBlockEnd
  0
BLOCK
  5
19C
330
19B
100
AcDbEntity
  8
0
100
AcDbBlockBegin
  2
WW12_BEG_07-EE12_END_07-10
 70
0
 10
0.0
 20
0.0
 30
0.0
  3
WW12_BEG_07-EE12_END_07-10
  1

  0
LWPOLYLINE
  5
19E
330
19B
100
AcDbEntity
  8
0
100
AcDbPolyline
 90
28
 70
0
 10
0.0
 20
0.0
 10
0.0
 20
191.0
 10
-8182.0
 20
191.0
 10
-8182.0
 20
195.0
 10
-11166.0
 20
195.0
 10
-11166.0
 20
199.0
 10
-20150.0
 20
199.0
 10
-20150.0
 20
203.0
 10
-23134.0
 20
203.0
 10
-23134.0
 20
207.0
 10
-32118.0
 20
207.0
 10
-32118.0
 20
211.0
 10
-35102.0
 20
211.0
 10
-35102.0
 20
215.0
 10
-44086.0
 20
215.0
 10
-44086.0
 20
219.0
 10
-47070.0
 20
219.0
 10
-47070.0
 20
223.0
 10
-56054.0
 20
223.0
 10
-56054.0
 20
227.0
 10
-59038.0
 20
227.0
 10
-59038.0
 20
231.0
 10
-60625.0
 20
231.0
 10
-60625.0
 20
-2231.0
 10
-59366.0
 20
-2231.0
 10
-59366.0
 20
-2235.0
 10
-57000.0
 20
-2235.0
 10
-57000.0
 20
-2000.0
  0
ENDBLK
  5
19D
330
19B
100
AcDbEntity
  8
0
100
AcDbBlockEnd
  0
BLOCK
  5
1A0
330
19F
100
AcDbEntity
  8
0
100
AcDbBlockBegin
  2
WW12_BEG_04-EE12_END_04-11
 70
0
 10
0.0
 20
0.0
 30
0.0
  3
WW12_BEG_04-EE12_END_04-11
  1

  0
LWPOLYLINE
  5
1A2
330
19F
100
AcDbEntity
  8
0
100
AcDbPolyline
 90
28
 70
0
 10
0.0
 20
0.0
 10
0.0
 20
188.0
 10
-2182.0
 20
188.0
 10
-2182.0
 20
192.0
 10
-11166.0
 20
192.0
 10
-11166.0
 20
196.0
 10
-14150.0
 20
196.0
 10
-14150.0
 20
200.0
 10
-23134.0
 20
200.0
 10
-23134.0
 20
204.0
 10
-26118.0
 20
204.0
 10
-26118.0
 20
208.0
 10
-35102.0
 20
208.0
 10
-35102.0
 20
212.0
 10
-38086.0
 20
212.0
 10
-38086.0
 20
216.0
 10
-47070.0
 20
216.0
 10
-47070.0
 20
220.0
 10
-50054.0
 20
220.0
 10
-50054.0
 20
224.0
 10
-59038.0
 20
224.0
 10
-59038.0
 20
228.0
 10
-62022.0
 20
228.0
 10
-62022.0
 20
232.0
 10
-63614.0
 20
232.0
 10
-63614.0
 20
-2232.0
 10
-63000.0
 20
-2232.0
 10
-63000.0
 20
-2000.0
  0
ENDBLK
  5
1A1
330
19F
100
AcDbEntity
  8
0
100
AcDbBlockEnd
  0
BLOCK
  5
1A4
330
1A3
100
AcDbEntity
  8
0
100
AcDbBlockBegin
  2
WW12_BEG_05-EE12_END_05-11
 70
0
 10
0.0
 20
0.0
 30
0.0
  3
WW12_BEG_05-EE12_END_05-11
  1

  0
LWPOLYLINE
  5
1A6
330
1A3
100
AcDbEntity
  8
0
100
AcDbPolyline
 90
28
 70
0
 10
0.0
 20
0.0
 10
0.0
 20
189.0
 10
-2182.0
 20
189.0
 10
-2182.0
 20
193.0
 10
-11166.0
 20
193.0
 10
-11166.0
 20
197.0
 10
-14150.0
 20
197.0
 10
-14150.0
 20
201.0
 10
-23134.0
 20
201.0
 10
-23134.0
 20
205.0
 10
-26118.0
 20
205.0
 10
-26118.0
 20
209.0
 10
-35102.0
 20
209.0
 10
-35102.0
 20
213.0
 10
-38086.0
 20
213.0
 10
-38086.0
 20
217.0
 10
-47070.0
 20
217.0
 10
-47070.0
 20
221.0
 10
-50054.0
 20
221.0
 10
-50054.0
 20
225.0
 10
-59038.0
 20
225.0
 10
-59038.0
 20
229.0
 10
-62022.0
 20
229.0
 10
-62022.0
 20
233.0
 10
-63619.0
 20
233.0
 10
-63619.0
 20
-2233.0
 10
-63000.0
 20
-2233.0
 10
-63000.0
 20
-2000.0
  0
ENDBLK
  5
1A5
330
1A3
100
AcDbEntity
  8
0
100
AcDbBlockEnd
  0
BLOCK
  5
1A8
330
1A7
100
AcDbEntity
  8
0
100
AcDbBlockBegin
  2
WW12_BEG_06-EE12_END_06-11
 70
0
 10
0.0
 20
0.0
 30
0.0
  3
WW12_BEG_06-EE12_END_06-11
  1

  0
LWPOLYLINE
  5
1AA
330
1A7
100
AcDbEntity
  8
0
100
AcDbPolyline
 90
28
 70
0
 10
0.0
 20
0.0
 10
0.0
 20
190.0
 10
-2182.0
 20
190.0
 10
-2182.0
 20
194.0
 10
-11166.0
 20
194.0
 10
-11166.0
 20
198.0
 10
-14150.0
 20
198.0
 10
-14150.0
 20
202.0
 10
-23134.0
 20
202.0
 10
-23134.0
 20
206.0
 10
-26118.0
 20
206.0
 10
-26118.0
 20
210.0
 10
-35102.0
 20
210.0
 10
-35102.0
 20
214.0
 10
-38086.0
 20
214.0
 10
-38086.0
 20
218.0
 10
-47070.0
 20
218.0
 10
-47070.0
 20
222.0
 10
-50054.0
 20
222.0
 10
-50054.0
 20
226.0
 10
-59038.0
 20
226.0
 10
-59038.0
 20
230.0
 10
-62022.0
 20
230.0
 10
-62022.0
 20
234.0
 10
-63624.0
 20
234.0
 10
-63624.0
 20
-2234.0
 10
-63000.0
 20
-2234.0
 10
-63000.0
 20
-2000.0
  0
ENDBLK
  5
1A9
330
1A7
100
AcDbEntity
  8
0
100
AcDbBlockEnd
  0
BLOCK
  5
1AC
330
1AB
100
AcDbEntity
  8
0
100
AcDbBlockBegin
  2
WW12_BEG_07-EE12_END_07-11
 70
0
 10
0.0
 20
0.0
 30
0.0
  3
WW12_BEG_07-EE12_END_07-11
  1

  0
LWPOLYLINE
  5
1AE
330
1AB
100
AcDbEntity
  8
0
100
AcDbPolyline
 90
28
 70
0
 10
0.0
 20
0.0
 10
0.0
 20
191.0
 10
-2182.0
 20
191.0
 10
-2182.0
 20
195.0
 10
-11166.0
 20
195.0
 10
-11166.0
 20
199.0
 10
-14150.0
 20
199.0
 10
-14150.0
 20
203.0
 10
-23134.0
 20
203.0
 10
-23134.0
 20
207.0
 10
-26118.0
 20
207.0
 10
-26118.0
 20
211.0
 10
-35102.0
 20
211.0
 10
-35102.0
 20
215.0
 10
-38086.0
 20
215.0
 10
-38086.0
 20
219.0
 10
-47070.0
 20
219.0
 10
-47070.0
 20
223.0
 10
-50054.0
 20
223.0
 10
-50054.0
 20
227.0
 10
-59038.0
 20
227.0
 10
-59038.0
 20
231.0
 10
-62022.0
 20
231.0
 10
-62022.0
 20
235.0
 10
-63629.0
 20
235.0
 10
-63629.0
 20
-2235.0
 10
-63000.0
 20
-2235.0
 10
-63000.0
 20
-2000.0
  0
ENDBLK
  5
1AD
330
1AB
100
AcDbEntity
  8
0
100
AcDbBlockEnd
  0
ENDSEC
  0
SECTION
  2
ENTITIES
  0
ENDSEC
  0
SECTION
  2
OBJECTS
  0
DICTIONARY
  5
A
330
0
100
AcDbDictionary
280
0
281
1
  3
ACAD_COLOR
350
B
  3
ACAD_GROUP
350
C
  3
ACAD_LAYOUT
350
D
  3
ACAD_MATERIAL
350
E
  3
ACAD_MLEADERSTYLE
350
F
  3
ACAD_MLINESTYLE
350
10
  3
ACAD_PLOTSETTINGS
350
11
  3
ACAD_PLOTSTYLENAME
350
12
  3
ACAD_SCALELIST
350
14
  3
ACAD_TABLESTYLE
350
15
  3
ACAD_VISUALSTYLE
350
16
  3
EZDXF_META
350
2D
  0
DICTIONARY
  5
B
330
A
100
AcDbDictionary
280
0
281
1
  0
DICTIONARY
  5
C
330
A
100
AcDbDictionary
280
0
281
1
  0
DICTIONARY
  5
D
330
A
100
AcDbDictionary
280
0
281
1
  3
Model
350
1A
  3
Layout1
350
1E
  0
DICTIONARY
  5
E
330
A
100
AcDbDictionary
280
0
281
1
  3
ByBlock
350
1F
  3
ByLayer
350
20
  3
Global
350
21
  0
DICTIONARY
  5
F
330
A
100
AcDbDictionary
280
0
281
1
  3
Standard
350
2C
  0
DICTIONARY
  5
10
330
A
100
AcDbDictionary
280
0
281
1
  3
Standard
350
22
  0
DICTIONARY
  5
11
330
A
100
AcDbDictionary
280
0
281
1
  0
ACDBDICTIONARYWDFLT
  5
12
330
A
100
AcDbDictionary
280
0
281
1
  3
Normal
350
13
100
AcDbDictionaryWithDefault
340
13
  0
ACDBPLACEHOLDER
  5
13
330
12
  0
DICTIONARY
  5
14
330
A
100
AcDbDictionary
280
0
281
1
  0
DICTIONARY
  5
15
330
A
100
AcDbDictionary
280
0
281
1
  0
DICTIONARY
  5
16
330
A
100
AcDbDictionary
280
0
281
1
  0
LAYOUT
  5
1A
330
D
100
AcDbPlotSettings
  1

  2
Adobe PDF
  4
A3
  6

 40
7.5
 41
20.0
 42
7.5
 43
20.0
 44
420.0
 45
297.0
 46
0.0
 47
0.0
 48
0.0
 49
0.0
140
0.0
141
0.0
142
1.0
143
1.0
 70
1024
 72
1
 73
0
 74
5
  7

 75
16
 76
0
 77
2
 78
300
147
1.0
148
0.0
149
0.0
100
AcDbLayout
  1
Model
 70
1
 71
0
 10
0.0
 20
0.0
 11
420.0
 21
297.0
 12
0.0
 22
0.0
 32
0.0
 14
1e+20
 24
1e+20
 34
1e+20
 15
-1e+20
 25
-1e+20
 35
-1e+20
146
0.0
 13
0.0
 23
0.0
 33
0.0
 16
1.0
 26
0.0
 36
0.0
 17
0.0
 27
1.0
 37
0.0
 76
1
330
17
  0
LAYOUT
  5
1E
330
D
100
AcDbPlotSettings
  1

  2
Adobe PDF
  4
A3
  6

 40
7.5
 41
20.0
 42
7.5
 43
20.0
 44
420.0
 45
297.0
 46
0.0
 47
0.0
 48
0.0
 49
0.0
140
0.0
141
0.0
142
1.0
143
1.0
 70
0
 72
1
 73
0
 74
5
  7

 75
16
 76
0
 77
2
 78
300
147
1.0
148
0.0
149
0.0
100
AcDbLayout
  1
Layout1
 70
1
 71
1
 10
0.0
 20
0.0
 11
420.0
 21
297.0
 12
0.0
 22
0.0
 32
0.0
 14
1e+20
 24
1e+20
 34
1e+20
 15
-1e+20
 25
-1e+20
 35
-1e+20
146
0.0
 13
0.0
 23
0.0
 33
0.0
 16
1.0
 26
0.0
 36
0.0
 17
0.0
 27
1.0
 37
0.0
 76
1
330
1B
  0
MATERIAL
  5
1F
102
{ACAD_REACTORS
330
E
102
}
330
E
100
AcDbMaterial
  1
ByBlock
  2

 70
0
 40
1.0
 71
1
 41
1.0
 91
-1023410177
 42
1.0
 72
1
  3

 73
1
 74
1
 75
1
 44
0.5
 73
0
 45
1.0
 46
1.0
 77
1
  4

 78
1
 79
1
170
1
 48
1.0
171
1
  6

172
1
173
1
174
1
140
1.0
141
1.0
175
1
  7

176
1
177
1
178
1
143
1.0
179
1
  8

270
1
271
1
272
1
145
1.0
146
1.0
273
1
  9

274
1
275
1
276
1
 42
1.0
 72
1
  3

 73
1
 74
1
 75
1
 94
63
  0
MATERIAL
  5
20
102
{ACAD_REACTORS
330
E
102
}
330
E
100
AcDbMaterial
  1
ByLayer
  2

 70
0
 40
1.0
 71
1
 41
1.0
 91
-1023410177
 42
1.0
 72
1
  3

 73
1
 74
1
 75
1
 44
0.5
 73
0
 45
1.0
 46
1.0
 77
1
  4

 78
1
 79
1
170
1
 48
1.0
171
1
  6

172
1
173
1
174
1
140
1.0
141
1.0
175
1
  7

176
1
177
1
178
1
143
1.0
179
1
  8

270
1
271
1
272
1
145
1.0
146
1.0
273
1
  9

274
1
275
1
276
1
 42
1.0
 72
1
  3

 73
1
 74
1
 75
1
 94
63
  0
MATERIAL
  5
21
102
{ACAD_REACTORS
330
E
102
}
330
E
100
AcDbMaterial
  1
Global
  2

 70
0
 40
1.0
 71
1
 41
1.0
 91
-1023410177
 42
1.0
 72
1
  3

 73
1
 74
1
 75
1
 44
0.5
 73
0
 45
1.0
 46
1.0
 77
1
  4

 78
1
 79
1
170
1
 48
1.0
171
1
  6

172
1
173
1
174
1
140
1.0
141
1.0
175
1
  7

176
1
177
1
178
1
143
1.0
179
1
  8

270
1
271
1
272
1
145
1.0
146
1.0
273
1
  9

274
1
275
1
276
1
 42
1.0
 72
1
  3

 73
1
 74
1
 75
1
 94
63
  0
MLINESTYLE
  5
22
102
{ACAD_REACTORS
330
10
102
}
330
10
100
AcDbMlineStyle
  2
Standard
 70
0
  3

 62
256
 51
90.0
 52
90.0
 71
2
 49
0.5
 62
256
  6
BYLAYER
 49
-0.5
 62
256
  6
BYLAYER
  0
MLEADERSTYLE
  5
2C
102
{ACAD_REACTORS
330
F
102
}
330
F
100
AcDbMLeaderStyle
179
2
170
2
171
1
172
0
 90
2
 40
0.0
 41
0.0
173
1
 91
-1056964608
 92
-2
290
1
 42
2.0
291
1
 43
8.0
  3
Standard
 44
4.0
300

342
29
174
1
175
1
176
0
178
1
 93
-1056964608
 45
4.0
292
0
297
0
 46
4.0
 94
-1056964608
 47
1.0
 49
1.0
140
1.0
294
1
141
0.0
177
0
142
1.0
295
0
296
0
143
3.75
271
0
272
9
273
9
  0
DICTIONARY
  5
2D
330
A
100
AcDbDictionary
281
1
  3
CREATED_BY_EZDXF
350
2E
  3
WRITTEN_BY_EZDXF
350
1B1
  0
DICTIONARYVAR
  5
2E
330
2D
100
DictionaryVariables
280
0
  1
1.0.3 @ 2023-08-21T02:41:15.713670+00:00
  0
DICTIONARYVAR
  5
1B1
330
2D
100
DictionaryVariables
280
0
  1
1.0.3 @ 2023-08-21T02:41:15.728355+00:00
  0
ENDSEC
  0
EOF
